<svg width="536" height="206" xmlns="http://www.w3.org/2000/svg"><g fill="#B2B2B2" fill-rule="evenodd"><path d="m62.408 144.653 3.952.47c-.56.885-.942 1.541-1.372 2.163-7.855 11.359-15.753 22.687-23.538 34.093-1.247 1.827-1.967 2.365-3.9.644C17.245 163.943 4.053 141.818.8 114.674c-3.547-29.593 4.74-55.992 24.185-78.672C39.832 18.684 58.652 7.764 80.865 2.876 98.784-1.067 116.522.348 133.99 5.769c8.433 2.617 16.498 5.996 23.932 10.849 1.9 1.239 1.916 2.027.623 3.755-9.538 12.758-18.993 25.58-28.42 38.422-.998 1.361-1.958 2.363-3.783 2.01-2.378-.461-3.806.636-5.186 2.578-6.181 8.707-12.538 17.29-19.035 26.196-6.276-8.86-12.423-17.407-18.4-26.073-1.337-1.939-2.674-2.828-5.115-2.74-5.673.202-11.359.064-17.096.064-.07 1.497 1.026 2.27 1.687 3.215 8.865 12.692 17.723 25.39 26.72 37.988 1.347 1.886 1.264 3.019-.076 4.84-9.105 12.375-18.07 24.852-27.432 37.78Zm-7.284-38.895h-.218c0-10.241.146-20.485-.05-30.724-.14-7.248-4.584-11.869-11.786-13.087-5.432-.92-10.894-.464-16.34-.465-6.094-.002-5.355-1.379-5.491 5.772-.038 1.983.742 2.35 2.542 2.38 8.124.134 9.592 1.716 9.592 9.93 0 18.816.044 37.632-.053 56.447-.013 2.495.666 3.27 3.19 3.177 5.34-.197 10.692-.136 16.038-.043 2 .034 2.652-.56 2.629-2.66-.117-10.24-.053-20.484-.053-30.727ZM104.737 116.957c6.386 9.006 12.565 17.58 18.559 26.28 1.307 1.897 2.69 2.582 4.93 2.527 5.666-.14 11.338-.046 17.707-.046-3.255-4.672-6.195-8.923-9.167-13.15-6.596-9.384-13.173-18.78-19.845-28.11-1.217-1.702-1.294-2.86.027-4.647 8.405-11.373 16.66-22.857 24.957-34.31.774-1.068 1.503-2.17 2.305-3.332-1.032-1.013-2.287-.224-3.21-.8-.37-.623.15-1.017.433-1.426 8.04-11.635 16.133-23.234 24.102-34.918 1.304-1.912 2.18-1.963 3.844-.475 17.504 15.644 29.96 34.501 35.024 57.53 5.787 26.32 1.778 51.376-12.342 74.483-15.304 25.042-37.508 40.983-66.135 47.02-26.227 5.528-51.345 1.617-74.658-12.173-2.385-1.41-2.635-2.458-.998-4.805 8.915-12.788 17.663-25.695 26.401-38.606 1.027-1.518 2.057-2.624 4.007-2.25 2.467.472 3.812-.871 5.14-2.727 6.152-8.602 12.413-17.124 18.92-26.065Zm43.756-22.42c3.994-2.862 7.312-5.438 10.83-7.706 3.889-2.507 7.165-5.178 5.967-10.507-.091-.405.087-.879.172-1.314.58-2.958 2.376-4.33 5.395-4.332 3.102 0 6.213.45 6.747 4.012 1.084 7.233.953 14.241-5.882 19.229-4.58 3.341-8.936 6.987-13.414 10.47-6.363 4.95-10.885 10.715-9.906 19.506.441 3.96.228 8.019.02 12.019-.132 2.511.648 3.197 3.16 3.17 12.256-.129 24.516-.058 36.774-.058 6.255 0 6.135-.001 6.202-6.42.028-2.696-.69-3.694-3.552-3.627-7.685.18-15.378-.01-23.066.083-2.022.024-2.653-.58-2.705-2.635-.14-5.415 1.52-10.014 5.357-13.86 4.664-4.673 10.297-8.12 15.379-12.262 4.504-3.67 8.405-7.713 8.564-14.008.076-3.006.11-6.018-.008-9.021-.29-7.383-2.756-11.077-9.536-13.182-8.558-2.658-17.259-2.995-25.869-.036-6.444 2.215-10.387 7.48-10.597 14.302-.158 5.115-.032 10.24-.032 16.177ZM276.176 78.754c.076 5.96.136 11.92.241 17.88.021 1.19-.311 2.442.425 3.554.767-8.104 5.795-12.64 12.951-15.324 4.733-1.775 9.683-2.598 14.715-2.57 2.603.015 2.451-1.2 1.685-2.812-.986-2.073-2.803-3.046-5.042-3.365-5.467-.775-10.64.241-15.52 2.68-1.658.83-2.624 1.057-2.871-1.196-.096-.869-.477-1.706-.724-2.559-2.026-6.995-2.04-7.039 4.826-9.18 6.358-1.982 12.906-2.52 19.471-1.644 10.2 1.361 16.4 8.187 17.24 18.96.364 4.653.157 9.35.227 14.026.088 5.895-.342 11.815.655 17.67.356 2.087-.295 2.787-2.423 2.62-2.325-.183-4.676-.037-7.017-.043-3.2-.008-7.088 1.063-6.446-4.72-11.634 10.172-29.233 6.292-31.705-7.729-1.217 2.782.323 5.923-1.134 8.674 0-.001 0 0 0 0-.72 12.894-5.69 20.375-16.232 23.842-6.566 2.16-13.381 2.125-20.178 1.26-3.313-.42-6.522-1.295-9.64-2.558-1.549-.627-2.016-1.412-1.541-3.021.88-2.983 1.778-5.978 2.354-9.027.387-2.05 1.142-1.9 2.617-1.129 3.292 1.72 6.855 2.526 10.536 2.947 10.247 1.172 15.633-3.705 15.382-14.304-2.2 1.374-4.012 3.109-6.355 3.973-9.707 3.58-21.072-.424-25.77-9.757-5.457-10.842-4.838-21.658 1.64-32.056 6.145-9.865 22.746-14.383 32.259-4.057 1.43-4.826 1.43-4.85 6.857-4.816 2.767.017 6.46-.912 8.06.492 1.885 1.656.387 5.427.514 8.276.073 1.667-.032 3.342-.057 5.013Zm95.972-6.364c4.485-5.892 10.135-8.784 17.196-8.517 9.206.347 15.48 6.43 16.68 16.766 1.353 11.65.356 23.385.611 35.08.028 1.307-.522 1.756-1.782 1.746-4.349-.038-8.7-.096-13.046.02-2.292.06-1.771-1.46-1.774-2.69-.021-8.137.004-16.274-.02-24.41-.007-2.673-.24-5.303-1.058-7.9-1.008-3.204-3.067-4.853-6.367-4.802-3.028.046-6.032 2.58-6.646 5.64-.37 1.843-.535 3.754-.546 5.636-.055 8.582-.1 17.166.028 25.747.031 2.18-.526 2.91-2.762 2.796-3.671-.185-7.367-.205-11.035.004-2.46.14-2.94-.803-2.908-3.047.121-8.246.077-16.495.028-24.744-.012-1.993-.055-4.036-.482-5.968-.899-4.074-3.258-6.157-6.432-6.073-3.464.09-6.635 2.931-7.28 6.697-.263 1.526-.286 3.107-.29 4.662-.027 8.471-.081 16.944.034 25.413.03 2.225-.411 3.204-2.9 3.062-3.78-.215-7.581-.126-11.37-.024-1.668.045-2.345-.344-2.347-2.188-.012-16.049.343-32.103-.481-48.142-.095-1.844.58-2.286 2.28-2.223 3.006.113 6.03.179 9.029-.014 2.449-.158 3.811.386 3.512 3.165-.09.835.254 1.716.48 3.05 4.232-4.89 9.248-7.434 15.356-7.308 6.21.127 11.204 2.603 14.292 8.566Zm145.717 39.029c-6.996 6.336-14.672 7.071-22.55 3.494-8.527-3.87-12.182-11.332-12.915-20.313-.796-9.77 1.475-18.523 9.054-25.37 6.747-6.092 20.667-8.163 27.965.584.15-.096.414-.174.433-.292.683-4.559.68-4.586 5.35-4.55 3.21.025 7.543-1.098 9.338.532 2.093 1.9.448 6.266.422 9.558-.106 13.139-.11 26.28-.479 39.412-.34 12.127-6.426 20.251-16.93 23.267-6.42 1.844-12.966 1.876-19.528 1.017-3.42-.448-6.747-1.294-9.917-2.745-1.201-.55-1.674-.997-1.234-2.457 1.113-3.71 1.977-7.494 2.996-11.463 4.783 2.61 9.702 3.97 14.865 4.094 8.817.21 13.223-4.64 13.13-14.768ZM446.398 71.46c4.513-5.188 9.802-7.742 16.342-7.49 8.821.341 14.754 5.006 17.152 13.576a31.604 31.604 0 0 1 1.169 8.568c-.002 9.577-.045 19.154.055 28.73.02 1.97-.378 2.758-2.543 2.66-4.002-.184-8.023-.156-12.029-.01-1.97.073-2.434-.634-2.412-2.481.09-7.46.069-14.922.019-22.383a73.646 73.646 0 0 0-.4-6.986c-.554-5.413-3.2-8.107-7.576-7.85-4.415.259-7.823 3.916-7.872 8.769-.09 9.019-.214 18.045.052 27.056.098 3.335-.889 4.17-4.04 3.9-3.43-.296-6.907-.168-10.355-.029-1.965.079-2.714-.413-2.704-2.553.08-15.811.227-31.626-.421-47.43-.085-2.07.487-2.73 2.573-2.591 2.773.186 5.597.3 8.346-.02 3.166-.37 4.504.752 4.377 3.87-.03.736.14 1.48.267 2.694Zm-36.15 19.5c0-7.792.063-15.585-.042-23.375-.028-1.998.447-2.758 2.582-2.672 4.113.165 8.241.127 12.36.012 1.794-.05 2.258.6 2.252 2.312a6566.24 6566.24 0 0 0 .005 47.754c.007 1.846-.455 2.564-2.413 2.501-4.116-.132-8.243-.13-12.36 0-1.94.061-2.443-.623-2.422-2.489.09-8.013.038-16.028.038-24.043Zm107.665-.818c-.09-1.887.028-3.813-.318-5.652-.629-3.331-2.263-6.015-5.763-7.094-3.438-1.059-6.374-.163-8.802 2.394-4.652 4.899-5.02 15.943-.66 21.116 2.242 2.658 5.127 3.875 8.625 3.033 3.596-.865 5.72-3.135 6.42-6.814.44-2.321.412-4.645.498-6.983Zm-259.143.32h.093c0-1.889.194-3.803-.042-5.662-.431-3.403-2.09-6.098-5.472-7.305-3.499-1.249-6.58-.36-9.12 2.295-4.63 4.839-4.973 16.033-.62 21.117 2.355 2.75 5.317 3.934 8.942 2.945 3.774-1.028 5.759-3.642 6.18-7.396.22-1.975.039-3.994.039-5.993Zm45.628 3.028c-2.714-.081-5.21.42-7.5 1.645-3.001 1.606-4.241 4.957-3.063 7.958 1.022 2.606 4.422 3.855 7.7 2.83 4.111-1.285 5.677-4.073 5.805-9.672.055-2.363-.263-3.79-2.942-2.761ZM418.763 59.6c-5.202.007-8.786-3.417-8.782-8.392.004-4.846 3.848-8.53 8.814-8.445 5.45.093 9.002 3.524 8.943 8.64-.055 4.912-3.645 8.19-8.975 8.197"/></g></svg>