<svg xmlns="http://www.w3.org/2000/svg" xml:space="preserve" width="600" height="181" style="shape-rendering:geometricPrecision;text-rendering:geometricPrecision;image-rendering:optimizeQuality;fill-rule:evenodd;clip-rule:evenodd" viewBox="0 0 592 179"><defs><style>.fil0{fill:#B2B2B2;fill-rule:nonzero}</style></defs><g id="Layer_x0020_1"><g id="_359090070768"><path class="fil0" d="M74 82H34l-6 19c-2 4-3 8-3 10s1 4 2 5c2 1 5 2 10 3v3H5v-3c4-1 7-2 8-4 3-3 6-8 9-17L57 0h3l35 99c2 8 5 13 7 16 3 2 6 3 10 4v3H72v-3c4-1 7-1 8-3 2-1 2-3 2-5s-1-6-3-12l-5-17zm-3-6L54 28 37 76h34zM160 32l24 66 23-66h25v3c-3 0-5 1-6 1-2 1-3 2-4 4-1 1-1 3-1 5v63c0 2 0 4 1 5 1 2 2 3 3 4 2 1 4 1 7 1v4h-35v-4c3 0 5 0 6-1s2-3 3-4c1-2 1-4 1-6V45l-26 77h-3l-25-73h-1v54c0 4 0 6 1 8 0 2 1 4 2 5s2 1 4 2h6v4h-29v-4c3 0 5 0 7-1l3-3c1-2 1-3 1-5V47c0-3 0-5-1-7-1-1-2-3-3-4-2 0-4-1-7-1v-3h24zm99 90v-4h3c1 0 2-1 3-2s2-3 3-5 3-5 4-9l25-73h2l28 78c1 3 2 5 3 6 1 2 2 3 3 4 1 0 2 1 3 1h3v4h-31v-4h4l2-2s1-1 1-2 0-3-1-4c0-1-1-3-1-4l-5-12h-27l-4 12c0 1-1 2-1 3v3c0 1 0 2 1 3 0 1 1 2 2 2 0 0 1 1 2 1h2v4h-24zm24-34h23l-12-33-11 33zm135-56 1 21h-3c0-3-1-6-1-8-1-2-2-3-3-5-2-1-3-1-4-2h-17v65c0 2 0 4 1 6 0 2 0 4 1 5s2 2 4 3c1 1 3 1 6 1v4h-37v-4c3 0 5 0 7-1l3-3c1-1 1-3 1-5 1-2 1-4 1-6V38h-11c-3 0-5 0-7 1-2 0-3 1-4 3-1 1-2 3-2 5-1 2-1 4-1 6h-3l1-21h67zm67 90h-36v-4c3 0 5 0 6-1 2 0 3-1 3-3 1-1 2-2 2-4V45c0-2 0-4-1-5-1-2-2-3-3-4-2 0-4-1-7-1v-3h36v3c-3 0-5 1-7 1-1 1-2 2-3 4-1 1-1 3-1 5v65c0 2 1 3 1 4 1 2 2 3 4 3 1 1 3 1 6 1v4zm105-61h-3c0-1-1-2-1-4 0-1-1-2-2-4 0-1-1-2-2-4 0-1-1-2-2-4-2-1-3-3-5-4s-3-3-5-3l-6-3h-6c-3 0-7 1-10 3s-6 4-8 8c-3 4-5 8-6 13s-2 11-2 17 1 11 2 16c0 4 2 8 3 11 2 3 3 5 5 7s4 4 6 5 4 2 6 2c2 1 4 1 6 1 3 0 6 0 9-2 3-1 7-3 10-6 1-1 2-3 3-4s1-2 2-3c1-2 2-3 2-4 1-2 1-3 2-5l3 2c-1 1-1 3-2 4l-3 6c-1 2-2 4-4 6-2 3-4 4-6 6-3 2-6 3-9 4-3 2-6 2-10 2-6 0-10-1-15-3-5-3-9-6-13-10-3-4-6-9-9-14-2-6-3-12-3-19s1-13 3-19 5-11 9-16c3-4 8-7 12-10 5-2 10-4 16-4 4 0 7 1 10 2l6 3c1 0 2 1 3 1 1 1 2 1 2 1h1l1 1s0-1 1-1c0 0 1 0 1-1 1 0 1-1 1-2 1-1 1-2 1-4h3l3 32zM1 149h5v29H1v-29zm59 0h3l7 20v-20h4v29h-4l-7-18v3c1 1 1 2 1 3v12h-4v-29zm68 0h4c1 0 2 0 3 1h2s1 0 2 1c0 0 1 1 1 2 1 0 1 1 2 2v17c-1 2-1 3-2 3 0 1-1 2-1 2-1 0-2 1-2 1h-9v-29zm5 26h2c1 0 1-1 2-1v-20c-1 0-1-1-2-1h-3v22h1zm62-26h4v24c0 1 1 1 1 1 0 1 0 1 1 1h2l1-1v-25h5v21c0 1-1 2-1 3s0 2-1 3c0 0 0 1-1 1 0 1-1 1-1 1-1 0-1 1-2 1h-3l-1-1c-1 0-1 0-2-1l-1-1c0-1-1-2-1-3v-24zm66 24v-2c0-1 1-1 1-2h3v4l1 1c0 1 0 1 1 1h3c0-1 1-1 1-2s0-1-1-2v-2c-1 0-1-1-1-1l-5-6c-1-1-1-2-2-3 0-1-1-2-1-3s1-2 1-3 1-1 1-2c1-1 1-1 2-1 1-1 2-1 3-1s2 0 3 1c1 0 2 1 2 1 1 1 1 1 1 2 1 1 1 2 1 2v2c-1 1-1 1-1 2h-3v-2c0-1 0-2-1-3 0-1-1-1-2-1h-2v5c1 0 1 1 1 1l5 6c1 1 2 2 2 3 1 2 1 3 1 4s0 2-1 3c0 1 0 1-1 2-1 0-1 1-2 1-1 1-2 1-3 1s-2 0-3-1c-1 0-2-1-2-1-1-1-1-1-1-2-1-1-1-2-1-2zm69-20h-4v-4h13v4h-4v25h-5v-25zm61-4h5c1 0 1 0 2 1h2s1 0 2 1c0 0 1 0 1 1 1 1 1 1 1 2 1 1 1 2 1 4 0 3 0 4-1 6l-3 3 5 11h-5l-4-10h-1v10h-5v-29zm5 15h2c1 0 1 0 2-1v-9c-1-1-1-1-2-1h-2v11zm62-15h4v29h-4v-29zm58 0h11v4h-6v9h5v3h-5v10h6v3h-11v-29zm62 24c0-1 0-2 1-2v-2h3v4l1 1c0 1 0 1 1 1h3c0-1 1-1 1-2v-2s-1 0-1-1v-1c-1 0-1-1-1-1l-5-6c-1-1-1-2-2-3v-6c0-1 1-1 1-2 1-1 2-1 2-1 1-1 2-1 3-1s3 0 3 1c1 0 2 1 2 1l2 2v4c0 1-1 1-1 2h-3v-2c0-1 0-2-1-3 0-1-1-1-2-1h-2v5c1 0 1 1 1 1l5 6c1 1 2 2 2 3 1 2 1 3 1 4v3l-2 2s-1 1-2 1c-1 1-2 1-3 1s-2 0-3-1c-1 0-2-1-2-1-1-1-1-1-1-2s-1-2-1-2z"/><path style="fill:#B2B2B2" d="M0 133h592v4H0z"/></g></g></svg>