<svg width="255" height="33" viewBox="0 0 255 33" fill="none" xmlns="http://www.w3.org/2000/svg">
<path d="M207.975 2.23498C210.554 0.139192 214.147 0.428665 217.231 0.880244C217.109 2.6113 217.01 4.34814 216.947 6.08498C215.422 5.73761 213.081 5.33235 212.304 7.12709C211.823 8.75393 212.084 10.485 212.038 12.1523C213.527 12.1581 215.022 12.1581 216.524 12.1639C216.518 13.7039 216.518 15.2439 216.518 16.7839C215.023 16.7897 213.527 16.7897 212.038 16.7955C212.032 21.8092 212.032 26.8229 212.038 31.8366C210.009 31.8481 207.987 31.8424 205.964 31.8308C205.976 26.8171 205.97 21.8092 205.97 16.7955C204.614 16.7897 203.264 16.7897 201.907 16.7839C201.913 15.2439 201.913 13.7039 201.913 12.1639C203.264 12.1581 204.614 12.1581 205.97 12.1523C206.092 8.83498 205.304 4.79972 207.975 2.23498ZM70.5534 1.15814H76.6502C76.6676 7.39919 76.6328 13.6345 76.6676 19.8697C78.9105 17.3108 81.1243 14.7229 83.3614 12.1581C85.8708 12.1581 88.3802 12.1639 90.8955 12.1523C88.1948 15.0587 85.61 18.0692 82.9905 21.0508C85.7375 24.6055 88.2991 28.305 91.0693 31.8481C88.5077 31.8423 85.9461 31.8366 83.3904 31.8481C81.1185 28.5366 78.951 25.1555 76.6676 21.8555C76.6386 25.1845 76.6618 28.5134 76.6502 31.8424H70.5534C70.5476 21.6124 70.5476 11.3881 70.5534 1.15814ZM0.579102 2.89498C6.27603 3.20761 12.1816 2.09603 17.7105 3.85603C21.8021 5.25709 23.0713 10.8555 20.5502 14.1671C19.623 15.3945 18.1973 16.0776 16.7542 16.5118C18.2205 16.9518 19.791 17.3513 20.9269 18.4455C23.8884 21.1318 23.9696 26.3887 20.9675 29.075C18.7884 31.1245 15.6647 31.7381 12.7669 31.8424C8.70433 31.8597 4.64172 31.8308 0.579102 31.8424V2.89498ZM6.9541 8.1113V14.4681C9.1216 14.3813 11.3644 14.7634 13.474 14.1555C15.9197 13.5013 16.2906 9.51235 13.8449 8.6034C11.6658 7.7234 9.24331 8.2213 6.9541 8.1113ZM6.9541 19.6902V26.626C9.49831 26.4871 12.141 26.9966 14.6215 26.296C17.0614 25.5666 17.7105 21.7802 15.4155 20.495C12.8191 19.1345 9.7591 19.8523 6.9541 19.6902ZM102.892 2.89498C110.438 2.89498 117.983 2.88919 125.535 2.90077C125.529 4.82867 125.529 6.75077 125.535 8.67867C122.794 8.69024 120.058 8.6613 117.317 8.71919C117.363 16.425 117.329 24.1308 117.334 31.8424H111.04C111.04 24.125 111.035 16.4076 111.046 8.69024C108.322 8.67867 105.604 8.68445 102.892 8.68445C102.886 6.75656 102.886 4.82288 102.892 2.89498Z" fill="#B2B2B2"/>
<path d="M25.5057 14.6306C29.2496 11.6606 34.5756 10.6417 39.0613 12.4075C41.8489 13.5306 43.0775 16.6338 43.2108 19.4417C43.431 23.5696 43.2572 27.7033 43.3151 31.837C41.4316 31.8427 39.5423 31.8427 37.6588 31.8427C37.6704 31.2754 37.6993 30.1349 37.7109 29.5617C35.1204 32.8906 29.7885 33.3654 26.4851 30.8643C23.3266 28.4212 23.7091 22.7938 27.2501 20.8891C30.4608 19.1406 34.2626 19.1001 37.8268 19.077C37.566 17.6701 36.7837 16.2806 35.3174 15.8696C32.9123 14.9722 30.513 16.3385 28.7859 17.9306C27.7022 16.8191 26.6068 15.7249 25.5057 14.6306ZM31.1853 24.2122C29.8639 24.9706 29.8117 27.2633 31.2606 27.9001C33.0572 28.8843 35.4391 28.3054 36.8474 26.9101C37.8095 25.9027 37.6066 24.4149 37.7341 23.1528C35.5318 23.1759 33.1035 22.9096 31.1853 24.2122ZM53.1037 14.6827C55.9434 10.2191 64.1556 10.4333 65.7204 15.858C66.9026 21.0917 66.1087 26.5222 66.3347 31.8427H60.2726C60.2553 28.3575 60.3074 24.878 60.261 21.3927C60.2147 19.9049 60.1509 18.0638 58.7484 17.1606C57.259 16.3675 55.1031 16.7091 54.1584 18.1854C53.4514 19.3085 53.463 20.6864 53.405 21.9717C53.3645 25.2601 53.4108 28.5485 53.3934 31.8427H47.372C47.3662 25.2775 47.3662 18.718 47.372 12.1585C49.3076 12.1585 51.2433 12.1585 53.1848 12.1643C53.1616 12.7954 53.121 14.0517 53.1037 14.6827ZM133.91 12.2222C135.428 11.4059 137.202 11.5912 138.859 11.568C138.847 13.4496 138.847 15.3312 138.905 17.2127C136.964 16.738 134.709 16.3849 132.971 17.618C131.505 18.5559 131.232 20.4143 131.157 22.018C131.076 25.2891 131.163 28.5659 131.128 31.8427H125.031C125.025 25.2775 125.025 18.718 125.031 12.1585C127.065 12.1585 129.105 12.1585 131.145 12.1643C131.128 13.1659 131.105 14.1675 131.076 15.1749C131.893 14.0864 132.646 12.8417 133.91 12.2222ZM140.841 14.648C144.556 11.6491 149.899 10.6533 154.373 12.4017C157.167 13.5133 158.407 16.6222 158.54 19.4301C158.761 23.5638 158.581 27.7033 158.645 31.837C156.755 31.8427 154.872 31.8427 152.988 31.8427C153 31.2754 153.029 30.1349 153.04 29.5617C150.462 32.8849 145.147 33.3654 141.838 30.8875C138.656 28.4559 139.027 22.8054 142.58 20.8891C145.79 19.1406 149.592 19.0943 153.156 19.077C152.896 17.6527 152.09 16.2517 150.601 15.8522C148.213 15.0012 145.831 16.327 144.139 17.9364C143.043 16.8364 141.948 15.7364 140.841 14.648ZM146.515 24.2122C145.437 24.8606 145.24 26.3717 145.895 27.3906C147.633 29.0175 150.56 28.508 152.16 26.9333C153.139 25.9317 152.936 24.4264 153.064 23.1528C150.861 23.1701 148.433 22.9096 146.515 24.2122ZM167.854 14.677C170.705 10.2133 178.923 10.4391 180.476 15.8754C181.647 21.1033 180.859 26.528 181.085 31.8427H175.023C174.999 28.3517 175.057 24.8606 175.011 21.3754C174.953 19.9859 174.918 18.3822 173.806 17.3749C172.334 16.2806 169.888 16.6222 168.891 18.2085C168.201 19.3259 168.207 20.6864 168.155 21.9543C168.114 25.2485 168.161 28.5427 168.143 31.8427H162.116C162.116 25.2775 162.116 18.718 162.122 12.1585C164.058 12.1585 165.993 12.1585 167.935 12.1643C167.912 12.7896 167.877 14.0459 167.854 14.677ZM187.802 12.778C191.719 10.7517 196.871 11.2612 200.279 14.0806C199.033 15.3254 197.787 16.5643 196.541 17.8033C195.202 16.6164 193.261 15.5859 191.505 16.5296C190.543 16.8885 190.288 18.5617 191.395 18.9091C193.893 20.0206 196.953 19.818 199.132 21.6591C202.087 24.0617 201.346 29.3591 197.973 31.0496C193.614 33.2496 187.9 32.9138 184.011 29.8685C185.234 28.4906 186.457 27.1127 187.697 25.7406C189.001 26.9101 190.572 28.0738 192.444 27.8075C193.62 27.8827 195.614 27.078 194.669 25.6017C192.044 23.807 188.294 24.4554 185.959 22.0817C183.385 19.378 184.545 14.4338 187.802 12.778ZM221.444 13.9359C225.292 10.9717 231.47 10.5027 235.116 14.0633C237.666 16.5585 238.06 20.3506 237.892 23.7375C233.157 23.7722 228.422 23.6622 223.687 23.8012C224.313 25.868 225.947 27.9117 228.312 27.8191C230.161 27.9696 231.598 26.7133 232.78 25.4685C234.206 26.4991 235.632 27.5354 237.051 28.5891C233.163 33.1975 225.64 33.7185 221.108 29.7817C216.437 25.8449 216.588 17.6701 221.444 13.9359ZM223.618 19.6327C226.399 19.7138 229.181 19.6906 231.969 19.6733C231.656 18.5327 231.285 17.2764 230.137 16.7149C227.651 15.2617 224.203 16.8249 223.618 19.6327ZM250.201 12.0485C251.639 11.4175 253.244 11.6027 254.768 11.568C254.757 13.4496 254.757 15.3312 254.814 17.2127C252.195 16.3559 248.26 16.5412 247.402 19.7196C246.643 23.7027 247.217 27.8075 247.037 31.8427H240.94C240.934 25.2775 240.934 18.718 240.94 12.1585C242.974 12.1585 245.014 12.1585 247.054 12.1643C247.037 13.1659 247.014 14.1675 246.985 15.1749C247.877 13.9764 248.735 12.5927 250.201 12.0485Z" fill="#B2B2B2"/>
</svg>
