<svg width="216" height="72" fill="none" xmlns="http://www.w3.org/2000/svg"><path d="M49.904 54.769h11.285V68.11c-1.63 1.178-3.357 2.054-5.195 2.579-1.838.541-3.756.796-5.754.796-2.606 0-4.988-.414-7.13-1.226-2.142-.812-3.98-1.942-5.498-3.375a14.896 14.896 0 0 1-3.533-5.11c-.831-1.975-1.247-4.124-1.247-6.433 0-2.356.4-4.522 1.183-6.496.783-1.974 1.902-3.678 3.357-5.11 1.455-1.434 3.229-2.548 5.29-3.344 2.063-.796 4.38-1.194 6.938-1.194 1.327 0 2.558.111 3.724.318 1.167.223 2.238.51 3.214.892.975.382 1.87.828 2.685 1.337a14.822 14.822 0 0 1 2.174 1.688l-2.126 3.232c-.336.51-.767.812-1.295.94-.527.11-1.103-.017-1.71-.399a22.313 22.313 0 0 0-1.647-.907 9.586 9.586 0 0 0-1.582-.621c-.544-.16-1.103-.27-1.694-.35a15.233 15.233 0 0 0-1.999-.112c-1.374 0-2.621.239-3.724.732a7.698 7.698 0 0 0-2.813 2.054c-.784.876-1.375 1.943-1.79 3.184-.416 1.242-.624 2.612-.624 4.124 0 1.672.24 3.168.703 4.474.464 1.306 1.12 2.404 1.967 3.296a8.6 8.6 0 0 0 3.052 2.054c1.183.461 2.494.7 3.933.7.879 0 1.694-.08 2.413-.255.72-.175 1.423-.398 2.094-.7v-4.793h-3.133c-.463 0-.83-.127-1.087-.366a1.246 1.246 0 0 1-.4-.939v-4.012h-.031ZM94.101 71.136h-5.706c-.64 0-1.15-.143-1.551-.446a2.764 2.764 0 0 1-.895-1.146l-1.87-5.509H72.01l-1.854 5.525c-.16.398-.447.764-.863 1.099-.416.318-.927.493-1.534.493h-5.755L74.28 39.548h7.545L94.1 71.136ZM82.416 59.068l-2.941-8.645c-.224-.542-.448-1.195-.703-1.943-.24-.748-.495-1.544-.736-2.42-.224.876-.446 1.704-.703 2.452-.24.748-.479 1.401-.703 1.958l-2.893 8.598h8.68ZM132.272 39.548v31.604h-6.489V52.97c0-.414.016-.876.032-1.37.015-.493.064-.986.112-1.496l-8.424 16.24c-.256.51-.607.892-1.055 1.146a3 3 0 0 1-1.518.398h-1.008c-.559 0-1.071-.127-1.519-.398-.448-.254-.798-.637-1.055-1.146l-8.424-16.288c.049.526.081 1.035.113 1.529.031.493.048.955.048 1.369V71.12h-6.49V39.548h5.611c.319 0 .591 0 .831.016.239.016.447.064.639.128.192.063.352.19.511.334.16.16.304.366.448.637l8.2 16.033c.288.557.576 1.114.831 1.719.273.59.528 1.194.768 1.815.239-.637.511-1.258.767-1.863.272-.605.56-1.178.864-1.735l8.135-15.97c.144-.27.288-.493.448-.636.16-.16.32-.27.511-.334.192-.08.4-.112.64-.128.239-.016.512-.016.831-.016h5.642ZM145.811 45.184v7.372h9.975v5.43h-9.975v7.53h13.027v5.636H138.41V39.548h20.428v5.636h-13.027ZM180.897 45.965c-.223.35-.447.604-.687.78-.239.175-.543.254-.927.254-.336 0-.687-.111-1.071-.318-.383-.207-.815-.446-1.311-.7a10.77 10.77 0 0 0-1.663-.701c-.623-.207-1.341-.319-2.141-.319-1.375 0-2.414.287-3.085.876-.671.59-1.007 1.37-1.007 2.372 0 .637.208 1.163.607 1.577.4.414.944.78 1.598 1.082.656.303 1.423.59 2.27.828.847.255 1.711.541 2.607.844.878.319 1.758.669 2.605 1.099a8.77 8.77 0 0 1 2.27 1.608 7.566 7.566 0 0 1 1.598 2.372c.399.94.607 2.054.607 3.375 0 1.465-.255 2.834-.767 4.092a9.638 9.638 0 0 1-2.206 3.328c-.959.939-2.158 1.687-3.564 2.229-1.423.54-3.021.811-4.828.811-.991 0-1.998-.095-3.021-.302a18.733 18.733 0 0 1-2.973-.86 18.442 18.442 0 0 1-2.701-1.305 11.482 11.482 0 0 1-2.206-1.688l2.173-3.423c.176-.239.4-.446.688-.62.288-.16.591-.256.927-.256.432 0 .879.144 1.311.414.448.271.943.573 1.503.908.559.334 1.198.637 1.934.907.718.27 1.582.414 2.573.414 1.343 0 2.366-.286 3.117-.875.736-.59 1.104-1.513 1.104-2.787 0-.732-.209-1.337-.608-1.799-.4-.462-.944-.844-1.599-1.146a13.676 13.676 0 0 0-2.253-.796 113.35 113.35 0 0 1-2.59-.764 19.916 19.916 0 0 1-2.589-1.035 8.096 8.096 0 0 1-2.254-1.624c-.656-.669-1.199-1.513-1.599-2.516-.4-1.003-.607-2.245-.607-3.725 0-1.178.239-2.34.719-3.471a8.886 8.886 0 0 1 2.11-3.01c.927-.875 2.062-1.591 3.42-2.117 1.344-.525 2.893-.796 4.636-.796.975 0 1.918.08 2.846.223a15.06 15.06 0 0 1 2.621.669 14.72 14.72 0 0 1 2.318 1.066c.719.414 1.359.876 1.933 1.401l-1.838 3.424ZM11.669.334c2.19 0 4.06.207 5.594.605 1.535.398 2.798.972 3.773 1.72.975.748 1.678 1.64 2.126 2.69.447 1.051.671 2.23.671 3.535a6.8 6.8 0 0 1-.304 2.054 6.18 6.18 0 0 1-.959 1.847c-.431.573-.99 1.098-1.678 1.576s-1.503.892-2.462 1.242c2.094.51 3.629 1.321 4.636 2.452 1.007 1.13 1.502 2.595 1.502 4.378 0 1.338-.256 2.595-.783 3.758-.527 1.162-1.295 2.165-2.302 3.025-1.007.86-2.254 1.528-3.74 2.022-1.487.477-3.165.732-5.067.732H0V.334h11.669ZM7.353 5.827v7.802h3.836c.815 0 1.55-.064 2.206-.175.655-.112 1.215-.319 1.662-.606.464-.286.8-.684 1.04-1.194.24-.509.351-1.146.351-1.91 0-.748-.096-1.37-.288-1.879-.191-.493-.48-.907-.863-1.21-.4-.302-.895-.525-1.486-.653-.608-.127-1.311-.19-2.142-.19H7.353v.015Zm5.179 20.586c.975 0 1.774-.127 2.382-.366.623-.239 1.103-.557 1.454-.955.352-.398.592-.828.72-1.321.127-.494.191-.988.191-1.497 0-.573-.08-1.099-.223-1.56a2.691 2.691 0 0 0-.784-1.178c-.367-.319-.863-.558-1.47-.733-.608-.175-1.375-.255-2.302-.255H7.353v7.865h5.179ZM135.74.334v31.604h-6.489V13.772c0-.414.016-.876.031-1.37.017-.493.064-.986.113-1.496l-8.424 16.24c-.257.51-.607.892-1.055 1.146a3 3 0 0 1-1.519.398h-1.006c-.561 0-1.072-.127-1.519-.398-.448-.255-.8-.637-1.055-1.146l-8.424-16.288c.047.526.08 1.035.111 1.529.033.493.049.955.049 1.37v18.165h-6.49V.334h5.61c.32 0 .592 0 .831.016.24.016.448.064.641.128.191.08.35.19.51.334.16.16.304.366.448.637l8.168 16.033c.288.557.575 1.114.832 1.72.271.588.527 1.193.767 1.814.239-.637.512-1.257.767-1.863a25.1 25.1 0 0 1 .863-1.735l8.137-15.969c.144-.27.286-.494.447-.637.16-.16.32-.27.511-.334.192-.08.401-.112.64-.128.24-.016.511-.016.831-.016h5.674ZM149.295 31.938h-7.4V.334h7.4v31.604ZM183.119.334v31.604h-3.837c-.559 0-1.038-.095-1.422-.27-.383-.176-.768-.494-1.152-.94l-14.961-18.85c.064.557.096 1.114.113 1.64.015.525.031 1.018.031 1.48v16.94h-6.489V.334h3.868c.32 0 .591.016.799.048.224.032.416.08.592.16.175.079.335.19.494.334.161.143.337.334.545.589l15.088 18.978a23.358 23.358 0 0 1-.159-1.767 29.101 29.101 0 0 1-.048-1.608V.35h6.538V.334ZM204.506 15.571h11.286v13.342c-1.631 1.178-3.357 2.054-5.196 2.58-1.838.54-3.756.795-5.753.795-2.606 0-4.988-.414-7.129-1.226-2.143-.812-3.981-1.942-5.5-3.375a14.914 14.914 0 0 1-3.532-5.11c-.831-1.975-1.247-4.124-1.247-6.433 0-2.356.399-4.521 1.183-6.496.783-1.974 1.902-3.677 3.357-5.11 1.454-1.433 3.229-2.548 5.291-3.344C199.328.398 201.645 0 204.203 0c1.327 0 2.558.111 3.724.318 1.168.223 2.238.51 3.214.892.974.382 1.869.828 2.685 1.337A14.865 14.865 0 0 1 216 4.235l-2.126 3.248c-.336.51-.767.812-1.295.94-.527.11-1.103-.017-1.711-.399a22.07 22.07 0 0 0-1.646-.907 9.523 9.523 0 0 0-1.583-.621c-.543-.16-1.102-.27-1.694-.35a15.237 15.237 0 0 0-1.998-.112c-1.374 0-2.622.239-3.724.733a7.694 7.694 0 0 0-2.813 2.053c-.784.876-1.375 1.943-1.791 3.185-.415 1.241-.623 2.61-.623 4.123 0 1.672.24 3.169.703 4.474.463 1.306 1.119 2.404 1.966 3.296a8.607 8.607 0 0 0 3.053 2.054c1.183.461 2.494.7 3.932.7.88 0 1.694-.08 2.414-.255a11.963 11.963 0 0 0 2.094-.7v-4.792h-3.133c-.463 0-.831-.128-1.087-.367a1.245 1.245 0 0 1-.399-.939v-4.028h-.033ZM89.305 17.704c-.895 4.825-5.115 8.311-10.038 8.311h-.224c-.719-.016-1.487 0-3.405-.812-1.902-.812-2.317-1.29-3.709-2.372-.798-.62-1.95-1.815-3.084-2.818-1.12 1.21-3.66 4.012-3.884 4.235.975 1.05 3.356 3.12 4.315 3.853l-.143-.127a15.732 15.732 0 0 0 9.894 3.646c.799 0 1.454-.032 2.157-.112C87.5 30.744 92.79 26.27 94.517 20.14l-5.211-2.436Z" fill="#fff"/><path d="M71.563 9.17a10.158 10.158 0 0 1 7.688-3.502c2.398 0 4.651.828 6.442 2.277l-2.43 1.735 11.206 5.127-1.15-12.228-2.895 2.038C87.499 1.704 83.519.047 79.267.047c-4.907 0-9.287 2.23-12.196 5.733v.015c-.112.144-8.887 10.827-12.5 14.361-.192.191-.4.367-.607.542-.032.032-.08.063-.112.095-.256.223-.512.446-.767.653a1.131 1.131 0 0 1-.16.127c-.24.191-.48.382-.704.558a1.682 1.682 0 0 0-.175.143c-.16.127-.32.239-.464.35-.064.048-.128.096-.176.143-.064.048-.128.096-.192.128-.207.143-.415.286-.607.43-.064.047-.112.08-.176.111l-.575.382c-.048.032-.096.064-.16.096-.176.111-.336.207-.496.302-.064.032-.128.08-.192.112-.16.095-.303.175-.447.255-1.055.573-1.934.939-2.67 1.162-.735.223-1.31.334-2.477.334-5.659-.27-10.134-5.143-9.703-10.922.368-5 4.476-9.043 9.495-9.377 3.213-.208 6.042 1.162 8.152 3.215.352.335 3.213 3.408 3.82 4.156 1.088-1.162 3.693-4.22 3.789-4.33-.512-.67-2.67-2.93-2.813-3.09C53.084 2.31 48.657.08 43.686.144c-8.264.112-15.17 6.687-15.617 14.903-.48 8.756 6.234 16.08 14.77 16.653.303.016 1.662.064 2.381-.016.735-.08 1.39-.238 1.95-.366.895-.207 1.806-.684 1.822-.684.049-.016.096-.048.144-.064.176-.08.368-.16.56-.255.08-.032.176-.08.256-.127.191-.096.4-.191.607-.303.08-.032.144-.08.224-.111.56-.303 1.167-.637 1.774-1.02.08-.047.176-.11.256-.158.223-.144.447-.287.687-.446.096-.064.208-.143.32-.207.224-.16.463-.319.703-.494.096-.08.192-.143.304-.223.24-.175.48-.366.72-.54.063-.049.127-.096.175-.144.048-.032.08-.064.128-.096.352-.27.703-.573 1.07-.875a3.24 3.24 0 0 0 .257-.223c.271-.24.56-.478.847-.733.128-.111.24-.223.367-.318.048-.048.112-.096.16-.143l.64-.59c.127-.11 3.325-3.232 5.482-5.843 2.158-2.61 4.492-5.731 6.89-8.55Z" fill="#B2B2B2/></svg>