<svg xmlns="http://www.w3.org/2000/svg" xml:space="preserve" width="600" height="226" style="shape-rendering:geometricPrecision;text-rendering:geometricPrecision;image-rendering:optimizeQuality;fill-rule:evenodd;clip-rule:evenodd"><path d="M66 0h534l-59 226H7l30-116-19 15-18 14 5-19 14-52 5-20 10 14 12 16L66 0zM27 68l19 26-33 26 14-52zm227-58h334l-44 168H211l20-80h33l2-8h-32l20-80zm30 88h33l-18 69h236l39-147H337l-18 70h-32l-3 8zM164 10h86l-21 80h-24l-2 8h24l-21 80h-86l21-80h21l2-8h-21l21-80zm-91 0h86l-20 80h-25c2 2 3 5 3 8h19l-20 80H29l21-80h19l2-8H52l21-80zm277 58-32 26 19 26 13-52zm163-20h15l-29 109h14l29-109h15l4-18h-43l-5 18zm-26 0h23l5-18h-38l-33 127h14l14-52h18l5-18h-18l10-39zm-87 79c-5 20-1 32 13 32s25-12 30-32l17-66c6-20 1-32-13-32s-24 12-30 32l-17 66zm32-67c2-10 6-13 11-13 4 0 6 3 4 13l-18 68c-3 9-6 13-11 13-4 0-6-4-4-13l18-68zm-63 1c-10 36 17 41 10 67-2 9-6 12-11 12-4 0-6-3-4-12l3-10h-13l-3 9c-5 20-1 32 13 32s24-12 29-32c10-36-16-41-10-67 3-10 6-13 11-13 4 0 6 3 3 13l-1 6h13l1-5c6-20 2-32-12-32s-24 12-29 32zm-80 145 1-3h9l-2 6c-2 2-4 3-6 4s-4 1-7 1c-4 0-7-1-9-3-1-2-2-4-1-8 1-3 3-6 6-8s6-3 10-3c2 0 4 1 6 1 2 1 3 3 4 4l-3 2-3-3c-1 0-3-1-5-1-3 0-5 1-7 3-3 1-4 3-5 5 0 3 0 4 1 6 2 2 4 2 7 2 2 0 3 0 5-1 2 0 3-1 4-2l1-2h-6zm42 0h8l-2-8-6 8zm-10 8 16-21h2l6 21h-4l-1-6h-11l-4 6h-4zm50 0 6-21h2l6 12 11-12h3l-5 21h-4l4-15-11 11-5-11-4 15h-3zm53 0 6-21h3l-5 21h-4zm34 0 6-21h2l9 14 4-14h3l-5 21h-2l-10-15-3 15h-4zm65-8 1-3h9l-2 6c-1 2-3 3-6 4-2 1-4 1-7 1-4 0-6-1-8-3s-3-4-2-8c1-3 3-6 6-8s6-3 10-3c3 0 5 1 6 1 2 1 3 3 4 4l-3 2-3-3c-1 0-3-1-5-1-3 0-5 1-7 3-3 1-4 3-5 5 0 3 0 4 2 6 1 2 3 2 6 2 2 0 4 0 5-1 2 0 3-1 4-2l1-2h-6zm-411-17c4 0 7 4 6 8v1c4 1 6 4 5 8-1 5-6 8-10 8-3 0-6-2-6-5-2 3-6 5-9 5-4 0-7-3-6-8 1-4 5-7 10-8v-1c1-4 6-8 10-8zm-4 30-2-8-5 8h7zm132-30c2 0 12 10 10 17-1 5-5 8-10 8-3 0-5-2-6-5-2 3-5 5-8 5-5 0-8-3-6-8 2-8 17-17 20-17zm-5 30-1-8-6 8h7zm-66-2c-4 0-14-10-12-19 1-4 6-8 11-8 4 0 6 2 6 5 3-3 6-5 10-5s7 4 6 8c-2 10-18 19-21 19zM51 189c3 6 6 10 11 15-7 4-12 8-18 14-3-6-6-10-11-14 7-5 12-9 18-15zM265 46h16l-30 114h15l29-114h16l5-19h-46l-5 19zm-72 0h26l5-19h-41l-34 133h40l5-19h-26l11-39h20l5-19h-20l9-37zm-85 0c5 0 6 4 4 13l-2 8c-3 10-7 14-13 14h-6l9-35h8zm-15 54c7 0 8 4 5 16l-3 12c-2 10-6 13-11 13h-8l10-41h7zm20-73H91L56 160h23c15 0 25-11 31-32l3-11c3-14 3-24-4-28 8-5 13-13 17-27l1-5c5-20 1-30-14-30z" style="fill:#B2B2B2"/></svg>