<svg xmlns="http://www.w3.org/2000/svg" width="271.48" height="89.5"><defs><style>.cls-1{fill:#B2B2B2}</style></defs><g id="Layer_2" data-name="Layer 2"><g id="Layer_1-2" data-name="Layer 1"><path class="cls-1" d="M69.1 1h29.58l.73 10h-1.75c-.69-4.11-.78-5-2.28-6.59s-4.48-1.49-6.89-1.49h-7.56a1.81 1.81 0 0 0-1.38.5 2.13 2.13 0 0 0-.47 1.51v12.74h3.31a5.43 5.43 0 0 0 4.31-1.9q1.65-1.9 1.78-5.85h1.8v17.87h-1.8q-.13-4.44-1.81-6.35a5.75 5.75 0 0 0-4.57-1.92h-3v14.34a1.53 1.53 0 0 0 .56 1.28 3 3 0 0 0 1.86.44h6c6.48 0 10.22-2.12 11.21-10.4h1.88l-.71 12.35H69.1v-2h1.63a3.37 3.37 0 0 0 2.16-.53 1.93 1.93 0 0 0 .62-1.55V4.93A1.93 1.93 0 0 0 73 3.42a2.5 2.5 0 0 0-1.72-.5H69.1Z"/><path class="cls-1" d="M98.06 13.08h13.35v1.78a7.9 7.9 0 0 0-3.06.43 1.18 1.18 0 0 0-.67 1.08 2.75 2.75 0 0 0 .26 1.15L114.42 32l5.9-14a2.19 2.19 0 0 0 .13-.73q0-1.9-3.75-2.37v-1.82h10.12v1.78a4.86 4.86 0 0 0-2.45.83 4.36 4.36 0 0 0-1.37 1.83l-9 20.75h-1.4L103 16.95a3.52 3.52 0 0 0-1.27-1.6 12.52 12.52 0 0 0-3.65-.48ZM136.25 12.35a10.92 10.92 0 0 1 8.28 3.56 13.13 13.13 0 0 1 3.35 9.38 14.46 14.46 0 0 1-1.5 6.85 11.18 11.18 0 0 1-4.28 4.47 11.54 11.54 0 0 1-6 1.65 10.51 10.51 0 0 1-8-3.6 13.29 13.29 0 0 1-3.3-9.34 13.29 13.29 0 0 1 3.29-9.32 10.66 10.66 0 0 1 8.16-3.65Zm0 1.85a5.67 5.67 0 0 0-4.8 2.65q-1.88 2.65-1.88 8.36t1.87 8.51a5.64 5.64 0 0 0 4.81 2.69 5.79 5.79 0 0 0 4.94-2.69q1.89-2.69 1.89-8.79 0-5.66-1.87-8.19a5.88 5.88 0 0 0-4.96-2.53Z"/><path class="cls-1" d="M156 .52v33.41a1.41 1.41 0 0 0 .44 1.12 2.46 2.46 0 0 0 1.59.52h1.57v2h-11.8v-2h1.45A2.46 2.46 0 0 0 151 35a2.16 2.16 0 0 0 .59-1.62V5.66a2.37 2.37 0 0 0-.7-1.9 3.49 3.49 0 0 0-2.37-.84h-2.19V1ZM168.42 12.64v16.21a6.51 6.51 0 0 0 1.5 4.59 5 5 0 0 0 3.87 1.62 6.33 6.33 0 0 0 5-2.36 8.71 8.71 0 0 0 2-5.91v-9.16a2.32 2.32 0 0 0-.9-1.95 6.4 6.4 0 0 0-3.46-.77v-1.83l8.58-.44v20.07a2.8 2.8 0 0 0 .79 2.13 3.05 3.05 0 0 0 2.19.74h1.54v1.75l-8.22.18-.52-4.8a17.79 17.79 0 0 1-4.41 3.89 8.73 8.73 0 0 1-4.48 1.3 7.58 7.58 0 0 1-5.55-2.22q-2.27-2.19-2.27-7.44V17.63a2.4 2.4 0 0 0-1.08-2.15 6.77 6.77 0 0 0-3.21-.57v-1.83ZM194.48 3.12h1.75v10h14.88v2.4h-14.88v15.65a4.53 4.53 0 0 0 1 3.12 3.14 3.14 0 0 0 2.45 1.08 3.71 3.71 0 0 0 3-1.64q1.25-1.64 1.46-5.43h1.75q-.16 4.88-2.22 7.24a6.77 6.77 0 0 1-5.35 2.36 6.52 6.52 0 0 1-4.74-1.66 5.78 5.78 0 0 1-1.71-4.34V15.48h-4.25v-1.82a6.84 6.84 0 0 0 4.38-2.43q2.3-2.9 2.48-8.11Z"/><path class="cls-1" d="m205.86 13.08 9.73-.29v21a1.56 1.56 0 0 0 .42 1.23 2.22 2.22 0 0 0 1.51.52h1.76v2h-11.89v-2H209a2.23 2.23 0 0 0 1.68-.56 2.28 2.28 0 0 0 .54-1.63V18.46a2.79 2.79 0 0 0-.83-2.2 3.63 3.63 0 0 0-2.48-.74h-2Zm6.78-11.56a2.83 2.83 0 0 1 2.06.89 2.86 2.86 0 0 1 .89 2.09 2.79 2.79 0 0 1-.86 2 2.81 2.81 0 0 1-2.06.86 2.84 2.84 0 0 1-2.08-.87 2.8 2.8 0 0 1-.87-2 2.84 2.84 0 0 1 .89-2.06 2.8 2.8 0 0 1 2.03-.9ZM231.56 12.35a10.92 10.92 0 0 1 8.28 3.56 13.13 13.13 0 0 1 3.36 9.38 14.46 14.46 0 0 1-1.5 6.85 11.19 11.19 0 0 1-4.28 4.47 11.55 11.55 0 0 1-6 1.65 10.5 10.5 0 0 1-8-3.6 13.28 13.28 0 0 1-3.3-9.34 13.29 13.29 0 0 1 3.27-9.32 10.66 10.66 0 0 1 8.17-3.65Zm0 1.85a5.67 5.67 0 0 0-4.8 2.65q-1.88 2.65-1.88 8.36t1.87 8.51a5.64 5.64 0 0 0 4.81 2.69 5.79 5.79 0 0 0 4.95-2.69q1.89-2.69 1.89-8.79 0-5.66-1.87-8.19a5.88 5.88 0 0 0-4.97-2.53Z"/><path class="cls-1" d="m242.69 13.08 8.12-.5a40.07 40.07 0 0 1 .73 5.37 11.62 11.62 0 0 1 3.88-4 9.66 9.66 0 0 1 5-1.33 8 8 0 0 1 4.07 1 6.71 6.71 0 0 1 2.64 3 10.52 10.52 0 0 1 1 4.62v11.9a2.5 2.5 0 0 0 .6 1.89 2.91 2.91 0 0 0 2 .56h.71v2h-10.83v-2h.21a3.93 3.93 0 0 0 2.4-.55 2 2 0 0 0 .68-1.65V22.92a9.64 9.64 0 0 0-1-5.06 4.87 4.87 0 0 0-4.43-2.34 6.13 6.13 0 0 0-4.92 2.37 9.38 9.38 0 0 0-2 6.19v9.05a2.47 2.47 0 0 0 .61 1.89 3 3 0 0 0 2 .56h.69v2h-10.91v-2h.68a3.08 3.08 0 0 0 1.94-.52 1.59 1.59 0 0 0 .67-1.3V18a3.13 3.13 0 0 0-.85-2.37 3.4 3.4 0 0 0-2.44-.81h-1.25ZM111 45.58l2.14-3.86h1.75l1 15.4h-1.7q-2-6.64-4.61-9.61a10.2 10.2 0 0 0-7.77-3.78 10.07 10.07 0 0 0-6 1.91 11.88 11.88 0 0 0-4.08 5.71c-.94 2.54-1.42 5.1-1.42 9.71a24.74 24.74 0 0 0 1.42 9.47 11.61 11.61 0 0 0 3.92 5.57 9.83 9.83 0 0 0 5.87 1.78 9.38 9.38 0 0 0 7.05-2.56 9.07 9.07 0 0 0 2.49-6.6v-3.63a1.53 1.53 0 0 0-.66-1.33 3.87 3.87 0 0 0-2.18-.47h-3.26v-1.83H120v1.83h-1.18a3.34 3.34 0 0 0-2.09.51 1.8 1.8 0 0 0-.62 1.47V80h-1.71q-.94-3.44-2-6.6a13.78 13.78 0 0 1-4.66 4.81 11.74 11.74 0 0 1-6.12 1.61 17.23 17.23 0 0 1-9-2.5A17.69 17.69 0 0 1 86 70.27 17.75 17.75 0 0 1 83.63 61a17.81 17.81 0 0 1 2.42-9.32 19.06 19.06 0 0 1 6.64-7.25 15.7 15.7 0 0 1 8.52-2.69 13.45 13.45 0 0 1 4.69.82 19.77 19.77 0 0 1 5.1 3.02ZM146 77.16l.41.72c0 1.38-1.66 1.23-3.21 1.23-1.18 0-3.55-.06-4.37-.68s-1.15-1.33-1.76-2.95a15.68 15.68 0 0 1-4.41 3.52 10.65 10.65 0 0 1-4.51.87 8.78 8.78 0 0 1-5.72-1.62 5.15 5.15 0 0 1-2-4.15q0-3.81 4.48-6.33a31.67 31.67 0 0 1 11.91-3.35v-3.74a4.36 4.36 0 0 0-1.59-3.39 5.87 5.87 0 0 0-4-1.41 7.74 7.74 0 0 0-3.91.94q-1.17.71-1.17 1.38a2.52 2.52 0 0 0 .63 1.22 3.31 3.31 0 0 1 .76 1.86 2.56 2.56 0 0 1-.76 1.92 2.7 2.7 0 0 1-2 .74 2.94 2.94 0 0 1-2.18-.88 3.1 3.1 0 0 1-.87-2.27q0-2.59 2.91-4.72a12.58 12.58 0 0 1 7.63-2.14q4.36 0 6.65 1.88a5.79 5.79 0 0 1 2.3 4.62v13.35a4 4 0 0 0 .58 2.3 2.13 2.13 0 0 0 1.37 1 19.43 19.43 0 0 0 2.83.08Zm-9.09-11.05q-6.63.92-9.39 3a5.24 5.24 0 0 0-2.06 4.44 4.38 4.38 0 0 0 1.07 3.14 3.65 3.65 0 0 0 2.79 1.13 7.18 7.18 0 0 0 5.34-2.33 8.09 8.09 0 0 0 2.26-5.86Z"/><path class="cls-1" d="m145.1 54.65 7-.44a39.86 39.86 0 0 1 .75 5.19 13.48 13.48 0 0 1 4-4 8.44 8.44 0 0 1 4.37-1.17 6.48 6.48 0 0 1 4.18 1.32 8.49 8.49 0 0 1 2.53 4.32 13.24 13.24 0 0 1 3.88-4.24 8.33 8.33 0 0 1 4.66-1.4 6.17 6.17 0 0 1 5 2 10.29 10.29 0 0 1 2.14 6.73v12.1a1.72 1.72 0 0 0 .55 1.49 3.36 3.36 0 0 0 2.17.6h1.22v2h-12.3v-2h1.23a3.5 3.5 0 0 0 2.19-.52 1.93 1.93 0 0 0 .63-1.57V62.91a6.1 6.1 0 0 0-1.3-4.21 4.45 4.45 0 0 0-3.49-1.49 5.29 5.29 0 0 0-3 .87 5.84 5.84 0 0 0-2.08 2.5 9.49 9.49 0 0 0-1.12 3.95v10.53a2 2 0 0 0 .57 1.58 2.62 2.62 0 0 0 1.78.51h1.67v2h-12.48v-2h1.41a3.16 3.16 0 0 0 2-.52 1.64 1.64 0 0 0 .66-1.33V64q0-3.58-1.27-5.19a4.11 4.11 0 0 0-3.41-1.62 5.1 5.1 0 0 0-4.24 1.9 9.7 9.7 0 0 0-2.11 6.21v9.76a1.93 1.93 0 0 0 .5 1.54 3.55 3.55 0 0 0 2.19.55h1.25v2h-12.35v-2h1.85a2.27 2.27 0 0 0 1.61-.52 1.74 1.74 0 0 0 .56-1.33v-16a2.63 2.63 0 0 0-.68-2 4.67 4.67 0 0 0-2.72-.84Z"/><path class="cls-1" d="m188.07 54.65 8.72-.29v21a1.56 1.56 0 0 0 .42 1.23 2.24 2.24 0 0 0 1.52.52h2.77v2h-14.93v-2h3.59a2.22 2.22 0 0 0 1.68-.56 2.26 2.26 0 0 0 .53-1.63V59.56a2.8 2.8 0 0 0-.83-2.21 3.62 3.62 0 0 0-2.48-.74h-1Zm5.77-11.56a2.82 2.82 0 0 1 2.06.89 2.85 2.85 0 0 1 .89 2.09 2.79 2.79 0 0 1-.86 2 2.92 2.92 0 1 1-2.09-5Z"/><path class="cls-1" d="m200.78 54.65 8.12-.5a40.3 40.3 0 0 1 .73 5.37 11.62 11.62 0 0 1 3.88-4 9.67 9.67 0 0 1 5.05-1.33 8 8 0 0 1 4.07 1 6.68 6.68 0 0 1 2.64 3 10.55 10.55 0 0 1 1 4.62v11.9a2.5 2.5 0 0 0 .6 1.89 2.9 2.9 0 0 0 2 .56h.71v2H218.7v-2h.21a3.93 3.93 0 0 0 2.4-.55A2 2 0 0 0 222 75V64.49a9.68 9.68 0 0 0-1-5.07 4.88 4.88 0 0 0-4.44-2.35 6.14 6.14 0 0 0-4.92 2.37 9.39 9.39 0 0 0-2 6.19v9.05a2.47 2.47 0 0 0 .61 1.89 3 3 0 0 0 2 .56h.69v2H201v-2h1.7a3.1 3.1 0 0 0 1.94-.52 1.59 1.59 0 0 0 .67-1.31V59.53a3.12 3.12 0 0 0-.85-2.37 3.39 3.39 0 0 0-2.44-.81h-1.25ZM248.09 56c1.74-1.76 6.6-4.33 8.15-4.39a3.27 3.27 0 0 1 2.49.69c.57.56-.46 1.81-.46 2.61a2.27 2.27 0 0 1-.58 1.6 1.8 1.8 0 0 1-1.37.64q-1.49 0-2-1.83-.21-.78-.71-.78a13.19 13.19 0 0 0-4.29 2.5 11.54 11.54 0 0 1 1.54 2.67 7 7 0 0 1 .42 2.44 7.36 7.36 0 0 1-1.1 4 9.22 9.22 0 0 1-3.64 3.06 10.51 10.51 0 0 1-4.87 1.33h-2.84a8.55 8.55 0 0 0-4 .63 2.15 2.15 0 0 0-1 1.91 1.78 1.78 0 0 0 .81 1.57 6 6 0 0 0 3.05.55l6.44-.13q4.88 0 7 1.63a5.3 5.3 0 0 1 2.15 4.47 6.72 6.72 0 0 1-2.45 5.27q-3.42 3-10.21 3-5.61 0-8.32-2.06a4.56 4.56 0 0 1-2.14-3.63 3.8 3.8 0 0 1 1.4-2.75 9.36 9.36 0 0 1 4.61-1.9 8.66 8.66 0 0 1-3.89-1.84 4 4 0 0 1-1.3-3 4.35 4.35 0 0 1 1.02-2.93 8.25 8.25 0 0 1 3.67-2.13 9.1 9.1 0 0 1-3.34-3 7.18 7.18 0 0 1-1.12-4 7.53 7.53 0 0 1 2.79-5.89 10.73 10.73 0 0 1 7.25-2.4 11.89 11.89 0 0 1 3.52.52 12.42 12.42 0 0 1 3.32 1.57Zm-5.32 23.09q-4.8 0-6.85 1.33a3.82 3.82 0 0 0-2.05 3.21 3.18 3.18 0 0 0 1.54 2.79 10.39 10.39 0 0 0 5.79 1.36q4.49 0 6.76-1.49t2.28-3.29a3.24 3.24 0 0 0-.71-2 4.37 4.37 0 0 0-2.25-1.41 16 16 0 0 0-4.51-.47Zm-1.54-23.54a4.9 4.9 0 0 0-3.84 1.71 7 7 0 0 0-1.51 4.79 7.76 7.76 0 0 0 1.51 5.1 5.05 5.05 0 0 0 7.71.05 7.57 7.57 0 0 0 1.5-5 7.16 7.16 0 0 0-1.53-4.83 4.87 4.87 0 0 0-3.84-1.79Z"/><path class="cls-1" d="M257.17 51.79a3 3 0 0 1 2.95 3 2.78 2.78 0 0 1-.86 2 2.92 2.92 0 1 1-2.08-5ZM53.3 75.16h-.97v-1.59h.44a2.36 2.36 0 0 1 1 .11.73.73 0 0 1 .41.69.8.8 0 0 1-.91.8m1.89-.78a1.56 1.56 0 0 0-.58-1.28 2.29 2.29 0 0 0-1.6-.37h-1.61v5.16h1V76h.86l1 1.92h1.1l-1.15-2.1a1.42 1.42 0 0 0 1-1.42m-2 5a4 4 0 1 1 4-4 4 4 0 0 1-4 4m0-9a5 5 0 1 0 5 5 5 5 0 0 0-5-5M.09 4.8c24-12.84 55.1.7 57.44 33.39C12.93 41.69 7.56 21.61.09 4.8Z"/><path class="cls-1" d="M.09 74.89c24 12.84 55.1-.7 57.44-33.39C12.93 38 7.56 58.07.09 74.89Z"/><path class="cls-1" d="M57.44 38.22C55.1 5.53 24-8 0 4.83c7.47 16.81 12.84 36.89 57.44 33.39ZM0 74.92c24 12.84 55.1-.7 57.44-33.39C12.84 38 7.47 58.1 0 74.92Z"/></g></g></svg>