<svg width="1319" height="340" fill="none" xmlns="http://www.w3.org/2000/svg"><path d="M304.42 105.994v-.74a40.81 40.81 0 0 0-20.56-35.45l.06-.1-39-22.53-152.93 88.38v72.35l58.7 33.09 55.4-30.59v-42.81l-55.4 32.25v-43.41l93.43-53.74.41 129-94.66 54.15-95.08-53.76-.46-118.43 152.9-88.23-32.42-18.73a40.81 40.81 0 0 0-43-1.11l-.06-.11-111.27 64.23.07.11A40.8 40.8 0 0 0 0 105.254v128.64a40.819 40.819 0 0 0 23.66 37l106.87 61.76a40.837 40.837 0 0 0 45.86-1.44l104.15-60.13a40.844 40.844 0 0 0 23.9-37.17v-.74l-.02-127.18ZM1307.69 217.324a10.665 10.665 0 0 1 7.56 3.148c.98.998 1.77 2.181 2.3 3.483.53 1.301.79 2.694.78 4.099a10.47 10.47 0 0 1-.78 4.099 10.362 10.362 0 0 1-2.33 3.461c-.98 1-2.15 1.795-3.44 2.338-1.3.542-2.68.822-4.09.822-1.4 0-2.78-.28-4.08-.822a10.546 10.546 0 0 1-3.44-2.338 10.815 10.815 0 0 1-3.11-7.585c0-2.839 1.12-5.564 3.11-7.585a10.156 10.156 0 0 1 3.44-2.34 10.22 10.22 0 0 1 4.08-.78ZM482.04 129.904l-17 16.86c-10.793-11.407-23.373-17.113-37.74-17.12-12.52 0-23.007 4.15-31.46 12.45a40.831 40.831 0 0 0-12.68 30.27 41.88 41.88 0 0 0 13.16 31.21c8.767 8.54 19.587 12.807 32.46 12.8 8.373 0 15.43-1.757 21.17-5.27 5.74-3.513 10.37-9.02 13.89-16.52h-36.89v-22.74h64l.17 5.36a62.206 62.206 0 0 1-8.65 31.65 60.5 60.5 0 0 1-22.39 22.83c-9.167 5.24-19.92 7.863-32.26 7.87-13.2 0-24.977-2.87-35.33-8.61a62.877 62.877 0 0 1-24.55-24.51 68.324 68.324 0 0 1-9-34.33 63.768 63.768 0 0 1 16.69-43.93c13.173-14.787 30.34-22.18 51.5-22.18a78.536 78.536 0 0 1 31 6.14c8.133 3.427 16.103 9.35 23.91 17.77ZM575.94 142.264h23.61v94.09h-23.61v-10a46.202 46.202 0 0 1-13.86 9.47 38.866 38.866 0 0 1-15.08 2.9c-12.14 0-22.647-4.713-31.52-14.14-8.873-9.427-13.307-21.143-13.3-35.15 0-14.533 4.29-26.44 12.87-35.72 8.58-9.28 19.007-13.903 31.28-13.87a39.83 39.83 0 0 1 15.9 3.2 43.364 43.364 0 0 1 13.73 9.6l-.02-10.38Zm-24.82 19.37a23.88 23.88 0 0 0-18.18 7.74c-4.833 5.16-7.247 11.777-7.24 19.85.007 8.073 2.463 14.76 7.37 20.06a23.866 23.866 0 0 0 18.14 7.87 24.306 24.306 0 0 0 18.44-7.74c4.88-5.16 7.323-11.92 7.33-20.28 0-8.18-2.443-14.81-7.33-19.89a24.626 24.626 0 0 0-18.53-7.61ZM623.24 142.264h23.61v10.81a40.205 40.205 0 0 1 13.48-9.94 39.32 39.32 0 0 1 16.14-3.29 29.939 29.939 0 0 1 15.86 4.33 31.219 31.219 0 0 1 11.42 12.62 38.13 38.13 0 0 1 13.8-12.62 37.562 37.562 0 0 1 17.87-4.33 33.13 33.13 0 0 1 17.66 4.67 27.048 27.048 0 0 1 10.94 12.19c2.22 5.02 3.333 13.18 3.34 24.48v55.17h-23.74v-47.74c0-10.667-1.333-17.887-4-21.66-2.667-3.773-6.647-5.66-11.94-5.66a18.078 18.078 0 0 0-10.85 3.46 20.363 20.363 0 0 0-7.13 9.55c-1.56 4.067-2.34 10.597-2.34 19.59v42.46H683.6v-45.57c0-8.42-.62-14.517-1.86-18.29a16.519 16.519 0 0 0-5.59-8.43 14.676 14.676 0 0 0-9-2.77 17.758 17.758 0 0 0-10.7 3.5 20.867 20.867 0 0 0-7.2 9.82c-1.593 4.2-2.387 10.827-2.38 19.88v41.86h-23.63v-94.09ZM884.14 196.144h-75.81a25.192 25.192 0 0 0 8.78 15.95c4.733 3.933 10.807 5.9 18.22 5.9a31.465 31.465 0 0 0 22.74-9.26l19.89 9.34a46.868 46.868 0 0 1-17.81 15.61c-6.92 3.373-15.137 5.06-24.65 5.06-14.76 0-26.78-4.667-36.06-14-9.28-9.333-13.92-21-13.92-35 0-14.36 4.627-26.28 13.88-35.76 9.253-9.48 20.857-14.223 34.81-14.23 14.807 0 26.853 4.743 36.14 14.23 9.287 9.487 13.927 22.01 13.92 37.57l-.13 4.59Zm-23.61-18.59a23.617 23.617 0 0 0-9.23-12.8 26.699 26.699 0 0 0-16-4.93 28.259 28.259 0 0 0-17.32 5.53c-3.12 2.307-6.007 6.373-8.66 12.2h51.21ZM960.84 155.414l-14.62 14.58c-5.927-5.88-11.317-8.82-16.17-8.82a10.12 10.12 0 0 0-6.22 1.69 5.063 5.063 0 0 0-2.25 4.19 5.142 5.142 0 0 0 1.43 3.5c.953 1.067 3.287 2.523 7 4.37l8.65 4.32c9.113 4.5 15.383 9.083 18.81 13.75a28.652 28.652 0 0 1-4.14 37.39c-6.14 5.587-14.37 8.383-24.69 8.39-13.72 0-24.673-5.36-32.86-16.08l14.55-15.83a33.447 33.447 0 0 0 9.73 7.83c3.72 2 7 3 9.9 3 2.69.131 5.344-.663 7.52-2.25a6.519 6.519 0 0 0 2.85-5.19c0-3.627-3.43-7.17-10.29-10.63l-8-4c-15.22-7.667-22.83-17.267-22.83-28.8a24.997 24.997 0 0 1 8.6-19.06c5.74-5.28 13.073-7.92 22-7.92a38.172 38.172 0 0 1 31 15.57h.03ZM1031.92 109.144h12.71v127.21h-12.71v-127.21ZM1071.79 142.264h12.11v16.87a50.589 50.589 0 0 1 16.08-14.49 39.53 39.53 0 0 1 19.2-4.8 33.416 33.416 0 0 1 18.72 5.36 31.945 31.945 0 0 1 12.06 14.45c2.6 6.053 3.9 15.477 3.89 28.27v48.43h-12.1v-44.88c0-10.84-.45-18.077-1.35-21.71-1.4-6.22-4.09-10.903-8.07-14.05-3.98-3.147-9.17-4.72-15.57-4.72a29.842 29.842 0 0 0-19.67 7.26 34.021 34.021 0 0 0-11.46 18c-1.16 4.667-1.74 13.2-1.73 25.6v34.5h-12.11v-94.09ZM1271.11 161.814l-9.6 6c-8.29-11.007-19.6-16.51-33.94-16.51-11.46 0-20.98 3.667-28.55 11a35.999 35.999 0 0 0-8.51 12.238 36.193 36.193 0 0 0-2.84 14.632 38.24 38.24 0 0 0 5.22 19.35 36.566 36.566 0 0 0 14.34 14.07 41.656 41.656 0 0 0 20.43 5c13.82 0 25.1-5.503 33.85-16.51l9.6 6.31a45.238 45.238 0 0 1-18.11 15.76 57.918 57.918 0 0 1-25.9 5.6c-14.88 0-27.21-4.727-37-14.18a46.269 46.269 0 0 1-11.02-15.694 46.225 46.225 0 0 1-3.69-18.816 49.36 49.36 0 0 1 6.88-25.38 48.398 48.398 0 0 1 18.9-18.29 55.11 55.11 0 0 1 26.89-6.57c6.11-.015 12.19.951 18 2.86a50.167 50.167 0 0 1 14.74 7.43 40.384 40.384 0 0 1 10.31 11.7Z" fill="#B2B2B2"/></svg>