<svg xmlns="http://www.w3.org/2000/svg" width="148.5" height="31.54"><defs><style>.cls-1,.cls-2{fill:#B2B2B2}.cls-1{opacity:.5;isolation:isolate}</style></defs><g id="Layer_2" data-name="Layer 2"><g id="Layer_1-2" data-name="Layer 1"><g id="Layer_2-2" data-name="Layer 2"><g id="Layer_1-2-2" data-name="Layer 1-2"><path class="cls-1" d="M5.25 2.62a2.77 2.77 0 0 1 1.89.71 2.49 2.49 0 0 1 .8 2 2.48 2.48 0 0 1-.8 2 2.77 2.77 0 0 1-1.89.72 2.76 2.76 0 0 1-1.89-.72 2.47 2.47 0 0 1-.8-2 2.47 2.47 0 0 1 .8-2 2.76 2.76 0 0 1 1.89-.71m0-2.62a5.33 5.33 0 0 0-3.58 1.42A5 5 0 0 0 0 5.28a5 5 0 0 0 1.66 3.87 5.35 5.35 0 0 0 3.59 1.36 5.33 5.33 0 0 0 3.59-1.36 5 5 0 0 0 1.66-3.86 5 5 0 0 0-1.65-3.86A5.34 5.34 0 0 0 5.25 0M6.76 13v18.2H3.57V12.88a5.58 5.58 0 0 0 1.58.23 5.47 5.47 0 0 0 1.59-.24Z"/><path class="cls-2" d="M26.72 8.35c-.25-3.14-1.53-5.52-4.72-5.52a3.93 3.93 0 0 0-4.19 3.65v.35c0 6.92 12.31 7 12.31 16.86 0 4.88-2.8 7.81-7.86 7.81-4.8 0-7.69-3.53-7.77-8.66h3.06c.08 3.61 1.78 5.86 5.05 5.86 2.76 0 4.54-1.78 4.54-5.05 0-7-12.31-7.77-12.31-16.52 0-4.33 3-7.13 7.39-7.13s7.3 3 7.56 8.32ZM43.49 31.54c-5.18 0-8.66-4.33-8.66-15.75S38.31 0 43.49 0s8.66 4.33 8.66 15.76-3.48 15.75-8.66 15.75m0-28.71c-3 0-5.35 2.55-5.35 13s2.38 13 5.35 13 5.35-2.55 5.35-13-2.38-13-5.35-13M57.34.45H70.5v2.81h-9.85V13.7h7.39v2.81h-7.39v14.61h-3.31V.45zM90.41.45v2.81h-6.28v27.86h-3.31V3.26h-6.29V.45h15.88z"/><path class="cls-1" d="M94 .45h8.15c4.59 0 7.22 3.06 7.22 7.56 0 3.06-1.36 5.82-4.67 6.79v.09c3.7 1 5.35 3.91 5.35 7.73 0 5.69-3.14 8.49-9.85 8.49H94Zm3.31 13.16h1.87c4.76 0 6.88-1.44 6.88-5.6 0-3.48-1.53-4.76-5.43-4.76h-3.34Zm0 14.69h3.31c4 0 6.11-1.74 6.11-5.69s-1.79-6.2-6.11-6.2h-3.33ZM129.22.45v2.81h-10.7V13.7h7.9v2.81h-7.9v11.8h11.21v2.81h-14.52V.45h14.01zM148.5.45v2.81h-6.28v27.86h-3.32V3.26h-6.28V.45h15.88z"/></g></g></g></g></svg>