<svg width="188" height="33" viewBox="0 0 188 33" fill="none" xmlns="http://www.w3.org/2000/svg">
<g clip-path="url(#clip0_2786_3076)">
<path fill-rule="evenodd" clip-rule="evenodd" d="M26.6443 3.53377C26.4321 3.70106 26.2244 3.87339 26.0213 4.05031C22.5513 7.07577 20.3548 11.5294 20.3548 16.5C20.3548 21.4702 22.5513 25.9238 26.0213 28.9493C26.2248 29.1264 26.4326 29.2986 26.6443 29.4658C26.8561 29.2986 27.0638 29.1264 27.2673 28.9493C30.7373 25.9238 32.9338 21.4702 32.9338 16.5C32.9338 11.5294 30.7373 7.07577 27.2673 4.05031C27.0639 3.87305 26.8562 3.70082 26.6443 3.53377ZM36.8215 2.01957e-05C33.5774 -0.00507634 30.4049 0.954542 27.7055 2.75735C27.8391 2.86689 27.974 2.97506 28.1035 3.08781C30.0193 4.75573 31.5556 6.81615 32.6087 9.12994C33.6618 11.4437 34.2071 13.957 34.2078 16.5C34.2069 19.0429 33.6615 21.556 32.6086 23.8697C31.5556 26.1833 30.0195 28.2437 28.1039 29.9118C27.9749 30.0236 27.8391 30.1322 27.7055 30.2422C30.4049 32.045 33.5774 33.0047 36.8215 32.9996C45.9159 32.9996 53.2886 25.6121 53.2886 16.5C53.2886 7.38698 45.9159 2.01957e-05 36.8215 2.01957e-05ZM25.1851 29.9118C25.3137 30.0236 25.4495 30.1322 25.5831 30.2422C22.8839 32.0454 19.7112 33.0052 16.4672 33C7.37225 33 0 25.6121 0 16.5C0 7.38744 7.37225 2.01957e-05 16.4672 2.01957e-05C19.8383 2.01957e-05 22.9726 1.01569 25.5831 2.75735C25.4495 2.86689 25.3146 2.97506 25.1851 3.08735C23.2693 4.7554 21.7331 6.81591 20.68 9.12976C19.6269 11.4436 19.0816 13.9569 19.0809 16.5C19.0816 19.043 19.6269 21.5561 20.68 23.8698C21.7331 26.1835 23.2694 28.2439 25.1851 29.9118ZM86.1767 16.5711C86.1767 14.6428 87.4365 13.0589 89.4985 13.0589C91.4691 13.0589 92.7979 14.5741 92.7979 16.5711C92.7979 18.568 91.4691 20.0833 89.4985 20.0833C87.4365 20.0833 86.1767 18.4997 86.1767 16.5711ZM95.0429 16.5711V11.0848H92.6602V12.4158C91.9041 11.429 90.7587 10.8094 89.2007 10.8094C86.1305 10.8094 83.7254 13.2197 83.7254 16.5711C83.7254 19.9228 86.1305 22.3332 89.2007 22.3332C90.7587 22.3332 91.9041 21.7136 92.6602 20.7263V22.0582H95.0429V16.5711ZM175.506 16.5711C175.506 14.6428 176.766 13.0589 178.828 13.0589C180.798 13.0589 182.127 14.5741 182.127 16.5711C182.127 18.568 180.798 20.0833 178.828 20.0833C176.766 20.0833 175.506 18.4997 175.506 16.5711ZM187.038 21.5371V21.7094H187.196C187.227 21.7109 187.257 21.7034 187.283 21.6879C187.304 21.6737 187.315 21.6517 187.315 21.6219C187.316 21.6094 187.313 21.5969 187.307 21.5857C187.302 21.5745 187.293 21.565 187.283 21.5582C187.257 21.5426 187.227 21.5353 187.196 21.5371H187.038ZM187.198 21.4156C187.28 21.4156 187.344 21.434 187.39 21.4711C187.434 21.5078 187.457 21.5586 187.457 21.6219C187.457 21.6465 187.453 21.671 187.444 21.6938C187.435 21.7166 187.421 21.7372 187.403 21.7543C187.361 21.7919 187.307 21.8144 187.251 21.8185L187.462 22.0623H187.296L187.101 21.8199H187.038V22.0623H186.899V21.4156H187.198ZM187.157 22.2846C187.228 22.2851 187.298 22.2713 187.363 22.244C187.428 22.2166 187.487 22.1764 187.537 22.1256C187.587 22.0751 187.626 22.0152 187.653 21.9493C187.68 21.8833 187.694 21.8127 187.694 21.7415C187.694 21.6663 187.679 21.5962 187.652 21.5298C187.625 21.4656 187.585 21.4071 187.537 21.3574C187.488 21.3087 187.43 21.2697 187.366 21.2424C187.3 21.2141 187.229 21.1997 187.157 21.2002C187.012 21.1992 186.873 21.2558 186.77 21.3574C186.72 21.4079 186.68 21.4678 186.653 21.5337C186.626 21.5997 186.613 21.6703 186.613 21.7415C186.613 21.8128 186.626 21.8834 186.653 21.9494C186.68 22.0153 186.72 22.0752 186.77 22.1256C186.873 22.2279 187.012 22.2851 187.157 22.2846ZM187.157 21.0453C187.295 21.045 187.43 21.0851 187.546 21.1607C187.662 21.2364 187.753 21.3443 187.808 21.4711C187.845 21.5559 187.864 21.6457 187.864 21.7415C187.864 21.8373 187.845 21.9271 187.808 22.0115C187.734 22.1785 187.6 22.3112 187.432 22.3827C187.345 22.4201 187.251 22.4389 187.157 22.4382C187.063 22.4392 186.97 22.4215 186.883 22.3861C186.796 22.3507 186.717 22.2983 186.651 22.2319C186.587 22.1687 186.536 22.0939 186.5 22.0115C186.463 21.9264 186.444 21.8344 186.445 21.7415C186.445 21.6457 186.463 21.5559 186.5 21.4711C186.537 21.3863 186.587 21.3125 186.651 21.2493C186.717 21.1835 186.797 21.1316 186.883 21.0965C186.97 21.0615 187.063 21.0441 187.157 21.0453ZM184.372 16.5711V6.67702H181.989V12.4158C181.233 11.429 180.088 10.8094 178.53 10.8094C175.459 10.8094 173.054 13.2197 173.054 16.5711C173.054 19.9228 175.459 22.3332 178.53 22.3332C180.088 22.3332 181.233 21.7136 181.989 20.7263V22.0582H184.372V16.5711ZM124.598 12.9443C126.133 12.9443 127.118 13.9081 127.37 15.6072H121.688C121.94 14.0232 122.903 12.9443 124.598 12.9443ZM124.644 10.8094C121.436 10.8094 119.191 13.1505 119.191 16.5711C119.191 20.0608 121.528 22.3332 124.804 22.3332C126.454 22.3332 127.966 21.9203 129.295 20.7955L128.126 19.0273C127.21 19.7624 126.041 20.1754 124.941 20.1754C123.407 20.1754 122.009 19.4636 121.665 17.4896H129.799C129.822 17.1907 129.844 16.8928 129.844 16.5711C129.822 13.1505 127.714 10.8094 124.644 10.8094ZM153.397 16.5711C153.397 14.6428 154.657 13.0589 156.719 13.0589C158.689 13.0589 160.018 14.5741 160.018 16.5711C160.018 18.568 158.689 20.0833 156.719 20.0833C154.657 20.0833 153.397 18.4997 153.397 16.5711ZM162.263 16.5711V11.0848H159.88V12.4158C159.125 11.429 157.979 10.8094 156.421 10.8094C153.351 10.8094 150.945 13.2197 150.945 16.5711C150.945 19.9228 153.351 22.3332 156.421 22.3332C157.979 22.3332 159.125 21.7136 159.88 20.7263V22.0582H162.263V16.5711ZM139.948 16.5711C139.948 19.8999 142.262 22.3332 145.791 22.3332C147.44 22.3332 148.54 21.9656 149.731 21.0247L148.585 19.0965C147.692 19.7395 146.753 20.0833 145.721 20.0833C143.82 20.0608 142.423 18.6831 142.423 16.5711C142.423 14.4591 143.82 13.0818 145.721 13.0589C146.753 13.0589 147.692 13.4031 148.585 14.0461L149.731 12.1179C148.54 11.1765 147.44 10.8094 145.791 10.8094C142.262 10.8094 139.948 13.2426 139.948 16.5711ZM170.649 10.8094C169.274 10.8094 168.38 11.4519 167.762 12.4158V11.0848H165.402V22.0582H167.785V15.9056C167.785 14.0919 168.564 13.0818 170.122 13.0818C170.603 13.0818 171.107 13.1505 171.611 13.3572L172.344 11.1077C171.817 10.901 171.13 10.8094 170.649 10.8094ZM106.819 11.957C105.673 11.1994 104.093 10.8094 102.352 10.8094C99.5792 10.8094 97.792 12.1404 97.792 14.3216C97.792 16.1123 99.1213 17.2141 101.572 17.5583L102.695 17.7192C104.001 17.9025 104.619 18.2467 104.619 18.8668C104.619 19.7161 103.749 20.1983 102.122 20.1983C100.473 20.1983 99.2814 19.6703 98.4791 19.0506L97.3565 20.9101C98.6629 21.874 100.312 22.3332 102.1 22.3332C105.261 22.3332 107.094 20.8409 107.094 18.7523C107.094 16.8236 105.651 15.8134 103.268 15.4692L102.145 15.3084C101.114 15.1709 100.29 14.9641 100.29 14.2299C100.29 13.426 101.069 12.9443 102.374 12.9443C103.772 12.9443 105.124 13.4723 105.788 13.8852L106.819 11.957ZM137.542 10.8094C136.168 10.8094 135.274 11.4519 134.656 12.4158V11.0848H132.296V22.0582H134.678V15.9056C134.678 14.0919 135.457 13.0818 137.016 13.0818C137.497 13.0818 138.001 13.1505 138.505 13.3572L139.238 11.1077C138.711 10.901 138.024 10.8094 137.542 10.8094ZM117.221 11.0848H113.326V7.75594H110.92V11.0848H108.698V13.2656H110.92V18.2701C110.92 20.818 111.905 22.3332 114.723 22.3332C115.754 22.3332 116.946 22.0119 117.702 21.4839L117.015 19.4411C116.304 19.8541 115.525 20.0608 114.907 20.0608C113.715 20.0608 113.326 19.3261 113.326 18.2238V13.2656H117.221V11.0848ZM81.6171 22.0582V15.1708C81.6171 12.5767 79.9677 10.8323 77.3101 10.8094C75.9127 10.7864 74.469 11.2223 73.4613 12.7605C72.7052 11.5441 71.5136 10.8094 69.8413 10.8094C68.6726 10.8094 67.5272 11.1536 66.6339 12.4392V11.0848H64.2507V22.0582H66.6567V15.9743C66.6567 14.069 67.7106 13.0589 69.3372 13.0589C70.9181 13.0589 71.7199 14.0919 71.7199 15.9514V22.0582H74.1255V15.9743C74.1255 14.069 75.2252 13.0589 76.806 13.0589C78.4326 13.0589 79.2116 14.0919 79.2116 15.9514V22.0582H81.6171ZM52.774 26.7241V26.0838H52.6075L52.4154 26.5242L52.2233 26.0838H52.0568V26.7241H52.1743V26.241L52.3546 26.6576H52.4767L52.6565 26.2401V26.7241H52.774ZM51.7174 26.7241V26.1928H51.931V26.0851H51.3867V26.1928H51.6007V26.7241H51.7174Z" fill="#B2B2B2"/>
</g>
<defs>
<clipPath id="clip0_2786_3076">
<rect width="188" height="33" fill="white"/>
</clipPath>
</defs>
</svg>
