<svg width="137" height="33" viewBox="0 0 137 33" fill="none" xmlns="http://www.w3.org/2000/svg">
<path fill-rule="evenodd" clip-rule="evenodd" d="M6.26675 17.9398V20.165C6.26675 23.2627 6.2536 26.3619 6.27698 29.4596C6.28283 30.1644 6.10449 30.5321 5.31219 30.5102C3.83255 30.4781 2.35241 30.4767 0.872703 30.5058C0.219278 30.5146 -0.0014546 30.2432 7.20536e-06 29.5982C0.0146252 22.682 0.0146252 15.7657 0.00439261 8.84948C0.00439261 7.93023 0.475093 7.27946 1.12267 6.73229C2.95139 5.18708 6.07233 5.7109 7.24323 7.79307C8.84537 10.6471 10.2838 13.5873 11.7017 16.5376C11.8874 16.9214 12.1008 17.292 12.3069 17.6772C12.7308 17.486 12.551 17.1548 12.5525 16.9141C12.5671 13.8514 12.5627 10.7901 12.5627 7.72741C12.5627 6.29893 12.5627 6.29747 14.0465 6.29747C15.1647 6.29747 16.2889 6.36751 17.4013 6.27704C18.4772 6.18949 18.8368 6.50758 18.8163 7.63695C18.7447 11.5255 18.7885 15.417 18.7885 19.307C18.7885 22.0079 18.7929 24.7102 18.7885 27.4125C18.7842 28.9913 17.9787 30.2271 16.6543 30.7159C15.2393 31.2368 13.836 30.8298 12.7747 29.591C12.1593 28.8731 11.7163 28.0472 11.288 27.2155C9.69175 24.1149 8.10277 21.0084 6.51233 17.9063L6.26675 17.9398ZM32.4725 15.8795C31.6883 15.4653 30.7772 15.3588 29.9184 15.581C29.0596 15.8032 28.3151 16.3381 27.8313 17.0804C26.6297 18.9043 26.7013 21.5176 28.0008 23.2817C29.1264 24.8065 31.2139 25.2311 33.0572 24.2943C34.1828 23.7238 35.016 22.8527 35.6534 21.77C36.6328 20.1037 36.3448 20.3138 37.9922 21.1178C38.9293 21.576 39.8531 22.0662 40.7843 22.5346C41.2667 22.7768 41.5035 23.0657 41.2345 23.6494C38.9673 28.5696 34.4313 31.8657 28.4233 30.7991C26.7735 30.5102 25.2521 29.7234 24.0642 28.5448C21.0923 25.6178 19.6291 22.0983 20.7649 17.9632C21.9519 13.6442 24.8463 10.8354 29.3311 10.1C32.569 9.56883 35.4633 10.6033 37.773 13.0197C38.5989 13.8835 39.2348 14.8917 39.8926 15.8825C40.242 16.4078 40.1732 16.755 39.6309 17.1271C36.8373 19.0421 34.0598 20.9804 31.2986 22.9417C30.6335 23.4159 30.2111 23.4582 29.7798 22.6689C29.2935 21.7859 28.7511 20.935 28.1558 20.1212C27.6982 19.4909 27.8561 19.0998 28.4423 18.7175C29.5299 18.0099 30.6072 17.2876 31.6787 16.5551C31.9623 16.3611 32.3424 16.2633 32.4725 15.8795ZM55.0544 20.5225C55.0193 18.0755 53.7651 16.6456 51.682 16.6806C49.6793 16.7142 48.0874 18.487 48.105 20.664C48.1211 22.7943 49.6486 24.3906 51.6542 24.3746C53.2374 24.3614 55.3482 23.1664 55.0544 20.5225ZM51.5022 30.9348C46.8201 31.5097 41.3778 26.4261 41.4275 20.4437C41.4713 14.9282 45.9634 9.94382 51.663 10.008C57.788 10.0766 61.8971 15.2098 61.7962 20.8931C61.6793 27.3483 55.9607 31.3842 51.5022 30.9348ZM77.5033 17.4321C77.5033 15.4506 77.5267 13.4691 77.4901 11.489C77.477 10.7872 77.724 10.5377 78.4184 10.5523C79.9693 10.5829 81.5218 10.5902 83.0727 10.5479C83.849 10.5275 84.0419 10.8426 84.0375 11.5693C84.0083 15.1719 84.0156 18.773 84.0302 22.3741C84.0346 23.5356 84.7041 24.3177 85.6967 24.4125C86.6571 24.503 87.4801 23.788 87.695 22.6732C87.7213 22.5332 87.7388 22.3887 87.7447 22.2443C87.7812 21.2754 87.8382 20.3036 87.8426 19.3333C87.8572 16.7769 87.8718 14.2191 87.8368 11.6627C87.8265 10.8514 88.0677 10.4939 88.9331 10.5231C90.4095 10.5727 91.8918 10.5552 93.3711 10.5275C94.1079 10.5143 94.4675 10.6982 94.4587 11.5547C94.4149 15.3368 94.5713 19.1232 94.4061 22.8979C94.1912 27.8123 90.7837 31.1595 86.2141 30.9436C84.881 30.8808 83.5537 30.9523 82.2848 30.3949C79.2589 29.0657 77.5384 26.2554 77.4492 22.7243C77.4053 20.9617 77.4419 19.1961 77.4419 17.4321H77.5033ZM108.374 19.0035C108.374 15.7293 108.366 12.4535 108.374 9.17924C108.385 5.10828 111.481 2.01931 115.56 2.00034C116.715 1.99597 117.868 2.03536 119.02 2.00326C119.684 1.98429 120.017 2.14334 119.993 2.89625C119.953 4.44264 119.952 5.98982 119.991 7.53627C120.005 8.16953 119.739 8.35921 119.157 8.34025C118.402 8.3169 117.644 8.33441 116.887 8.34025C116.449 8.34316 116.017 8.39715 115.696 8.74296C115.519 8.92573 115.395 9.15273 115.336 9.40002C115.278 9.64731 115.288 9.90575 115.364 10.1481C115.497 10.564 115.99 10.3772 116.326 10.3845C117.261 10.4078 118.201 10.4224 119.137 10.3889C119.801 10.3641 120.014 10.6325 119.999 11.2789C119.966 12.7904 119.965 14.3024 119.996 15.8139C120.011 16.469 119.761 16.7215 119.111 16.701C118.137 16.6719 117.16 16.7434 116.191 16.6791C115.371 16.6237 115.139 16.9272 115.145 17.7224C115.178 21.5366 115.121 25.3522 115.183 29.1663C115.2 30.2519 114.911 30.6299 113.79 30.5525C112.319 30.4518 110.834 30.4971 109.357 30.5423C108.629 30.5642 108.32 30.3599 108.327 29.5822C108.356 26.0555 108.34 22.5302 108.34 19.0035H108.374ZM66.6655 30.5C65.5107 30.5 64.3558 30.4664 63.2039 30.5117C62.5066 30.5408 62.2245 30.3001 62.2391 29.5953C62.2684 28.2281 62.2684 26.8595 62.2391 25.4923C62.2245 24.8444 62.4686 24.6051 63.1235 24.6197C64.6365 24.6547 66.1509 24.6299 67.6654 24.6299C67.9182 24.6299 68.1711 24.6343 68.4226 24.6226C68.8026 24.6051 69.1754 24.4869 69.2836 24.1032C69.4078 23.6567 69.019 23.4903 68.6945 23.3298C67.601 22.7798 66.4871 22.2705 65.42 21.6796C62.9934 20.3372 62.0433 18.0463 62.5739 14.9588C62.9262 12.9117 65.0443 10.9638 67.4388 10.6471C69.8025 10.3334 72.1896 10.5494 74.5665 10.5304C75.0664 10.5275 75.2872 10.7726 75.2857 11.257C75.2828 12.6957 75.2828 14.1344 75.2857 15.5746C75.2886 16.1539 74.9612 16.2823 74.4466 16.275C73.0419 16.2545 71.6356 16.2691 70.2293 16.2691C69.7908 16.2691 69.2792 16.2429 69.1652 16.7755C69.0438 17.327 69.5671 17.4802 69.9472 17.6524C71.2585 18.2506 72.5434 18.897 73.7625 19.666C75.85 20.9792 76.8762 23.4086 76.3207 25.7097C75.6643 28.4251 73.802 30.106 71.2014 30.3818C69.6899 30.5423 68.1784 30.5044 66.6655 30.4985V30.5ZM102.019 12.7687C103.368 11.1666 104.776 10.3801 106.63 10.5158C107.353 10.5683 107.663 10.7639 107.641 11.5284C107.602 13.0029 107.602 14.478 107.638 15.9525C107.653 16.612 107.47 16.9184 106.745 16.9651C103.858 17.1548 102.86 17.2526 102.873 21.3848C102.882 24.0463 102.842 26.7092 102.898 29.3706C102.918 30.2943 102.585 30.5452 101.714 30.516C100.092 30.4732 98.4702 30.4703 96.8488 30.5073C96.2114 30.5175 95.9498 30.3059 95.9512 29.6362C95.9692 23.5565 95.9692 17.4768 95.9512 11.3971C95.9498 10.704 96.2787 10.5319 96.8751 10.5362C98.1732 10.545 99.4727 10.58 100.766 10.5202C101.719 10.4764 102.211 10.7449 102.025 11.7794C101.988 11.9866 102.021 12.2055 102.021 12.7672" fill="#B2B2B2"/>
</svg>
