<svg xmlns="http://www.w3.org/2000/svg" xml:space="preserve" width="600" height="222" style="shape-rendering:geometricPrecision;text-rendering:geometricPrecision;image-rendering:optimizeQuality;fill-rule:evenodd;clip-rule:evenodd"><path d="M514 47h86v25h-30v106h-26V72h-30V47zm-111 0h23l51 80V47h26v131h-23l-51-80v80h-26V47zm-82 0h68v25h-60v28h51v25h-51v28h60v25h-68v44h-5V0h5v47z" style="fill:#ccc;fill-rule:nonzero"/><path d="M114 47h86v25h-59v28h51v25h-51v28h59v25h-86V47zM0 47h24l50 80V47h26v131H77L26 98v80H0V47zm212 0h86v25h-30v106h-26V72h-30V47z" style="fill:#B2B2B2;fill-rule:nonzero"/></svg>