<svg width="217" height="95" xmlns="http://www.w3.org/2000/svg"><g fill="#B2B2B2" fill-rule="nonzero"><path d="M.3 53.7h3.5c1.9 0 3.3.2 4.1.5.8.4 1.5.9 2 1.7.5.8.7 1.7.7 2.8 0 1.2-.3 2.2-1 3-.6.8-1.5 1.4-2.6 1.7-.6.2-1.8.3-3.5.3v7.4H.2V53.7h.1Zm3.3 6.8h1.1c.8 0 1.4-.1 1.7-.2.3-.1.6-.3.8-.6.2-.3.3-.6.3-1 0-.7-.3-1.2-.8-1.5-.4-.2-1.1-.3-2.1-.3h-.9v3.6h-.1ZM13.3 53.7h3.5c1.9 0 3.3.2 4.1.5.8.3 1.5.9 2 1.7.5.8.7 1.7.7 2.8 0 1.1-.3 2.1-.8 2.9-.5.8-1.4 1.4-2.5 1.7l4.1 7.7h-3.6L17 63.8h-.3v7.4h-3.3V53.7h-.1Zm3.4 6.8h1c1.1 0 1.8-.1 2.2-.4.4-.3.6-.7.6-1.4 0-.4-.1-.7-.3-1-.2-.3-.5-.5-.8-.6-.3-.1-1-.1-1.8-.1h-.9v3.5ZM33.2 53.7h3.4l6.7 17.4h-3.4l-1.4-3.6h-7.1L30 71.1h-3.4l6.6-17.4Zm1.7 4.6-2.3 6h4.7l-2.4-6ZM60.6 56.6l-2.3 2.3c-1.5-1.6-3.2-2.3-5.2-2.3-1.7 0-3.1.6-4.3 1.7-1.2 1.1-1.7 2.5-1.7 4.1 0 1.7.6 3.1 1.8 4.3 1.2 1.2 2.7 1.8 4.4 1.8 1.1 0 2.1-.2 2.9-.7.8-.5 1.4-1.2 1.9-2.3h-5v-3.1h8.8v.7c0 1.5-.4 3-1.2 4.3-.8 1.4-1.8 2.4-3.1 3.1-1.3.7-2.7 1.1-4.4 1.1-1.8 0-3.4-.4-4.8-1.2-1.4-.8-2.5-1.9-3.4-3.4-.8-1.5-1.2-3-1.2-4.7 0-2.3.8-4.3 2.3-6 1.8-2 4.2-3 7-3 1.5 0 2.9.3 4.2.8 1.1.5 2.2 1.3 3.3 2.5ZM66.3 53.7h3.2l4 12.1 4.1-12.1h3.2l2.9 17.4h-3.2l-1.9-11-3.7 11H72l-3.7-11-1.9 11h-3.2zM92.5 53.7h3.4l6.7 17.4h-3.4l-1.4-3.6h-7.1l-1.4 3.6h-3.4l6.6-17.4Zm1.7 4.6-2.3 6h4.7l-2.4-6ZM102.2 53.7h9.6V57h-3.2v14.1h-3.4V57h-3.1v-3.3zM114.4 53.7h3.3v17.4h-3.3zM137.1 56.8l-2.3 2.2c-1.6-1.7-3.3-2.5-5.3-2.5-1.7 0-3.1.6-4.2 1.7s-1.7 2.5-1.7 4.2c0 1.2.3 2.2.8 3.1.5.9 1.2 1.6 2.1 2.1.9.5 1.9.8 3.1.8 1 0 1.8-.2 2.6-.5.8-.4 1.7-1 2.6-2l2.2 2.3c-1.3 1.3-2.5 2.1-3.6 2.6s-2.4.7-3.9.7c-2.7 0-4.9-.9-6.6-2.6-1.7-1.7-2.6-3.9-2.6-6.6 0-1.7.4-3.3 1.2-4.6.8-1.3 1.9-2.4 3.4-3.3 1.5-.8 3-1.2 4.7-1.2 1.4 0 2.8.3 4.1.9 1.3.7 2.5 1.6 3.4 2.7ZM215.4 60.2l-.6-3.8-1.3 3.8h-1l-1.3-3.8-.7 3.8h-1.1l1-6h1.1l1.4 4.2 1.4-4.2h1.1l1 6h-1Zm-7.5 0h-1.2v-4.9h-1.1v-1.1h3.3v1.1h-1.1v4.9h.1ZM160.628 71v-3.056h-8.419V54h-3.552v17h11.971Zm5.71 0V54h-3.53v17h3.53Zm11.152 0 5.801-17h-3.69l-3.726 12.906L172.185 54h-3.795l5.744 17h3.356Zm20.898 0v-3.056h-9.411v-4.371h8.258V60.62h-8.258v-3.61h8.996V54h-12.468v17h12.883ZM176.8 37.5c-10.2.6-5.6 13.9 5.6 13.2 11.1-.7 5.3-13.9-5.6-13.2Z"/><path d="M172.5 29.3c-18.1 0-32.8 14.7-32.8 32.8 0 18.1 14.7 32.8 32.8 32.8 18.1 0 32.801-14.7 32.801-32.8C205.4 44 190.7 29.3 172.5 29.3Zm0 62.2c-16.2 0-29.4-13.1-29.4-29.4 0-16.2 13.1-29.4 29.4-29.4 16.3 0 29.4 13.1 29.4 29.4 0 16.2-13.1 29.4-29.4 29.4ZM171.6 6.4c-7.8 5.9-6.4 14.9-6.4 14.9S160.3 8.6 153.9.8c-.9 10 2.3 23.3 2.3 23.3s-4-8.2-13.7-8.7c8.1 4.7 11.2 13 11.9 15.3 4.7-2.9 10.1-4.6 16-4.8-.7-2.2-3-11 1.2-19.5Z"/></g></svg>