<svg width="80" height="33" viewBox="0 0 80 33" fill="none" xmlns="http://www.w3.org/2000/svg">
<path fill-rule="evenodd" clip-rule="evenodd" d="M48.4353 3.93262H50.6117L50.5916 4.01438C50.5539 4.16659 50.5088 4.31686 50.4564 4.46465L50.5098 4.12952C50.2844 4.04885 50.0411 4.04518 49.8051 4.02868C49.2827 4.01328 48.8177 3.91208 48.3184 4.13502L48.4316 3.93885L48.4353 3.93262Z" fill="#B2B2B2"/>
<path d="M18.7799 3.98242C20.286 4.02092 21.7973 3.97619 23.3037 4.00149C23.7713 4.06309 24.2835 4.37512 24.4453 4.84189C24.5943 5.27932 24.5242 5.71162 24.3613 6.13256C23.6095 8.11879 22.8665 10.1105 22.1132 12.0957C21.8268 12.8272 21.2468 13.3555 20.5549 13.6969C20.1688 15.9405 19.7826 18.1878 19.4005 20.4326H19.3432C18.6053 20.3446 17.8484 20.412 17.1054 20.3915C17.5145 18.248 17.9032 16.0978 18.3123 13.9528C17.9445 13.9503 17.5766 13.9503 17.2088 13.9528C16.4058 16.1015 15.5722 18.2403 14.7759 20.3904C14.0139 20.3878 13.2493 20.4018 12.4873 20.3801C12.754 19.8697 12.9231 19.3315 13.1321 18.7965C15.0181 13.8593 16.8888 8.91702 18.7795 3.98242H18.7799ZM20.2758 5.91512C19.4564 7.97579 18.6904 10.0926 17.8879 12.1631C18.5454 12.1646 19.2018 12.1646 19.8594 12.1646C20.6491 10.0772 21.4342 7.98972 22.2254 5.90375C21.577 5.91109 20.9246 5.88065 20.2758 5.91512ZM30.3021 4.00296C31.2373 3.98389 32.1739 4.00296 33.1094 3.99379C33.7019 3.97472 34.3405 4.37769 34.4921 4.97389C34.6243 5.41755 34.488 5.79999 34.3426 6.21432C32.5856 10.9392 30.8435 15.6707 29.09 20.3981C28.3383 20.3827 27.5865 20.3992 26.8332 20.3853C27.6211 18.238 28.4185 16.0942 29.2252 13.9539C28.5333 13.9576 27.8363 13.9312 27.1456 13.9631C27.0564 14.0911 27.0068 14.252 26.9494 14.3965C26.2152 16.3996 25.4532 18.3913 24.7193 20.393C23.9715 20.3878 23.2245 20.3981 22.4778 20.3864C24.1943 15.7957 25.9171 11.208 27.6362 6.61986C27.7852 6.23119 27.9116 5.81282 28.1206 5.45349C28.5867 4.68606 29.4279 4.15622 30.3021 4.00296ZM30.1388 5.89495C29.345 7.94645 28.5984 10.0324 27.8108 12.088C28.5129 12.0916 29.2135 12.0916 29.916 12.0865C30.674 10.0148 31.4539 7.95122 32.2159 5.88065C31.5255 5.89092 30.8281 5.85499 30.1388 5.89459V5.89495ZM38.7061 4.00296C40.1103 3.98646 41.5171 4.00296 42.9216 3.99379C43.5153 3.97216 44.1549 4.37879 44.3127 4.97242C44.4274 5.36769 44.3372 5.72959 44.2068 6.10542C43.3383 8.48505 42.4719 10.8655 41.6077 13.2466C41.2544 14.3991 40.0541 15.3139 38.8435 15.2728C38.1582 15.2739 37.4711 15.2703 36.7843 15.2714C36.1596 16.9778 35.5215 18.6803 34.9111 20.39C34.4106 20.3886 33.6603 20.3849 32.6594 20.379C35.3443 13.0992 37.3596 7.64065 38.7061 4.00296ZM42.0511 5.90229C41.4418 5.90742 40.8303 5.88579 40.2225 5.91512C39.3063 8.38755 38.4066 10.8703 37.489 13.3427C38.1034 13.3438 38.7174 13.3412 39.333 13.3453C40.2477 10.8677 41.1602 8.38865 42.0508 5.90229H42.0511ZM54.3671 3.99526C55.8185 3.99636 57.2712 3.99782 58.7226 3.99379C59.3151 3.95932 59.9865 4.35312 60.1523 4.94932C60.2542 5.31892 60.2035 5.68742 60.0811 6.04566C58.6192 10.167 57.1489 14.2891 55.691 18.4115C55.2793 19.6615 53.966 20.3812 52.606 20.393C51.6902 20.4003 50.3149 20.3966 48.48 20.3812C48.67 19.8433 48.815 19.4352 48.9143 19.1562C50.7299 14.1024 52.5527 9.05012 54.3671 3.99526ZM55.9065 5.90485C54.4015 10.0735 52.8826 14.3301 51.3852 18.5087C52.0647 18.5065 52.7448 18.5153 53.4239 18.5013C54.9151 14.292 56.4248 10.0874 57.9207 5.87919C57.2522 5.89752 56.5702 5.84252 55.9065 5.90485Z" fill="#B2B2B2"/>
<path fill-rule="evenodd" clip-rule="evenodd" d="M67.324 3.96094L67.3262 5.75394L67.0767 5.7477L67.0778 5.0162L62.8728 4.99787V4.7577H67.0737L67.0778 3.96094H67.324ZM48.3994 3.99394L50.5912 3.9888L44.696 20.3828L42.4443 20.3865L48.3994 3.99394Z" fill="#B2B2B2"/>
<path d="M62.877 6.15663C64.3221 6.12986 65.8881 6.1603 67.3358 6.15663C67.3332 6.63623 67.4669 7.4704 66.938 7.67243C66.5073 7.7542 66.0397 7.71716 65.6013 7.70543C65.3504 7.71093 65.2485 7.53933 65.0764 7.3912C64.9106 7.53676 64.8112 7.71093 64.5679 7.7069C64.043 7.7223 63.4033 7.73256 62.8795 7.7058L62.877 7.4704C63.4644 7.42273 64.0711 7.5023 64.6523 7.41796C65.0267 7.2504 64.9171 6.74623 64.9529 6.41366C64.2622 6.40486 63.5703 6.42283 62.8795 6.39863L62.877 6.15663ZM65.2024 6.40486L65.1988 6.47013C65.205 6.8423 65.0815 7.2108 65.4866 7.41246C65.925 7.45133 66.4349 7.45353 66.8733 7.4077C67.1801 7.20053 67.0486 6.74 67.0822 6.41256C66.455 6.40743 65.8293 6.41623 65.2024 6.40486ZM62.8985 8.22756C64.1869 8.4362 65.4651 8.69176 66.7509 8.91176C66.9774 8.96566 67.2119 8.96163 67.388 9.12663V9.24176C66.9153 9.43243 66.3633 9.46433 65.8611 9.57176C64.8956 9.76866 63.9217 9.90323 62.961 10.1218C62.9544 10.0306 62.9484 9.93945 62.9431 9.84823C63.2463 9.78956 63.5509 9.7408 63.8556 9.6946C63.8607 9.34663 63.8622 9.00013 63.8622 8.65326C63.5439 8.59522 63.2261 8.53472 62.9087 8.47176L62.8985 8.22756ZM64.131 8.7046L64.1347 9.63336C65.0063 9.4581 65.8932 9.35836 66.7586 9.15486C65.8804 9.01296 65.0088 8.84136 64.131 8.7046Z" fill="#B2B2B2"/>
<path fill-rule="evenodd" clip-rule="evenodd" d="M60.9369 10.208C60.9406 13.6154 60.9523 17.0254 60.9304 20.4329H60.9242C59.6562 20.3342 58.3755 20.4318 57.1064 20.379C58.3232 17.1523 59.5287 13.9183 60.7368 10.6865C60.8003 10.5252 60.8668 10.3668 60.9369 10.208ZM62.968 10.6289C64.2717 10.6146 65.5751 10.6275 66.8774 10.6212C67.0699 10.6568 67.4739 10.5226 67.33 10.8706C66.5457 11.1602 65.3538 11.5551 63.7541 12.0549H67.3874V12.2826C65.8926 12.3108 64.3927 12.2991 62.8968 12.2892C62.9373 11.9027 63.2701 11.9592 63.5543 11.8323C64.5212 11.5152 65.5039 11.2299 66.4621 10.8845C65.277 10.8321 64.0869 10.8911 62.9004 10.8731L62.968 10.6289ZM64.5176 12.9235L64.4946 13.1908C64.1238 13.1934 63.7351 13.1578 63.3695 13.2191C63.0827 13.3815 63.075 14.0631 63.3695 14.2153C63.7366 14.2754 64.157 14.2666 64.5264 14.223C64.9994 13.9443 65.2109 13.2381 65.7015 12.9811C66.0668 12.8839 66.4865 12.921 66.8624 12.9375C67.2014 12.976 67.3264 13.2191 67.3874 13.5234V13.9058C67.353 14.1126 67.307 14.223 67.1821 14.3484C66.8686 14.6183 66.2864 14.4866 65.8988 14.5068C65.9024 14.4214 65.9053 14.3356 65.9079 14.2501C66.252 14.2153 66.8394 14.3638 67.0659 14.054C67.098 13.7907 67.1795 13.3841 66.9015 13.2279C66.5896 13.1626 66.145 13.16 65.8341 13.2341C65.3804 13.526 65.1623 14.2729 64.6528 14.4815C64.2601 14.5592 63.8334 14.5339 63.4356 14.5108C63.3111 14.501 63.1938 14.4489 63.1028 14.3631C63.0118 14.2773 62.9527 14.163 62.9351 14.0389C62.8865 13.6715 62.8573 13.1395 63.2675 12.9657C63.6624 12.8645 64.1114 12.9235 64.5176 12.9235ZM62.922 15.1158C64.8931 15.1217 66.3631 15.1217 67.3326 15.1158C67.3313 15.5435 67.3313 15.9712 67.3326 16.3988H67.0725C67.0739 16.0637 67.075 15.7245 67.0725 15.3894C66.4865 15.393 65.8988 15.393 65.3128 15.3894C65.3117 15.6105 65.3092 15.9419 65.3037 16.3845H65.0425C65.0469 15.9361 65.0469 15.6035 65.0425 15.3872C64.5713 15.393 63.8644 15.3934 62.9223 15.3883V15.1158H62.922ZM62.9552 16.9206L67.3351 16.9129C67.3326 17.1978 67.3307 17.6249 67.33 18.1944L67.075 18.1892V17.164C66.2911 17.1655 65.7026 17.1655 65.3103 17.164C65.3114 17.5014 65.3103 17.838 65.3052 18.1757H65.0502C65.0517 17.8431 65.0502 17.4966 65.0502 17.1637C64.4314 17.1645 63.8126 17.1645 63.1938 17.1637V18.1947H62.9552V16.9209V16.9206Z" fill="#B2B2B2"/>
<path d="M62.9453 18.7902C64.4072 18.7887 65.8688 18.7887 67.3289 18.7902C67.3263 19.1664 67.3621 19.5587 67.2986 19.9298C67.2372 20.1113 67.1517 20.2865 66.896 20.3705C66.4127 20.372 65.9407 20.3826 65.4531 20.3584C65.2624 20.2763 65.163 20.1762 65.0721 20.0115C64.9599 20.1333 64.8503 20.2546 64.7232 20.3599C64.1037 20.3811 63.6039 20.3811 62.9837 20.3811V20.1036C63.5112 20.0577 64.0591 20.1395 64.5829 20.0629C65.0443 19.958 64.9117 19.4091 64.9526 19.06C64.2834 19.0538 63.6145 19.0586 62.9453 19.0549V18.7902ZM65.1882 19.0549C65.2047 19.3325 65.1269 19.7288 65.3245 19.9463C65.5473 20.1296 65.8377 20.0856 66.1135 20.0856C66.4248 20.0856 66.9135 20.1421 67.0078 19.9261C67.0575 19.8022 67.0732 19.5136 67.0542 19.06C66.2308 19.0582 65.6087 19.0564 65.1882 19.0549Z" fill="#B2B2B2"/>
<path fill-rule="evenodd" clip-rule="evenodd" d="M34.9244 26.8538C34.9244 26.2125 34.7224 25.9081 34.2515 25.8407C34.1503 25.8407 34.0495 25.8407 33.9483 25.8748L33.7467 25.9756V27.8001C33.7803 27.8001 33.8139 27.8331 33.8811 27.8331C33.9487 27.8672 34.0159 27.8672 34.1167 27.8672C34.3859 27.8672 34.5879 27.7657 34.7224 27.597C34.8572 27.3946 34.9244 27.1577 34.9244 26.8538ZM36.0013 26.0772C36.0685 26.3133 36.1021 26.5835 36.2029 26.9557C36.2029 27.2593 36.1693 27.5295 36.0685 27.766C35.9677 28.0022 35.8329 28.239 35.6648 28.4077C35.4628 28.5767 35.2608 28.7117 35.0256 28.8132C34.7896 28.8803 34.4867 28.9482 34.1839 28.9482C34.0495 28.9482 33.9147 28.9482 33.7803 28.9144C33.6455 28.8803 33.511 28.8803 33.3766 28.8466C33.2082 28.8466 33.1074 28.8136 32.9726 28.7791C32.8382 28.7458 32.737 28.7117 32.6361 28.6779L32.6025 28.6442V23.3756L33.7467 23.2065V25.0307C33.8475 24.9966 33.9487 24.9629 34.0495 24.9295C34.1839 24.9295 34.3187 24.895 34.4531 24.895C34.7224 24.895 34.958 24.9295 35.16 25.0307C35.328 25.1315 35.4961 25.2331 35.6648 25.4359C35.8329 25.6383 35.9337 25.841 36.0009 26.0775L36.0013 26.0772ZM38.7607 24.9962L39.9384 25.0303L39.9048 25.0978C39.6692 25.7732 39.4672 26.449 39.2316 27.0903C38.9963 27.6982 38.7603 28.3065 38.4915 28.9144C38.3903 29.1168 38.2895 29.32 38.1883 29.4545C38.0875 29.5902 37.9867 29.7248 37.8522 29.8267C37.7174 29.8938 37.6166 29.9613 37.4482 30.0287C37.2802 30.0625 37.1118 30.0969 36.9098 30.0969C36.7417 30.0969 36.6069 30.0625 36.4385 30.0287C36.2705 29.9957 36.1697 29.9613 36.0685 29.9279L36.0349 29.8938L36.2369 28.9478L36.3041 28.9823C36.4049 29.0153 36.5061 29.0153 36.5733 29.0494C36.6405 29.0835 36.7081 29.0835 36.8089 29.0835C37.0109 29.0835 37.1118 29.0494 37.2126 28.9478C37.3138 28.8466 37.3806 28.7458 37.4482 28.5767C37.2126 28.1378 36.977 27.597 36.7417 27.0228C36.4764 26.3847 36.2515 25.7303 36.0685 25.0637L36.0349 24.9962H37.2802L37.3138 25.0303C37.3474 25.2327 37.4146 25.4355 37.4818 25.6379C37.549 25.8407 37.6166 26.0772 37.6838 26.2799C37.751 26.5161 37.8182 26.7192 37.8858 26.9216C37.953 27.0903 37.9866 27.2259 38.0539 27.3605C38.0875 27.1918 38.1211 27.0569 38.1887 26.9216C38.2559 26.7192 38.3231 26.4823 38.3903 26.2799C38.4243 26.0772 38.4915 25.8407 38.5587 25.6383C38.6259 25.4014 38.6595 25.199 38.7267 25.0303L38.7607 24.9962ZM41.453 24.4558C41.453 23.2736 42.5295 22.4629 43.7408 22.497C44.3801 22.497 44.6493 22.497 45.3225 22.632C45.7598 22.7332 45.8946 22.8006 46.1298 22.8685V24.2871C45.9954 24.2534 45.827 24.1855 45.6586 24.1184C45.1205 23.9494 44.0772 23.7129 43.5388 23.9494C43.1351 24.0843 43.1351 24.5573 43.5052 24.726C43.8084 24.8947 45.8942 24.726 46.2646 26.3474C46.6011 27.8335 45.2889 28.8132 43.8416 28.8132C43.3035 28.8132 41.9574 28.7791 41.5534 28.5767V27.0906C41.6882 27.1244 41.8226 27.1918 41.9574 27.2256C42.4959 27.3942 42.9667 27.4621 43.5052 27.4621C44.5821 27.4621 44.6157 26.6514 44.1445 26.4823C43.7744 26.3474 41.4526 26.4486 41.4526 24.4558H41.453ZM46.7355 22.8006C47.0047 22.8006 48.1152 22.4629 48.4517 22.4629V25.7057C48.6537 25.5371 49.2929 24.4558 49.3602 24.1181H51.3119C51.2783 24.3549 50.9083 25.1312 50.7735 25.3339C50.0334 26.7867 49.8986 25.8748 50.7063 27.5633L51.1103 28.4755C51.1439 28.5767 51.1775 28.7117 51.2111 28.7791H49.1249C49.1249 28.5426 48.9229 27.9688 48.8557 27.8001C48.7881 27.6311 48.7209 27.4958 48.6537 27.3605L48.4856 27.0569C48.4517 26.9891 48.4856 27.0228 48.4517 26.9557V28.7458H46.7355V22.8006ZM56.9989 22.7669C57.3353 22.7332 58.345 22.4629 58.6478 22.4629V28.7454H56.9989V22.7669ZM59.3547 22.7669C59.5567 22.7669 60.8016 22.4629 61.0033 22.4629V28.7454H59.3547V22.7669ZM51.4803 26.1109C51.4803 25.3336 51.8168 24.7938 52.2544 24.5232C52.7929 24.1859 53.1293 24.1859 53.6341 24.1184C54.1386 24.0843 53.8694 24.1184 54.1722 24.1184V25.5026C53.2637 25.5026 53.1293 25.8407 53.1293 26.7867V28.7791H51.4803V26.1109ZM54.6771 28.7454V24.1514H56.326V28.7458H54.6771V28.7454ZM54.7107 22.8685C54.7107 22.2602 55.5519 21.8213 56.0568 22.3617C56.8309 23.1387 55.6867 24.2537 54.9463 23.5101C54.7446 23.3074 54.7107 23.1387 54.7107 22.8685Z" fill="#B2B2B2"/>
</svg>
