<svg version="1.1" id="Layer_1" xmlns="http://www.w3.org/2000/svg" x="0" y="0" viewBox="0 0 239.6 51.3" style="enable-background:new 0 0 239.6 51.3" xml:space="preserve"><style>.st0{fill:#B2B2B2}</style><path class="st0" d="M81.5 38.7h-8.4l-6.4-10h-.1v10h-6.8v-26H70c2.7 0 4.9.7 6.6 2 1.7 1.3 2.5 3.3 2.5 6 0 1.9-.5 3.5-1.5 4.8-1 1.4-2.4 2.2-4.2 2.5l8.1 10.7zM66.7 24.4h.7c.6 0 1.2 0 1.7-.1s1-.2 1.5-.5c.4-.2.8-.6 1.1-1 .3-.4.4-1 .4-1.7s-.1-1.2-.4-1.7c-.3-.4-.6-.8-1.1-1-.4-.2-.9-.4-1.5-.5-.5-.1-1.1-.1-1.7-.1h-.7v6.6zM90.1 18.4v4.3h7.6v5.7h-7.6V33h8v5.7H83.4v-26h14.8v5.7h-8.1zM102.3 12.7h9.6c1.8 0 3.5.3 5.1 1 1.6.7 3 1.6 4.2 2.8 1.2 1.2 2.2 2.6 2.8 4.2.7 1.6 1 3.3 1 5.1s-.3 3.5-1 5.1c-.7 1.6-1.6 3-2.9 4.2-1.2 1.2-2.6 2.1-4.2 2.8-1.6.7-3.3 1-5.1 1h-9.6V12.7zm6.8 20.3h1.5c1 0 2-.1 2.9-.4.9-.3 1.7-.7 2.4-1.3s1.2-1.4 1.6-2.3c.4-.9.6-2 .6-3.2 0-2.3-.7-4.1-2-5.3s-3.2-1.9-5.4-1.9h-1.6V33zM150.5 38.7h-6.8V18.4h-5.6v-5.7H156v5.7h-5.6v20.3zM165.3 38.7h-6.8v-26h6.8v26zM195.7 24.2c0 2.3-.2 4.2-.6 5.7-.3 1.6-1 3.1-2.1 4.6-1.2 1.7-2.8 3-4.6 3.8-1.8.8-3.9 1.3-6.1 1.3-2 0-3.9-.3-5.6-1-1.7-.7-3.2-1.6-4.4-2.8-1.2-1.2-2.2-2.7-2.9-4.4-.7-1.7-1-3.5-1-5.6 0-2.1.3-4 1-5.7.7-1.7 1.6-3.2 2.9-4.5 1.3-1.2 2.7-2.2 4.5-2.8 1.7-.7 3.6-1 5.7-1 2.7 0 5.1.6 7.1 1.8 2 1.2 3.6 3 4.7 5.5l-6.4 2.7c-.5-1.3-1.2-2.3-2.2-3-1-.7-2.1-1.1-3.5-1.1-1.1 0-2 .2-2.9.7-.9.5-1.6 1.1-2.1 1.9-.6.8-1 1.7-1.3 2.7-.3 1-.4 2-.4 3s.1 2 .4 3c.3 1 .7 1.9 1.3 2.6.6.8 1.3 1.4 2.2 1.8.9.4 1.8.7 2.9.7 1.5 0 2.8-.4 3.8-1.2 1-.8 1.6-1.9 1.7-3.3h-5.5v-5.3h13.4zM205.5 18.4v4.3h7.6v5.7h-7.6V33h8v5.7h-14.8v-26h14.8v5.7h-8zM239.4 38.7H231l-6.4-10h-.1v10h-6.8v-26h10.1c2.7 0 4.9.7 6.6 2 1.7 1.3 2.5 3.3 2.5 6 0 1.9-.5 3.5-1.5 4.8-1 1.4-2.4 2.2-4.2 2.5l8.2 10.7zm-14.9-14.3h.7c.6 0 1.2 0 1.7-.1s1-.2 1.5-.5c.4-.2.8-.6 1.1-1 .3-.4.4-1 .4-1.7s-.1-1.2-.4-1.7c-.3-.4-.6-.8-1.1-1-.4-.2-.9-.4-1.5-.5-.5-.1-1.1-.1-1.7-.1h-.7v6.6zM17.5 2.9c-1.4.8-3.8 1.6-5.1 1.4-1.3-.2-2.9-.2-4.1-.6-.4-.1-.9-.1-1.3.2.9.5 4 1.8 4 1.9-.4-.1-2.1-.5-2.6-.7.3 1.3.6 2.4.9 3.5.1 0 .2-.1.4-.1C9.4 9.8 9 11 9 12.3c-.1 1.5.4 2.8 1.7 3.9 1.4 1.2 2.5 2.7 4 3.8 1.4 1 3.2 1.6 5.5 1.1-.6-.6-.9-1-1.3-1.2-.7-.4-1.5-.7-2.3-.9-3.1-1-4.7-3.4-6.1-6.1-.3-.7-.2-1.6-.3-2.5l.4-.1c.3.5.5 1.1.8 1.6.4.9 1 1.3 2.1 1.3 2.6 0 5 .4 6.4 3.1.7 1.4 1.6 2.7 3.1 3.3.1-.1-.1-1.5-.3-2.3 1.2-.5.7-1.2.1-1.9-.9-.9-1.7-1.9-2.7-2.8.9-.3 2.1-1 2.1-1.1h-5v-.2c1.5-.3 4.4-1.3 4.4-1.6-2.3-1.4-5.1-.5-7.6-.9v-.3l4.8-1.2c1.6-.4 4.6-1.7 4.6-1.8h-6.6c2.1-.9 3.9-2.3 6.3-2.2 2.5 0 5 .2 7.5 0 2.8-.2 5 1.1 7.4 2.3h-6.6c0 .2 3.1 1.4 4.7 1.9 1.6.4 3.1.8 4.7 1.4-2.5.6-5.2-.4-7.8 1.3 1.4 1.5 3.2.8 4.8 1.5h-5.3c0 .2 1.1.9 2 1.2-.9 1-1.8 2-2.7 2.9-.7.7-.7 1.3.2 1.7-.3.7-.5 2.2-.4 2.3.6-.5 1.2-.8 1.7-1.4.6-.6 1.1-1.3 1.4-2 1.3-2.6 3.7-3 6.1-3 1.5 0 2.2-.5 2.6-1.8.1-.4.4-.8.7-1.3.6 1.5.1 2.6-.5 3.8-1.5 3.2-4.2 4.8-7.4 5.8-.6.2-1 .7-1.5 1.1 0 0 1.5.6 2.2.4 2.7-.6 5-1.8 6.5-4.3.2-.2.5-.6.7-.8 1.5-1.5 2.1-3.8 1.4-5.9-.2-.6-1.3-1.4.3-1.8l.1-.2c.1-.9.2-1.9.3-3-.7.4-1.5.5-2.4 1 1-1 2.4-1.8 4.1-2.2 0-.1-1.7-.6-2.6-.5-1.6.1-3.1.6-4.6.6-1.1 0-3-1.2-2.9-1.2 4.7.7 9-.6 13.2-2.6 1.7-.8 3.5.2 3.4 2.1-.1 2.5-.5 5-2.6 6.8-.4.3-.8 1.4-.8 1.4l1.8-.9c.2 2.3-1.6 2.8-3.2 3.4-.3-.6-.5-1.3-.9-1.9-.2-.3-.7-.4-1.1-.6-.2.4-.5.8-.5 1.1 0 .8.1 1.7.2 2.5.3 2.2-.5 3.9-2.2 5.2-.2.2-.4.4-.5.6.8.6.8.6 2.4-.1-.3.8-.4 1.9-1 2.3-.6.4-1.7.2-2.6.3.1 1 .1 1 3 1.8-.1.5-.3 1-.4 1.4-.3 1-1.4 1.4-2.3.9-1.7-1.1-3.3-2-5.5-1.3 1.8 1 3.5 2 5.4 3.1-.7 1-.6 1.6.5 2.1 1 .5 1.2 3.4.3 4.3-1 .9-1.2 6.6-1 6.7.3-.6.8-2.2 1-3 .6-1.8 1-2.6 1.9-3.7.7-.8 2.1-3.5.2-4.7 0 0 .3-.7.8-1.9.7-1.9 1.3-2.6 2.3-4.4.1-.1 1.2-1.7 1.3-1.9 0 0-2.6 8-2.6 8.4.5-.1 2.5-1 2.7-.9-.7 2.2-1.2 4.5-2 6.7s-2 4.2-3 6.3c.2.2 1.9-.6 2.5-1.2 2.9-3.3 4-7.4 4.4-11.7.1-1.7 0-3.4.3-5.2.4 1.6 1.1 3.2 1.2 4.8.2 2.3.7 3.5 0 7 0 .3-.1.6-.3.9-2.1 3.3-4.3 6.7-6.4 10l-.4-1.7c-.2 0-.2 0-.4-.1-.2.4-.5.8-.6 1.2-.7 1.6-2.4 4.8-2.6 4.8v-4.8c0-.7 0-1.6-1-1.6s-1 .9-1 1.6v2.8c-1.3-.7-2.2-1.4-3.3-1.8-1.2-.5-2.3-.7-3.4.5-1 1-2.3 1.5-3.9 1.4-2.1-.1-4.3-.1-6.4.2-1.8.2-3.1-.6-4.2-1.7-1-1-2-1-3-.5-1.1.5-2.2 1.1-3.5 1.8-.1-.9 0-1.8-.2-2.7-.1-.6-.6-1.5-.9-1.5-1-.1-1.1.8-1.1 1.5 0 1.7 0 3.3-.2 5.1-1-2.1-2-4.1-3-6.2h-.4c-.1.5-.3 1.1-.4 1.8-1.4-2.3-2.7-4.6-4-6.8-.7-.4-.8-.5-.8-.6-.8-1.6-2.3-3.4-2.6-4.6-.9-3.7-.2-7.6 1.6-11.1v2.5c0 .9-.1 1.8 0 2.6.3 4.3 1.5 8.3 4.3 11.6.6.7 1.5 1.1 2.5 1.5-2.2-4.3-4.2-8.5-4.7-13l2.2.8c-.2-.8-.4-1.6-.7-2.3-.5-1.2-1-3.9-1.7-6.4 1 2 2.1 4.1 3.1 5.7.9 1.3 2 3.1 1.9 3.3-.8.5-1.7 2.5-.5 4.3.8 1.2 1.6 2.2 2.1 3.6.5 1.3.7 1.3 1.1 3.4.2-.7.3-2.2.3-2.5 0-.5-.3-3.7-1.3-4.5-1.2-1.1-.7-3.9.5-4.9.4-.3.2-1.6.2-1.6 1.8-1 3.5-2 5.3-3.1-1.1-.9-2.6-.4-5.4 1.4-.9.6-2 0-2.3-1L8.5 24c.5-.1 1.2-.1 1.8-.3.5-.2 1-.7 1.6-1.2-1.4-.2-2.5-.2-3.3-.7-.5-.3-.5-1.4-.7-2.1.9.3 1.5.5 2.2.7l.2-.4c-.6-.7-1.4-1.4-1.9-2.2-1.1-1.8-1.3-3.7-.9-5.7.1-.5-.2-1-.4-1.5-.5.3-1.1.6-1.5 1-.3.4-.4 1-.6 1.5-1.6-.8-3.5-1-3.3-3.4l1.8.9s-.4-1.1-.8-1.4C.9 7.4.4 4.9.4 2.3.4.5 2.1-.6 3.8.3c3.1 1.7 6.5 2.3 9.9 2.9 1.1.2 2.3-.1 3.8-.3zm16.7 42.9c-.4-1.7 0-2.1 1.5-1.6.6.2 1 .7 1.5 1.1.3.2.5.4 1.1.8-1.7-5.6-6.1-7.3-12.7-7-5.3.3-8.8 3.4-9 6.9.6-.4.9-1.1 1.5-1.5.6-.4 1.5-.9 2-.5.4.3 0 1.5.2 2.1 3.3 1.9 7.1 1.8 7-.5 0 1.7 1.1 1.7 2 1.7 1.9.2 3.7-.4 4.9-1.5zm4.1-18c-1.9-.5-1.9-1.8-2-3 0-.3-.1-.7-.3-.9-.5-.5-1.1-.9-1.6-1.3-.1.6-.2 1.2-.2 1.8 0 .6.2 1.3.2 1.9 0 .4-.2.9-.4 1.1-1.3 1.6-2.8 3-4.8 3.7-.4.2-1 .7-1.1 1.1-.1.8-.1 1.6-.1 2.3 0 .5.3 1 .8 1.2 2 .8 3.8 1.5 5.7 2.1.5.2 1.1.2 1.5 0 .8-.3 1.6-.8 2.4-1.3.3-.2.4-.6.7-.9-.3-.1-.6 0-.9-.1-.9-.2-2.2-.1-2.8-.7 1.3-.5 2.9-.2 3.8-2.1-1.7.4-3.1.8-4.6 1.1-.1-.1-.1-.1-.1-.3 1.4-1.4 4.1-1.6 4.3-4.4-1.4.9-2.4 2.7-4.8 2.1 1.5-1.1 2.7-2.1 4.3-3.4zm-17.9-5.2c-1.5 0-1.8.9-2.2 1.8-.4 1.2 1 2.5-1.2 3.1.9.7 2 2.6 3.4 3.8-2.4.5-3.4-1.4-5-2.2.5 2.8 3.1 3.1 4.6 4.6-.1.1-.1.1-.1.2-1.5-.4-2.9-.7-4.7-1.2 1.3 2.5 3.8 1.2 5.4 2.5-1.5 1-2.9.4-4.3.3-.3 0-.6.2-.9.3.2.3.3.7.6.8.7.4 1.3.9 2.1 1.1.6.2 1.4.2 2 .1 2-.6 3.9-1.3 5.8-2.1.3-.1.7-.6.8-.9.1-.6 0-1.3 0-1.9.1-1-.4-1.5-1.2-1.8-1.9-.5-3.4-1.6-4.5-3.1-.5-.6-.9-1.7-.9-2.5-.1-.9.2-1.9.3-2.9zm2.4 1.8s-.9.5-.9 1.2c0 1 .3 1.2.5 1.4.4.4 2.2.5 2.6.5 2.6 0 3.7 0 6.3-.1.6 0 .9-.2 1.3-.7.2-.3.3-.8 0-1.4-.2-.3-.3-.8-.6-1-.2.3.1 1.3-1.4 1.8-.6.2-2.3.4-3 .4-3.3.1-4.9-.3-4.8-2.1zm-7.3-8.3c0 .8 0 1.8 1.3 2.2.8.3 1.7-.8 1.8-1.5-.5-.7-1-.9-1.5-1.1-1.3-.5-1.6-.6-1.6.4zm20.3.8c.1.9.6 2 1.8 1.4 1.7-.9 1.1-2.3 1.1-2.8-.4.1-1.1.1-1.4.2-.6.2-1.1.7-1.5 1.2z"/></svg>