<svg version="1.1" id="LOGO" xmlns="http://www.w3.org/2000/svg" x="0" y="0" viewBox="0 0 1134.6 313.9" style="enable-background:new 0 0 1134.6 313.9" xml:space="preserve"><style>.st0{fill:#B2B2B2}</style><path class="st0" d="m1126.3 52.7-.3 1.6c-10.3-6.5-13.4-7.6-9.4-3.4l-34.1-.9c-3.2 15-6.1 24.1-8.7 27.5l1.6.1c-2.9 6.4-4.4 10.6-4.6 12.6 1.1.1 1.6.7 1.5 1.8-1.3-.1-3.1 6.8-5.5 20.6l-1.6-.3c.5-3-2.7-13.1-9.6-30.2l-12.4-32-9.9-.1-3.5.1-3.3-.6-2.6.3c-1.1 0-4.5.1-10.2.3-5.7.2-9.4.3-11.2.3-1.2 6.3.1 11.8 4 16.5 24.2 67 36 103.6 35.2 109.7v1.6l-1.9 3c1.2.1 2 2.8 2.5 8.2l-5.1-.3v1.5c4.2.5 6.1 2.3 5.8 5.5-1.1-.1-1.7.4-1.9 1.5l-.1 1.8c1.7 39.4 2.7 61.9 3 67.5l4.2-.9 38.4-.3-.1-8.7-1.6-72.4-.3-10.2c7-24.7 14.1-44.5 21.2-59.2 9.5-34.9 15.7-52.1 18.6-51.6l-.3 3 2.2-13.9zM863.6 225.9l-4.3.4-40.5-.1-.4-175h-30.8l-.3-2.5-4.2 2.8c-2.9-1.6-4.2-2.3-4-2.1l-1 216.6 88.9-.6v-2.2c-.3-4 .1-15.6 1.2-34.9l-4.6-2.4zM597 62.7c.1 0 .1-.2.1-.7-.1 0-.1-.1-.1-.3 0-.5.2-5.4.6-14.8V10.5c0-1.2-.2-1.9-.6-2.1h-4.2c-.5 0-.8.1-1 .3l-1.3-.3h-57c-.7 0-1.7-.1-3.1-.4 0 .3-.6.4-1.9.4h-3.3c-.6 0-1.2-.1-1.8-.4-.5.3-1 .4-1.6.4h-11.2c-.6 0-1.4.1-2.4.3-.2-.2-.5-.3-1-.3-.8 0-2.3.1-4.5.3-1.2-.2-1.9-.3-2.1-.3-.7.2-1.4.3-2.1.3l-1.2-.3-.4.3-1.5-.3-1.9.3-.4-.3c0 .2 0 .3-.1.3h-2.1L489 9c0-.2-.1-.3-.3-.3-.2.2-.4.3-.7.3h-2l-1-.3c0 .2-.2.3-.6.3h-.4l-.4-.3V9c-.9 0-1.9-.1-3.1-.3-.1 0-.4.1-.9.3-.7-.2-1.4-.3-2.1-.3H476l-.3.3c0-.2-.1-.3-.3-.3h-1.2l-.5.3c0-.2 0-.3-.1-.3h-.7l-1.5.3c0-.2 0-.3-.1-.3l-.5.3c-.1 0-.5-.1-1.2-.3-.4.7-.8 1-1.3 1h-.1V9h-.3v.4l.3 1.8-.3 3.4 1 .3v1.2c-.5 0-.7.3-.7 1l-.4-.4v1c0 .8 0 1.4.1 1.8l-.1 2.1v1.5l.1 2.1c-.1.4-.1.7-.1 1 0 1.1 0 3.8.1 8.1l-.1 2.5c.1.3.1 1.1.1 2.4v.4l-.1.6h.1l-.1 4.3v25l.1 2.4c-.1 0-.1.5-.1 1.5V75c0 1.3 0 2.4.1 3.3-.1 1.2-.1 2.3-.1 3.4v8.5l.1 3.4c-.1 0-.1.1-.1.4h.1c0 .9 0 1.8-.1 2.8.1 2 .1 3.7.1 5.2v.3l-.1.7c.2 0 .3.7.4 2.1-.3 4.8-.4 10.2-.4 16.3l.1 2.4c-.1 0-.1.2-.1.7 0 1 0 1.7.1 2.1l-.1 2.1v1.8l.1 1.8c-.1 0-.1.1-.1.3 0 .3 0 .6.1 1-.1 0-.1.1-.1.3v58.6c0 1.1.1 4.6.4 10.6l-.3 2.1c.2 0 .3.3.3 1v2.1l-.3.7h.3l-.3 3.4v4.9c0 2 .1 5.2.3 9.6-.2 0-.3.2-.3.7.2 0 .3.3.3 1v1l-.3.7h.3l-.3 2.4v.3c0 .9.1 2 .3 3.3l-.3.6.3 1.8c0 1-.1 1.9-.3 2.8.2.9.3 1.8.3 2.8v3.4l-.3 2.2c.2.4.3.9.3 1.6v1.8l-.3.7h.3c0 .5-.1.9-.3 1.3.3 1 .4 1.7.4 2.2l-.1 1.3c.1 0 .1.1.1.3-.1 0-.1.1-.1.4v3.1l-.3.7h.3c-.2 8.5-.3 14.9-.3 19.3 0 .4.1.6.4.7-.3 1.9-.4 3.1-.4 3.6v13.3l-.1 3.6 1 .6c.1-.4.1-.7.1-1h.9c0 .6.4.9 1.3 1 0-.2 0-.3.1-.3h.4l.4.3c0-.2.6-.4 1.8-.6l4 .6c0-.2 1-.4 3-.6.3.2.5.3.6.3.3 0 .6-.1.9-.3l1.2.3h2.2c.5 0 1.1-.1 1.8-.3.2.2.7.3 1.5.3h.7l1.2-.3c.2.2.5.3 1 .3h.9c.6 0 1.1-.1 1.6-.3.6.2 1.1.3 1.6.3h.9l1.3-.3c.2.2.4.3.6.3.6 0 1.1-.2 1.6-.7.2 0 .4.1.6.4 1.3-.3 2-.4 2.2-.4.5 0 1.4.2 2.7.7 0-.2 0-.3.1-.3v.3c.7 0 1.1-.1 1.3-.3 1 .2 1.7.3 2.2.3h1.8c.8 0 1.9-.1 3.3-.3.3.2.6.3 1 .3l1.2-.3 1 .3 1.5-.3 1 .3 1-.3 1 .3c.2 0 .4-.2.7-.7h.4v.7c.3 0 .6-.1.9-.3 1.4.2 2.5.3 3.4.3l1.5-.3c0 .2 0 .3.1.3v.9l2.1.3h2.5c1.3 0 3.1.1 5.5.3.2-.2.5-.3.9-.3 0 .2 0 .3.1.3.5-.2.8-.3.9-.3l1 .3.4-.3c.7.2 1.3.3 1.8.3h7l1.5-.3c0 .2.3.3.9.3h1.3c.5 0 .9-.1 1.2-.3l1.2.3h7.5c1.2 0 2.9.1 5.2.4 0-.3 0-.4.1-.4.8.3 1.4.4 1.9.4h3.1c.9 0 2 .1 3.4.3.3-.2.5-.3.6-.3l9 .6c.2-.2.4-.3.7-.3l.4.3.4-.3c.8.2 1.4.3 1.9.3h4.5c0-.4.1-.6.3-.6.9-.8 1.3-2.3 1.3-4.6 0-.1-.6-70.3-1.9-210.6 1.2-17.6 1-27 1-28.1zm-21.4 200.5v2.2l-88.9.6.9-216.6c-.2-.2 1.1.5 4 2.1l4.2-2.8.3 2.5H527l.4 175 40.5.1 4.3-.4 4.5 2.4c-1 19.3-1.4 30.9-1.1 34.9zM450.6 50.3V37.1c0-.9-.1-2.1-.3-3.7.2-.4.3-.8.3-1.3-.2-8-.3-12.8-.3-14.5-.1-1.3-.1-2-.1-2.1.1 0 .1-.5.1-1.5v-.3l-.3-1c-.8 0-2.8.1-3.3.4-.7-.3-1.3-.4-1.9-.4H443l-1-.3c0 .2 0 .3-.1.3l-1.2-.3H429l-.4-.3c0 .2 0 .3-.1.3-1.3 0-2.5-.1-3.7-.3-.3 0-.6.1-.9.3-1.1-.2-2-.3-2.8-.3h-5.5l-.4-.4c0 .3 0 .4-.1.4h-.4l-.4-.4c0 .3 0 .4-.1.4h-.1l-.4-.4v.3l-1.9-.4H407l-1-.3c0 .2-.1.3-.3.3l-1.2-.3-.3.3-1.2-.3h-22l-1-.3c0 .2-.1.3-.3.3-.3 0-.5-.1-.7-.3l-1.2.3h-1l-.3-.3c0 .2-.1.3-.3.3h-.3l-.4-.3c0 .2 0 .3-.1.3h-.6l-.4-.3c0 .2 0 .3-.1.3h-1.5l-1-.3c0 .2-.2.3-.6.3h-.1l-.4-.3c0 .2 0 .3-.1.3h-1l-.3-.3c0 .2-.1.3-.3.3h-1.3l-1.2-.3c-.2.2-.5.3-1 .3h-.3l-.4-.3c0 .2-.1.3-.3.3-.4 0-1-.1-1.8-.3-.2.2-.4.3-.6.3l-.3-.3c-.3.2-.6.3-.9.3l-.3-.3c0 .2-.1.3-.3.3-.7 0-1.1-.1-1.3-.3-.7.2-1.3.3-1.8.3h-7.6l-2.1-.3c0 .2-.1.3-.3.3l-.9-.3c-.1 0-.3.1-.6.3-.1 0-.3-.1-.6-.3-.5 0-1 .1-1.5.3-2.5-.2-4.7-.3-6.7-.3h-.7l-1.9.3c0-.2-.1-.3-.3-.3-.1 0-.3.1-.6.3-.9-.2-1.6-.3-2.2-.3h-6.1c-.3 0-.4.3-.4 1 0 .4-.2.6-.7.6 0 .5.1.7.4.7l-.3.6-.3-.3-.8-.6h-.1c-.5 1.1-.9 1.6-1.3 1.6v.7c.3 1.6.4 2.5.4 2.7h-.4v.7c0 .6.1 1.3.4 2.1 0 .2 0 .5-.1 1 0 .2 0 .3.1.3.2 3.7.5 5.5 1 5.5 0 .5 0 .9-.1 1.3l.1 2.1v2.4l.4 1v.4c0 .5-.1.9-.3 1.3.2.4.3.7.3 1 0 .6-.1 1.5-.3 2.7.2.5.3.8.3 1 0 .3-.1.6-.3 1l.3 2.1v1l-.6 1.8.6.6c-.4 1.8-.7 4.3-.9 7.6.2.5.3.8.3 1 0 .5-.2.7-.7.7l.3.6v1.5l-.3 1.6c.2 0 .3.1.3.3-.2 1.6-.4 2.8-.6 3.6l.1.6c-.1 1.2-.1 1.9-.1 2.1 0 .4.1.8.3 1.3v.4c-.2.3-.4 2.2-.6 5.8.2 1.3.3 2.2.3 2.7l-.6 4.9c.1 0 .1.1.1.3v3.1l-.1 1.8c.2 0 .3.9.3 2.7l-.3 4.2c.1.4.1.7.1 1 0 .2 0 .5-.1 1l.1.6c0 .6 0 1.5-.1 2.8l.1 1.3-.1 1.3c0 .3 0 .6.1 1l-.1 2.1v.7c0 .4.1.6.3.6 0 .5 0 1.8-.1 3.9.1 2 .1 3.1.1 3.4-.1 0-.1.1-.1.3.1 0 .1.1.1.4v.6c0 .6 0 1.1-.1 1.5.1.4.1.8.1 1.3 0 4.9.1 11.6.3 20l.1 1.8c-.1 0-.1.1-.1.3.1 0 .1.1.1.3v8.4c0 2.3 0 5 .1 8.2l-.3 3.1c.1.4.1.8.1 1.3v1.8l-.1.7c.1 0 .1.1.1.3l-.1 1.6.3.4c0 .6-.1 1.6-.3 3.1 0 .3.1.7.3 1.3v1h-.1v2.1c0 1-.2 3.7-.7 8.2l.3 2.4v.4h-.3c0 2.3-.2 4-.6 5.1l.1 2.5-.1.6.1.7c0 .7-.1 1-.4 1 .3 3.4.4 5.8.4 7.2 0 .5-.1.7-.4.7l.3.7v2.4c-.4 0-.7.4-.9 1.3.4 1.8.6 2.9.6 3.4v.4h-.3v.6l.1 3.4c-.3 0-.5.5-.6 1.5.4 0 .6.5.6 1.6l-.1 2.4h.7v.7c-.2 1.1-.6 1.6-1.3 1.6v1.5c.4 0 .6.3.6 1h-.3l-1.2 1.6.4 1v1h-.4c0 .8 0 2.7-.1 5.8l.1 2.5c-.1.4-.1.7-.1 1 .8 1 1.2 1.9 1.2 2.7v1h-.4v.3c.7 0 1 .7 1 2.1h-.4v.7h.4v.6c-.3 2.3-.4 3.6-.4 3.9h.6l-.7 3.7c.3 0 .4.2.4.7v1h-.4c0 .5 0 .9.1 1.3-.1 2.1-.2 3.4-.3 3.9.1 0 .1.1.1.3v1h-.4v.3c.3 0 .6.3 1 1 0 .3-.1 1.6-.4 3.9.4 0 .6.7.6 2.1l-.1 2.4h.7v1.3h-.7l.1.7v.3h-.4c.2 1.3.3 2.4.3 3.4 0 .3 0 .6-.1 1 .2 0 .3 1 .4 3.1-.2 0-.3.1-.3.3 1 11.4 1.5 17.6 1.5 18.7v.3l.3-.3c.6.9.9 1.3 1 1.3 1 1.8 2.1 2.7 3.3 2.7 0-.2 0-.3.1-.3h4l.4.3c0-.2 0-.3.1-.3h1.8c2 0 3.8.1 5.4.3.9-.2 2.3-.3 4.2-.3.2 0 .4.1.6.3 0-.2.1-.3.3-.3h6.1l2.4.3c0-.2.5-.3 1.5-.3l.3.3c0-.2.1-.3.3-.3h.1c.3 0 .5.1.7.3.3-.2.6-.3.9-.3h.6l.4.3v-.3l2.4.3c.1 0 3.1-1.5 6.2-1.7l.4.3v2.9l1.3.3h1.6l1.3-.3c0 .2 0 .3.1.3.3-.2.5-.3.6-.3.3 0 .6.1.9.3.2-.2.4-.3.7-.3h2.2l.4.3c0-.2 0-.3.1-.3l2.2 1.4c.7 0 1.8.1 3.4.3 0-.2.2-.3.6-.3 0 .2 0 .3.1.3v-.3c1.2 0 2 .1 2.4.3 2.1-.2 4-.3 5.7-.3 3-.9 5.6-1.4 7.8-1.4.5 0 1.9.5 4.2 1.4.9 0 2.2-.1 4-.3 0 .2.2.3.6.3l.4-.3c.1 0 .3.1.6.3 1.5-.2 2.7-.3 3.7-.3h.4l.4.3c0-.2 0-.3.1-.3h5.1l1.2-.4c.2.3.5-.9.9-.9h2.2c.8 0 1.9-.1 3.3-.4.2.3.4.4.6.4.1-.2.2-.3.4-.3.8.6 1.5 1.3 1.5 1.3h11.1c.9 0 2.3-.1 4.3-.3 0 .2.1.3.3.3.2-.2.4-.3.7-.3h5.9c.2 0 .3-.2.3-.7v-3l.3-2.5c-.2 0-.3-.2-.3-.6l.3-.7h-.3c0-5.4.1-8.5.3-9.3-.2-7.4-.3 6.7-.3 1.1V265l.3-.7h-.3c0-.9.1-1.8.3-2.7 0-.3-.1-.6-.3-1 0-.5.1-.9.3-1.3.1-10.7.1-18.9.1-24.7V81.1l-.1-4c.1 0 .1-.8.1-2.5V73c0-2.7 0-5.5-.1-8.4.1-1.2.1-2.1.1-2.7l-.1-3.1c0-.8 0-1.4.1-1.8 1-2.6 1-4.8 1-6.7zm-26.1 252.9c0-.1.1 0 .3.1l-.3-.1zm7.2-214h-42l-.4 47.1H430l.4 36.5-1.3 3.9c-1.1 0-1.6-.6-1.6-1.9h-36.1c-1.6 0-2.6 1.3-3 3.9l-.3 24.7v22.7l41.3-.3v39.3h-81.5l.8-212.1v-2l83.3.3-.3 37.9zM305.3 50.3V37.1c0-.9-.1-2.1-.3-3.7.2-.4.3-.8.3-1.3-.2-8-.3-12.8-.3-14.5-.1-1.3-.1-2-.1-2.1.1 0 .1-.5.1-1.5v-.3l-.3-1c-.8 0-1.4.1-1.9.4-.7-.3-1.3-.4-1.9-.4H299l-1-.3c0 .2 0 .3-.1.3l-1.2-.3h-13l-.4-.3c0 .2 0 .3-.1.3-1.3 0-2.5-.1-3.7-.3-.3 0-.6.1-.9.3-1.1-.2-2-.3-2.8-.3h-5.5l-.4-.4c0 .3 0 .4-.1.4h-.4l-.4-.4c0 .3 0 .4-.1.4h-.1l-.4-.4v.3l-1.9-.4-6.2 1.4-1-.3c0 .2-.1.3-.3.3l-1.2-.3-.3.3-1.2-.3-19.9-1.4-1-.3c0 .2-.1.3-.3.3-.3 0-.5-.1-.7-.3l-1.2.3h-1l-.3-.3c0 .2-.1.3-.3.3h-.3l-.4-.3c0 .2 0 .3-.1.3h-.6l-.4-.3c0 .2 0 .3-.1.3h-1.5l-1-.3c0 .2-.2.3-.6.3h-.1l-.4-.3c0 .2 0 .3-.1.3h-1l-.3-.3c0 .2-.1.3-.3.3h-1.3l-1.2-.3c-.2.2-.5.3-1 .3h-.3l-.4-.3c0 .2-.1.3-.3.3-.4 0-1-.1-1.8-.3-.2.2-.4.3-.6.3l-.3-.3c-.3.2-.6.3-.9.3l-.3-.3c0 .2-.1.3-.3.3-.7 0-1.1-.1-1.3-.3-.7.2-1.3.3-1.8.3H205l-2.1-.3c0 .2-.1.3-.3.3l-.9-.3c-.1 0-.3.1-.6.3-.1 0-.3-.1-.6-.3-.5 0-1 .1-1.5.3-2.5-.2-4.7-.3-6.7-.3h-.7l-1.9.3c0-.2-.1-.3-.3-.3-.1 0-.3.1-.6.3-.9-.2-1.6-.3-2.2-.3h-6.1c-.3 0-.4.3-.4 1 0 .4-.2.6-.7.6 0 .5.1.7.4.7l-.3.6-.3-.3.1-.6h-.1c-.5 1.1-.9 1.6-1.3 1.6v.7c.3 1.6.4 2.5.4 2.7h-.4v.7c0 .6.1 1.3.4 2.1 0 .2 0 .5-.1 1 0 .2 0 .3.1.3.2 3.7.5 5.5 1 5.5 0 .5 0 .9-.1 1.3l.1 2.1v2.4l.4 1v.4c0 .5-.1.9-.3 1.3.2.4.3.7.3 1 0 .6-.1 1.5-.3 2.7.2.5.3.8.3 1 0 .3-.1.6-.3 1l.3 2.1v1l-.6 1.8.6.6c-.4 1.8-.7 4.3-.9 7.6.2.5.3.8.3 1 0 .5-.2.7-.7.7l.3.6v1.5l-.3 1.6c.2 0 .3.1.3.3-.2 1.6-.4 2.8-.6 3.6l.1.6c-.1 1.2-.1 1.9-.1 2.1 0 .4.1.8.3 1.3v.4c-.2.3-.4 2.2-.6 5.8.2 1.3.3 2.2.3 2.7l-.6 4.9c.1 0 .1.1.1.3v3.1l-.1 1.8c.2 0 .3.9.3 2.7l-.3 4.2c.1.4.1.7.1 1 0 .2 0 .5-.1 1l.1.6c0 .6 0 1.5-.1 2.8l.1 1.3-.1 1.3c0 .3 0 .6.1 1l-.1 2.1v.7c0 .4.1.6.3.6 0 .5 0 1.8-.1 3.9.1 2 .1 3.1.1 3.4-.1 0-.1.1-.1.3.1 0 .1.1.1.4v.6c0 .6 0 1.1-.1 1.5.1.4.1.8.1 1.3 0 4.9.1 11.6.3 20l.1 1.8c-.1 0-.1.1-.1.3.1 0 .1.1.1.3v8.4c0 2.3 0 5 .1 8.2l-.3 3.1c.1.4.1.8.1 1.3v1.8l-.1.7c.1 0 .1.1.1.3l-.1 1.6.3.4c0 .6-.1 1.6-.3 3.1 0 .3.1.7.3 1.3v1h-.1v2.1c0 1-.2 3.7-.7 8.2l.3 2.4v.4h-.3c0 2.3-.2 4-.6 5.1l.1 2.5-.1.6.1.7c0 .7-.1 1-.4 1 .3 3.4.4 5.8.4 7.2 0 .5-.1.7-.4.7l.3.7v2.4c-.4 0-.7.4-.9 1.3.4 1.8.6 2.9.6 3.4v.4h-.3v.6l.1 3.4c-.3 0-.5.5-.6 1.5.4 0 .6.5.6 1.6l-.1 2.4h.7v.7c-.2 1.1-.6 1.6-1.3 1.6v1.5c.4 0 .6.3.6 1h-.3l-1.2 1.6.4 1v1h-.4c0 .8 0 2.7-.1 5.8l.1 2.5c-.1.4-.1.7-.1 1 .8 1 1.2 1.9 1.2 2.7v1h-.4v.3c.7 0 1 .7 1 2.1h-.4v.7h.4v.6c-.3 2.3-.4 3.6-.4 3.9h.6l-.7 3.7c.3 0 .4.2.4.7v1h-.4c0 .5 0 .9.1 1.3-.1 2.1-.2 3.4-.3 3.9.1 0 .1.1.1.3v1h-.4v.3c.3 0 .6.3 1 1 0 .3-.1 1.6-.4 3.9.4 0 .6.7.6 2.1l.9 1.6.6 1.3v3.7c.5 4.7.7 7.2.7 7.6-.1.5-.1.8-.1 1 0 1 0 1.9.1 2.8-.5 7.2-.7 11.6-.7 13.2v.3l.3-.3c.6.9.9 1.3 1 1.3 1 1.8 2.1 2.7 3.3 2.7 0-.2 0-.3.1-.3h4l.4.3c0-.2 0-.3.1-.3h1.8c2 0 3.8.1 5.4.3.9-.2 2.3-.3 4.2-.3.2 0 .4.1.6.3 0-.2.1-.3.3-.3h6.1l2.4.3c0-.2.5-.3 1.5-.3l.3.3c0-.2.1-.3.3-.3h.1c.3 0 .5.1.7.3.3-.2.6-.3.9-.3h.6l.4.3v-.3l2.4.3c.1 0 1.7-.1 4.8-.3l.4.3v-.3l1.3.3h1.6l1.3-.3c0 .2 0 .3.1.3.3-.2.5-.3.6-.3.3 0 .6.1.9.3.2-.2.4-.3.7-.3h2.2l.4.3c0-.2 0-.3.1-.3h3.6c.7 0 1.8.1 3.4.3 0-.2.2-.3.6-.3 0 .2 0 .3.1.3v-.3c1.2 0 2 .1 2.4.3 2.1-.2 4-.3 5.7-.3h12c.9 0 2.2-.1 4-.3 0 .2.2.3.6.3l.4-.3c.1 0 .3.1.6.3 1.5-.2 2.7-.3 3.7-.3h.4l.4.3c0-.2 0-.3.1-.3h5.1l1.2-.4c.2.3.5.4.9.4h2.2c.8 0 1.9-.1 3.3-.4.2.3.4.4.6.4.2-.3.5-.4.9-.4h.4l.4.4c0-.3 0-.4.1-.4h12.4c.9 0 2.3-.1 4.3-.3 0 .2.1.3.3.3.2-.2.4-.3.7-.3h4.5c.2 0 .3-.2.3-.7v-3l.3-2.5c-.2 0-.3-.2-.3-.6l.3-.7h-.7c0-5.4.1-8.5.3-9.3-.2-7.4-.3-13.9-.3-19.4v-4l.3-.7h-.3c0-.9.1-1.8.3-2.7 0-.3-.1-.6-.3-1 0-.5.1-.9.3-1.3.1-10.7.1-18.9.1-24.7V81.1l-.1-4c.1 0 .1-.8.1-2.5V73c0-2.7 0-5.5-.1-8.4.1-1.2.1-2.1.1-2.7l-.1-3.1c0-.8 0-1.4.1-1.8-.1-2.6-.1-4.8-.1-6.7zm-18.9 38.9h-42l-.4 47.1h40.7l.4 36.5c-2 2.2-3 2.8-3 1.9H246c-1.6 0-2.6 1.3-3 3.9l-.3 24.7V226l41.3-.3V265h-81.5l.9-212v-2h7.4l3.2 1.5 4.4-1.4 12.9.2c.9-.2 3.5-.2 7.6 0h2.6l3.8-.2.9.2h40.7l-.5 37.9zM920.8 50.9l-32.9 214.5 39.3-1 4-37.6 38.4.9 10.8 37.8 39 .1-45.6-213.5-53-1.2zm38.9 141.7c-12.2-.9-19.6-1.1-22.4-.6-.3-1.7 2.6-25.2 8.8-70.6l1.8-.4c4.1 16.2 8.4 39 12.9 68.7-1 .2-1.4 1.2-1.1 2.9zM754.8 92.6c-4-26.8-25.5-41.5-64.5-44-21.7.6-40.9 1.1-57.4 1.6 1.3 79.1 1.5 123.9.6 134.3l1.6-.6-1.9 24.8 1.6-.6c-.4 4.6-.6 23.7-.6 57.3l47.6.6v-69.4c2.8-.6 12.1-1.5 28-2.7 26-4.4 41.7-21.2 47-50.6 2.2-11.6 2.5-21.8 1-30.8l-3-19.9zm-34.1 33.6L685 149.9c-.6.3-1.3.5-1.9.5-2.1 0-3.8-1.7-3.8-3.8V99.1c0-2.1 1.7-3.8 3.8-3.8.7 0 1.3.2 1.9.5l35.8 23.7c1.2.7 1.9 1.9 1.9 3.3 0 1.5-.8 2.7-2 3.4zM138.7 201.6s0 .1 0 0c0 .1 0 .1 0 0 0 .1 0 0 0 0zm-5.2 28.9c-.4-.6-.1-2.4-.2-2.7-.1-.3 0-1.1 0-1.3 0-.3.2-.4.1-.6-.1-.3-.2-.6-.1-.9.1-.2-.1-.4-.2-.5-.1-.2-.1-.4 0-.7.2-.3.4-.5.5-.9.1-.2.1-.3-.1-.4-.4-.3-.4-.7-.3-1.2.1-.4.2-1.5 0-1.8-.1 0-.1.2-.2.2l-.2-.1-.1.1c-.3.4-.4.8-.8 1.2-.4.3-.5.5-.8.9-.1.2-.2.6-.2.8.1.6-.1 1.2-.3 1.8-.3 1-.4 2.1-.7 3.1-.2.7-.4 1.3-.4 2l4.1 12c-.1-.6-.1-1.3-.2-1.9l.1-.3c0-.4-.1-.7-.1-1.3 0-.9.1-2.8 0-3.6v-.7c0-.4-.1-.6-.1-.9 0-.4.1-.8.2-1 .1-.4 0-.5 0-.7 0-.2 0-.3.1-.5l-.1-.1zm27-137.7c0 1 .2 2.3.7 3.9-.1 1.6-.1 2.9-.1 3.9-.8 26.7-1.3 45.9-1.5 57.7-.1 10.3.6 21.1.5 29.5 0 1.5-.6 1.5-.6 3 0 1.4.6 2.8.6 4.1-.2 10.2-.4 18.7-.6 25.3-.1 1.5-1.1.9-1.1 2.3-.2 6.9.8 13 .7 16.2 0 1.2-.5 3.3-1.5 5.3-.6 1.3-1.8 2.8-1.9 2.8.1 0 .3.7.7 2.1 0 .7-.2 1-.6 1l.3 1.8c0 .3-1.2 1.2-.3 1.2h.6v1.6l-.3 1.8c.2 0 .3.3.4 1l-.4 2.5.7 1.2 1.9 1.6 1 1.6.9 2.1-1.5 3.8v4.6c.1 1.7.2 3 .2 3.8.2 4.1.6 10.3 1.1 18.6.3.6-1.2 9.3-1 10.6H131.2v-.6c-.1 0-.1.1-.1.3l-.6-.3h-.9l-1.3.3c0-.2-.8-.5-2.4-1-.2 0-.3.4-.3 1.3h-.3l-.4-.3c0 .2-.1.3-.3.3h-.6c-.7 0-1.6.1-2.7.4-.5 0-1.3-.7-2.5-2.1h-1.2c-.6 0-1.3-.1-2.2-.4-1 .5-1.6.7-1.9.7v-.3c-2.1-.3-3.1-.7-3.1-1.2-.1 0-.1.1-.1.4-.9 0-1.3-.6-1.3-1.8h-1v1.3h-2.2l.3.7c-.9 0-1.7.7-2.5 2.1H102l-1.5-.3c-.2.2-.6.3-1.2.3h-5.7v.7c-.4-.2-1.2-.4-2.5-.7-.9.3-1.7.4-2.4.4h-1.8l-1.8-.4-.1.7-1.8-.3c-.2 0-.4.1-.7.3 0-.2-.1-.3-.3-.3h-.3l-.4.3v-.3l-3 .3-1.2-.3c-.7.2-1.4.3-2.1.3-.8 0-1.6-.1-2.4-.3l-1.5.3-1.8-.3c-.3.2-.5.3-.7.3-.4 0-.7-.1-1-.3l-1.5.3H48.5l-2.5-.3c0 .2-.1.3-.3.3l-1.5-.3h-.3c-.3 0-.6.1-.9.3-.3-.2-.6-.3-1-.3h-1.8c-.6 0-1.2-.1-1.9-.4-.6.3-1.2.4-1.9.4h-7.8l-.4.3c0-.2-.1-.3-.3-.3h-1.5c-.9 0-2.3-.1-4.2-.4 0 .3-.1.4-.3.4 0-.3-.1-.4-.3-.4h-3l-1.5.4c0-.3-1.1-.4-3.4-.4-1.4 0-2.1-.4-2.1-1.3l-.4.3v-1h-.7l-.7.7c0-.3-.3-1-1-2.1h.7c-.2-1.4-.5-2.5-.9-3.3 0-1 0-2.3.1-3.9l-.1-.7c.3-3.8.6-5.7.9-5.7 0-.1-.1-.4-.4-1v-7.4c0-.5.1-.7.4-.7-.3-2.9-.4-4.4-.4-4.6l.3-2.1c-.2-.5-.3-.8-.3-1 0-1.2.1-2.4.3-3.6l-.3-1.8c0-.2.1-.9.3-2.1-.4-.6-.6-1.8-.7-3.6.1-1.3.1-2.5.1-3.6v-.7l-.1-.6h1.6V10.4c.7 0 1-.4 1-1.2l3-.3c.5 0 1.1.2 1.9.7.4 0 1.1-.2 2.1-.7l.4.3c.9-.2 1.4-.3 1.5-.3.6 0 1 .1 1.3.3l1.5-.3h6l1.5.3c.2-.2.6-.3 1.2-.3h4l1.6.3c0-.2.1-.3.3-.3l.4.3 1.5-.3h7.8l1.8-.3c0 .2.7.4 2.2.6.3-.2.5-.3.7-.3l1.2.3c.4-.2.6-.3.7-.3l1.5.3.6-.3c1 .5 2 .7 3 .7l1.2-.4c0 .3.1.4.3.4.1 0 .3-.1.7-.4.8.3 1.3.4 1.5.4 1.4-.3 2.2-.4 2.4-.4l.7.7h1v-.7l1.2.4h.6l.4-.4c0 .4.7.6 2.1.7l.9-.3 1.8.3c.3 0 .7-.2 1.2-.7 0 .3.1.4.3.4h.7c.3 0 .4-.2.4-.7 1.1.5 1.8.7 2.1.7 0-.5.1-.7.4-.7 0 .7.4 1 1.2 1 .2 0 .3-.2.3-.7 2.3-.2 3.6-.3 4-.3.5 0 .7.3.7 1l1.5-.3.4.3c.9-.2 1.6-.3 2.2-.3h2.5l1.8.3.1-.7 1.3.4h2.5l1.6.3c0-.2.1-.3.3-.3l1.5.3 2.2-.3 1.2.3c.3-.2.7-.3 1.3-.3h.4c1.2 0 2.1.2 2.7.7 0-.3.2-.5.7-.7v1h.7c.8-.7 1.4-1 1.8-1 3.9.5 6 .7 6.3.7.1 0 .1.2.1.6h1v-.6h3.6c.9 0 2-.1 3.4-.4.3.3.6.4 1 .4l.9-.4c.7.3 1.4.4 2.1.4h.4v.7c.6-.4 1.2-.6 1.9-.6h.6l.9 1h1.5v-.7h.3c.3 0 .4.3.4 1h.6c0-.7.2-1 .7-1l-.3-.7h.7c.7.4 1 .9 1 1.5h.4c.4 0 .7-.1 1-.4l.4.4 2.7-1v1h-.4v.3h.7c0-.7.4-1 1.2-1h.3l1.5.3 2.5-.3h.7l.4-.3v.5h.7v-1h.7v.7c0 .5-.2.7-.7.7v.6c.7 0 1 .2 1 .7h.4l.6-.3-.6-1.5c.2 0 .3-.1.3-.3.8.7 1.4 1 1.9 1 .4 0 .6-.2.6-.7.8 0 1.3.8 1.5 2.5 0 .9.5 1.5 1.6 1.8 0-.5.2-.7.6-.7 0 2.1.2 3.1.7 3.1-.2.5-.4 1.9-.6 4.3.2 0 .3.1.3.3h-.4V26c.4 0 .7.8.9 2.5l-.4.3v13.3c-1.7 23.5-2.5 35.9-2.5 37.2l-.1.7h.1c0 .3 0 .4-.1.4l.4 1.3v.3l-1.2 2.2c0 .7.1 1 .4 1h.3l.4-.4c0 1.2.3 1.8 1 1.8l-.7 1.8c.1 0 .3.1.7.4 0 .5-.3.8-1 1v.6l1.8-.3h.1v2.7zm-8.6 171.8s0-.1 0 0c0-.1 0-.1 0 0v-.2c-.1-1.3-1.2-1.1-2-2.2l-.1-.1v-.2c-.1 0-.1-.1-.2-.1-.1-.3-.2-.7-.3-.9.2 0 .4 0 .4-.1.1-.6-.1-1-.1-1.4 0-.5-.2-.8-.3-1.5-.1-.8-.2-1-.2-1.4 0-.6-.1-.6-.1-1.2-.1-2.2-.4-4-.4-6.6 0-.2-.1-1.4-.4-1.6-.3-.3-.2-1-.2-1.2-.1-.6 0-.7-.1-.9-.3-.5-.1-.8-.2-1.2v-.4c0-1.1.1-1.9 0-3.7 0-.8-.1-1.5-.2-2.2-.1-.7-.2-1.3-.3-2-.2-1-.2-2-.3-3v-.5c0-.5-.1-1-.2-1.5 0-.3-.2-.2-.2-.7v-.4s0-.1-.1-.1v-.2c0-.1-.1-.1-.1-.2h.2c.1 0 .2 0 .2-.1.2-.1 0-.4 0-.5 0-.3-.1-.5-.1-.8-.2-2-.7-5.7-.7-8.2 0-1.2-.3-2.1-.4-3.9 0-.3-.1-.8-.1-1-.1-.6.2-1.9.2-1.9 0-.6 0-1.1.3-1.7.4-.9.5-1.7.7-2.7.2-.8.2-1.7.4-2.5.1-.3.2-.7.2-.7l-.2-.1v-.5c.2-.9.3-1.8.4-2.7 0-.6.1-1.2.3-1.8.2-.5.4-1 .5-1.6.2-1 .1-2-.1-3-.1-.7-.4-1.4-.5-2.2 0-.5-.2-1.1-.4-1.6l-.4-.9c0-.7-.1-2.2-.3-2.5-.2-.3-.3-.7-.6-.6-.3.1-.5.1-.7.1-.2 0-.4 0-.5.1-.2.1-.4 0-.6 0-.2 0-.2.2-.3.1-.2 0-.4-.1-.6.1-.2.2-.1.2-.3.5-.2.3.1.7.2 1 .1.2.2.8.4 1 .2.2.3 0 .6.2s.6.3.6.5c.1.3.1.5.2.8.2.8.1 1.7 0 2.5-.1 1.1 0 2.1-.2 3.2-.1.6-.1 1.2.1 1.8.1.2 0 .4-.1.6-.2.4-.4.9-.7 1.3-.3.4-.5.9-.7 1.3-.2.4-.3.8-.5 1.2v.1l-.2-.1s-.3 1.2-.7 1.8c-.3.5-.6 1-1.1 1.4-.3.2-1 .5-1.3.1-.1.1-.1.1-.3.2-.2-.4-.4-1-.5-1.6.1-.1.2-.3.2-.4v-.2c0-.2-.1-.5-.1-.7.2 0 .3-.6.3-.8 0-.3.1-.9 0-1.2 0-.2-.1-.3-.2-.4h-.2v-.4c0-.1-.1-.2-.2-.4v-.4c0 .1.1.2.1.3 0-.1-.1-.2-.1-.3.1.1.1.3.1.5 0-.3-.1-.5-.2-.7 0-.1 0-.2-.1-.3-.1-.2-.4-.6-.5-.9.2.2.3.3.5.6-.3-.7-.3-1-1-1.2l.2-.2c-.2.1-.3.1-.5.2.1-.1.1-.2 0-.4.1.5-1.1.2-1.4.1-.5 0-.8 0-1.3-.2l.2.2c-.2 0-.4 0-.5-.2 0 .2.1.3.3.4h-.2.1c-.2 0-.4.1-.6.2-.2 0-.3 0-.4-.1.1.2.1.2.3.4-.3.2-.6.4-.7.8-.1 0-.1.1-.2.1h.2v.1l.2-.2h.2c-.1.3-.3.5-.4.8h-.1.1v.1s-.1 0-.1.1h.1c-.1.2-.2.3-.2.5 0-.1.1-.1.1-.2.1 0 .1-.1.2-.1 0 .1-.1.2-.1.4l.2-.2c.1 1 .1 1.1.4 2h.1c-.1 0-.1 0-.2.1s0 .2.1.4c.2.3.5.8.6 1 .1.2.5.7.7.6v.2c.1.3.2.6.3.8l.1.1c.1.1.2.1.3.1v.1c.2.4.3.9.3 1.3h-.2v.6s0 .1-.1.2c-.1 0-.1 0-.1.1v.1l-.1.1c-.1.1-.4.1-.6.2-.4.2-.6 0-.9.4-.4.1-1.4.4-1.7.5-.4.1-.7.6-.9 1-.6 1.1-.5 1.9-.9 3-.1.4-.2.9-.3 1.3-.1.2-.1.4-.2.6-.1.2-.3.7-.3.7l.1.1s-.1.3-.1.4c-.3.9-.6 1.7-.8 2.6-.1.6-.2 1.2-.5 1.7s-.3.9-.5 1.5c-.1.1-.1.3-.1.4l-17-50.2c13.8-7 21.8-25.5 24.1-55.7V108c0-25.1-13.6-43.5-40.8-55.2h-1.6v2.7L88 52.8H33.2l-3.9 2.7c0-1.8-.6-2.7-1.9-2.7l-2.1 4.9v52.5c0 1.8.7 2.7 2.1 2.7l-2.1 4.6v23.9l2.1 4.9c-1.4 0-2.1.8-2.1 2.4 1.4 0 2.1.7 2.1 2.2h-2.1l2.1 4.9-2.1 4.9c1.4 3.2 2.1 5.5 2.1 7 0 1.8-.7 2.7-2.1 2.7l2.1 12v42.8c0 1.6-.7 2.4-2.1 2.4l2.1 4.6v31.3c.4 3.1 1.6 4.6 3.7 4.6h35.3v-78.7h5.8L82.4 224l11.4 39.6 4.2 2.2h44l-4.1-12.1c.1-.4.1-.7.2-1.2.2-1.2.4-3.1.4-4.7 0-.7-.3-.6-.3-.8.1-.5.3-1.2.5-1.9.1-.6 0-1.4 0-1.6 0-.4.2-2.6.3-4.1v-.1c0-.2.1-.5.1-.7 0-.4.1-.6.1-.6.1-1.3.2-2.6 1-3.5 1.7 2.2 1.2 2.3 2 4.7.4 1.7.8 3.3 1.1 5.5.1.5.3.9.3 1.4.1.7.1 1.8.1 2.5.1 2 .5 4.6 1.1 6.9.2.6 0 1 0 1.6 0 .7.4 1.3.5 1.9.1 1.4.1 1.6.6 2.4.1 0 .1 0 .2-.1 0 .2-.1.4-.1.7v1.3l.9.5h.5c.5.4.6.8.8 1 .2.2.5.4 1.1.5h.3c.7.1 1.3 0 1.7-.2.4.1.7-.1.6-.5zM101.3 120 70.2 99.3c-.5-.3-1.1-.5-1.7-.5-1.8 0-3.3 1.5-3.3 3.3v41.3c0 1.8 1.5 3.3 3.3 3.3.6 0 1.2-.2 1.7-.4l31.1-20.6c1-.6 1.7-1.7 1.7-2.9 0-1.1-.6-2.2-1.7-2.8zm31.2 80.8z"/></svg>