<svg version="1.1" id="Layer_1" xmlns="http://www.w3.org/2000/svg" x="0" y="0" viewBox="0 0 283 181" style="enable-background:new 0 0 283 181" xml:space="preserve"><style>.st0{fill:#B2B2B2}</style><path class="st0" d="M119.2 132v-7.8c-.3 0-.5-.2-.5-.5s.2-.5.5-.5v-.8h-10.4v.8c.3 0 .5.2.5.5s-.2.5-.5.5v7.8c0 2.6.6 5.3 1.6 7.7 1.9 3.9 3.6 4.5 3.6 4.5s1.6-.6 3.6-4.5c1.1-2.4 1.6-5.1 1.6-7.7zm-3.8 3.1c-.7 2.6-1.4 3.2-1.4 3.2s-.7-.6-1.4-3.2c-.3-1.4-.5-2.8-.4-4.3v-6.9h3.7v6.9c0 1.5-.2 2.9-.5 4.3zM97 122.4h3.3v21.4H97zM197.9 122.4h-8.8v3.2h2.7v18.3h3.5v-18.3h2.6zM184.6 140.7V134h3.1v-3.1h-3.1v-5.3h3.5v-3.2h-7v21.5h7v-3.2zM167.3 140.7v-18.3h-3.5v21.5h7.6v-3.2zM105.2 140.7v-18.3h-3.3v21.5h7.5v-3.2zM176 140.7v-18.3h-3.6v21.5h7.6v-3.2zM162.1 125.8v-3.3h-3.6v17.4c.1.5-.3.9-.8 1-.5.1-.9-.3-1-.8V122.5h-3.6v17.7c0 .5.1.9.3 1.3.2.5.6 1 1 1.3.4.4.9.7 1.4.9.5.2 1.1.3 1.7.3.6 0 1.2-.1 1.8-.3.5-.2 1-.5 1.4-.9.4-.4.8-.8 1-1.3.2-.5.3-1.1.3-1.6l.1-14.1zM124 140.6v-6.7h3.2v-3.1H124v-5.3h3.5v-3.2h-7v21.5h7v-3.2zM152.1 135.4c0-.5-.1-.9-.2-1.4-.3-.6-.7-1.2-1.3-1.5.5-.4 1-.9 1.3-1.4.1-.5.2-1 .2-1.4V126c0-.8-.3-1.5-.8-2.1-.4-.5-.8-.9-1.4-1.2-.6-.3-1.3-.5-2.1-.5h-4.5v21.6h4.2c1.4.1 2.7-.5 3.6-1.5.6-.7.9-1.6.9-2.5v-4.4zm-3.5 4.5c0 .5-.4.9-.9.9h-.9v-7h.9c.5 0 .9.4.9.9v5.2zm0-9.7c0 .5-.4.9-.9.9h-.9v-5.9h.9c.5 0 .9.4.9.9v4.1zM95.7 127.5v-1.6c0-1.9-1.5-3.5-3.4-3.5H90.6c-1.9.1-3.3 1.6-3.3 3.5v4.7c0 .6.3 1.1.8 1.5l4 2.8c.2.2.4.4.4.7v4.5c-.1.5-.5.9-1 .8-.4 0-.8-.4-.8-.8v-4.4l-3.3 1.1v3.6c0 1.9 1.5 3.4 3.4 3.5H92.5c1.8-.1 3.3-1.6 3.3-3.5v-5.9c0-.6-.3-1.2-.8-1.5l-3.9-2.7c-.3-.2-.4-.4-.4-.7v-3.3c.1-.5.5-.9 1-.8.4 0 .8.4.8.8v2.4l3.2-1.2zM135.6 134.5c1.3-.5 2.2-1.8 2.2-3.2V126c-.1-.7-.3-1.5-.8-2-.4-.5-.8-.9-1.4-1.2-.6-.3-1.3-.5-2-.4h-4.5v21.5h3.3v-7.8l.3-.1 2.4 7.9h3.3l-2.8-9.4zm-3.2-9.3h.9c.5 0 .9.4.9.9v4.5c0 .5-.4.9-.9.9h-.9v-6.3zM50.7 94.7c.1 1.9-.6 3.8-2 5.2-1 .8-2.3 1.2-3.7 1.1-1.8.1-3.5-.8-4.5-2.3-.9-1.3-1.4-2.8-1.4-4.3-.1-1.8.4-3.5 1.5-4.9.5-.6 1.1-1.2 1.9-1.5.8-.4 1.6-.6 2.5-.6.9 0 1.8.1 2.7.4.7.2 1.4.7 1.9 1.2.1.2.2.4.2.6 0 .2-.1.4-.3.5-.2.1-.4.2-.6.2-.2 0-.4-.1-.6-.2-.5-.4-1-.7-1.5-.9-.5-.2-1.1-.3-1.7-.3-1.3-.1-2.6.6-3.3 1.8-.7 1-1 2.3-1 3.5-.1 1.7.5 3.3 1.6 4.5.6.6 1.5 1 2.4 1 .7 0 1.4-.2 2-.5 1.5-.7 2.3-2.2 2.2-3.8v-.6h-2.4c-.5 0-.7-.2-.8-.7s.3-.8.7-.8h3c.7 0 1.1.4 1.1 1.2l.1.2zM244.1 94.7c.1 1.9-.6 3.8-2 5.2-1.1.8-2.4 1.2-3.7 1.1-1.8.1-3.5-.8-4.5-2.3-.9-1.3-1.4-2.8-1.4-4.3-.1-1.8.4-3.5 1.5-4.9.5-.6 1.1-1.2 1.9-1.5.8-.4 1.7-.6 2.6-.6.9 0 1.8.1 2.7.4.7.2 1.3.7 1.8 1.2.1.2.2.3.2.6 0 .2-.1.3-.3.4-.2.1-.4.2-.6.2-.2 0-.5-.1-.6-.2-.5-.4-.9-.7-1.5-.9-.5-.2-1.1-.3-1.7-.3-1.3-.1-2.6.6-3.3 1.8-.7 1-1 2.3-1 3.5-.1 1.7.5 3.3 1.6 4.5.6.6 1.5 1 2.4 1 .7 0 1.4-.2 2-.5 1.4-.7 2.3-2.2 2.1-3.8v-.6H240c-.4 0-.7-.3-.8-.7v-.1c0-.5.3-.8.7-.8h3c.7 0 1.1.4 1.1 1.2l.1.4zM132.6 99.9c0 .7-.3 1.1-.8 1.1-.4 0-.8-.3-.8-.7v-.1l-1.5-10.8-3.3 10.9c-.1.4-.4.7-.8.7s-.8-.3-.8-.7l-3.2-10.9-1.6 10.9c0 .5-.4.8-.9.8h-.1c-.5 0-.7-.3-.8-1v-.4l2-11.3c0-.3.2-.6.4-.9.2-.2.5-.3.8-.3.3 0 .6.1.8.2.2.2.4.4.4.7l2.8 9.9 2.9-9.9c.1-.3.2-.5.4-.6.2-.1.5-.2.7-.2.7 0 1.2.5 1.3 1.1l2.1 11.5zM163.4 100c0 .6-.3.9-.8.9s-.9-.3-.9-.9V88.2c-.1-.4.2-.8.6-.9h.2c.5 0 .8.3.8.9V100zM203.4 100.1c0 .6-.2.8-.7.8-.4 0-.7-.2-.9-.5l-7-10.1v9.8c.1.4-.2.8-.6.8h-.2c-.5 0-.8-.3-.8-.8v-12c0-.6.2-.9.7-.9.4 0 .7.2.9.6l7 10.1v-9.7c0-.2.1-.5.2-.6.1-.2.4-.3.6-.2.6 0 .8.3.8.9v11.8zM89.8 100.3c0 .4-.3.7-.8.7-.2 0-.4-.1-.5-.2-.2-.1-.3-.3-.3-.5l-.9-2.4h-6.2l-.9 2.4c-.1.4-.5.6-.8.6-.4.1-.7-.2-.8-.6v-.1c0-.1 0-.2.1-.2l.1-.2 4.3-11.6c.1-.3.3-.5.5-.7.2-.2.4-.3.7-.3.3 0 .5.1.7.2.2.2.4.4.5.7l4.4 11.6c-.1.3-.1.4-.1.6m-2.9-3.8-2.6-7.3-2.6 7.3h5.2z"/><circle class="st0" cx="211" cy="42.3" r="5.4"/><path class="st0" d="M244.3 42.3c0 3-2.4 5.4-5.3 5.4-3 0-5.4-2.4-5.4-5.3 0-3 2.4-5.4 5.3-5.4 3 0 5.4 2.4 5.4 5.3z"/><circle class="st0" cx="211" cy="68.5" r="5.4"/><path class="st0" d="M244.3 68.5c0 3-2.4 5.4-5.4 5.4-3 0-5.4-2.4-5.4-5.4s2.4-5.4 5.4-5.4c3 0 5.4 2.4 5.4 5.4zM230.3 55.4c0 3-2.4 5.4-5.4 5.4-3 0-5.4-2.4-5.4-5.4 0-3 2.4-5.4 5.4-5.4 3.1 0 5.4 2.4 5.4 5.4zM196.7 72.6l-15-35.1c-.1-.3-.4-.5-.7-.5h-6.5c-.4 0-.7.2-.8.6l-15 35.1c0 .1-.1.2-.1.3 0 .3.3.6.6.6h6.7c.3 0 .7-.2.8-.5l3.1-8.2h15.9l3 8.1c.1.3.4.5.8.5h6.7c.3 0 .6-.3.6-.6 0-.1 0-.2-.1-.3zm-24.5-14.3 5.5-14.2 5.5 14.2h-11zM91 48.2c.2-.7.5-1.4.9-2.1.7-.9 1.6-1.6 2.6-2.1 1.1-.5 2.3-.8 3.4-.8h13.2c.4 0 .7-.3.7-.7v-5c0-.4-.3-.7-.7-.7H96.5c-8.1 0-14.6 7.1-14.6 15.8v5c0 8.7 6.5 15.8 14.6 15.8h14.6c.4 0 .7-.3.7-.7v-5c0-.4-.3-.7-.7-.7H97.9c-1.2 0-2.4-.3-3.4-.8s-1.9-1.2-2.6-2.1c-.4-.6-.7-1.3-.9-2.1-.2-1-.4-2.1-.5-3.2V58h20.6c.4 0 .7-.3.7-.7v-5c0-.4-.3-.7-.7-.7H90.5v-.3c.1-1 .3-2 .5-3.1zM136.5 73.5h12.1c.4 0 .6-.3.6-.7v-5c0-.4-.2-.7-.6-.7h-11c-3 .1-5.5-2.1-5.6-5.1V37.5c0-.3-.3-.6-.7-.6H125c-.4 0-.7.3-.7.7V61.5c.2 6.7 5.6 12 12.2 12M71.5 72.6 63 58.3c4.3-.9 7.4-3.9 7.4-10.5C70.4 39 64.6 37 57.2 37H39.4c-.4 0-.7.3-.7.7v35.1c0 .4.3.7.7.7h6.3c.4 0 .7-.3.7-.7V59.1h8.9L63.2 73c.2.4.6.6 1 .6H71c.3 0 .6-.3.6-.6 0-.2-.1-.3-.1-.4zM57.3 52.7H46.4v-9.2h10.9c4.1 0 5.3 2 5.3 4.5s-1.2 4.7-5.3 4.7z"/><circle class="st0" cx="76.6" cy="133.8" r="2.1"/><circle class="st0" cx="205.1" cy="133.8" r="2.1"/></svg>