<svg width="81" height="33" viewBox="0 0 81 33" fill="none" xmlns="http://www.w3.org/2000/svg">
<path d="M75.0006 33H0L5.7006 0H81L75.0006 33Z" fill="#EDEDED"/>
<path d="M25.1832 11.5897C21.8319 11.5897 19.2881 14.1292 19.2881 17.1553C19.2881 19.893 21.3754 21.8017 24.2183 21.8017C27.5695 21.8017 30.0955 19.1901 30.0955 16.164C30.1134 13.4082 28.026 11.5897 25.1832 11.5897ZM24.4295 19.2262C23.1477 19.2262 22.2526 18.3611 22.2526 17.0273C22.2526 15.5512 23.359 14.1472 24.9558 14.1472C26.2358 14.1472 27.1309 15.0484 27.1309 16.3821C27.1488 17.8762 26.0264 19.2262 24.4277 19.2262H24.4295ZM45.3426 11.5897C41.9913 11.5897 39.4654 14.1292 39.4654 17.1553C39.4654 19.893 41.5527 21.8017 44.3956 21.8017C47.7468 21.8017 50.2746 19.1901 50.2746 16.164C50.2925 13.4082 48.2033 11.5897 45.3426 11.5897ZM44.6068 19.2262C43.325 19.2262 42.4317 18.3611 42.4317 17.0273C42.4317 15.5512 43.5363 14.1472 45.1331 14.1472C46.4131 14.1472 47.3082 15.0484 47.3082 16.3821C47.3082 17.8762 46.2037 19.2262 44.605 19.2262H44.6068ZM60.135 14.8141C60.135 12.9757 58.7494 11.8042 56.2216 11.8042H52.677L51.116 21.5854H54.0984L54.5907 18.5052H54.7304L56.3093 21.5872H59.7304L57.5374 18.1628C59.1701 17.5861 60.1332 16.3442 60.1332 14.8141H60.135ZM55.3623 16.4362H54.9237L55.2567 14.3815H55.6613C56.5904 14.3815 57.0809 14.6699 57.0809 15.3007C57.0809 16.0397 56.3792 16.4362 55.3623 16.4362ZM15.867 15.7134C14.7267 15.1187 14.4796 14.9745 14.4796 14.6501C14.4796 14.2535 14.9361 14.0553 15.5502 14.0553C16.2698 14.0553 17.3583 14.1454 18.4288 15.1908C18.6919 14.3437 19.1305 13.5885 19.6909 12.9216C18.1835 12.0385 16.7782 11.5879 15.4982 11.5879C12.9544 11.5879 11.481 12.9937 11.481 14.6879C11.481 16.1478 12.5498 16.903 13.8137 17.5698C14.954 18.1646 15.2351 18.3629 15.2351 18.7233C15.2351 19.1198 14.7607 19.3361 14.1287 19.3361C13.0421 19.3361 11.7782 18.6332 11.0245 17.9123L10.5859 20.632C11.3557 21.2087 12.48 21.8035 14.1824 21.8035C16.814 21.8035 18.2354 20.4337 18.2354 18.6855C18.2354 17.2436 17.3224 16.4704 15.867 15.7134ZM37.9741 16.0919H34.4654L34.7464 14.3797H38.5005C38.9986 13.3511 39.7468 12.4658 40.6756 11.806H34.5352C33.1675 11.806 32.0092 12.7612 31.8141 14.0571L30.6236 21.6035H33.6061L34.0966 18.5233H37.6412L37.9043 16.8489C37.9222 16.5785 37.9401 16.3442 37.9759 16.0919H37.9741ZM60.2048 11.806C61.0104 12.4368 61.5027 13.3199 61.6083 14.3815H64.1003L62.9599 21.5854H65.9424L67.0827 14.3815H69.8558L70.2585 11.8042H60.2048V11.806Z" fill="#B2B2B2"/>
</svg>
