<svg xmlns="http://www.w3.org/2000/svg" width="213.23" height="291.32"><g data-name="Layer 2"><g data-name="Layer 1"><path d="m18.75 259.14-17.65.55A1.14 1.14 0 0 0 0 260.9l.32 4.8a1.13 1.13 0 0 0 1.14 1.06l4.8-.06 1.08 22.58a1.15 1.15 0 0 0 .38.79 1.13 1.13 0 0 0 .83.28L14 290a1.13 1.13 0 0 0 1-1.18l-.63-22.24 4.75-.06a1.13 1.13 0 0 0 1.11-1.21l-.34-5.12a1.14 1.14 0 0 0-1.14-1.05Zm20.56 1.47-5.31-.3a1.12 1.12 0 0 0-1.14 1.07l-.08 11.78-2.32.5-.59-13.36a1.13 1.13 0 0 0-1.12-1.08l-5.26.13a1.15 1.15 0 0 0-.82.34 1.14 1.14 0 0 0-.33.82l1 29.7a1.13 1.13 0 0 0 1.12 1.11l5.26-.13a1.12 1.12 0 0 0 1.14-1.14l-.58-9.95 2.07.14.36 8.9a1.12 1.12 0 0 0 .29.86 1.13 1.13 0 0 0 .81.35l5.49.38h.07a1.13 1.13 0 0 0 1.08-1.09V261.8a1.14 1.14 0 0 0-.31-.82 1.13 1.13 0 0 0-.83-.37Zm19.79-2.5-4.86.37a1.13 1.13 0 0 0-1 1.12s0 18.58 0 21c0 1.44.15 3.86-1.42 3.93-1.08 0-1.47-1.55-1.49-3.79 0-2.53.19-19.81.19-20a1.13 1.13 0 0 0-1-1.14l-5.6-.6a1.13 1.13 0 0 0-1.25 1.14s.21 21.78.23 22.54a7.91 7.91 0 0 0 8.37 7.72c6.87-.19 8.11-4.27 8.53-9 .18-2 .5-20.14.52-22.15a1.14 1.14 0 0 0-1.22-1.14Zm21.35 1.19-5 .24a1.13 1.13 0 0 0-1.07 1.21l.83 14-5.23-14.41a1.14 1.14 0 0 0-1.18-.73l-5.05.56a1.13 1.13 0 0 0-1 1.14l.83 27.5a1.13 1.13 0 0 0 1 1.12l5.07.37a1.13 1.13 0 0 0 1.21-1.19l-.79-12 4.37 12.5a1.14 1.14 0 0 0 1 .74h5.45a1.13 1.13 0 0 0 1.11-1.24l-.32-28.69a1.15 1.15 0 0 0-.36-.81 1.12 1.12 0 0 0-.87-.31Zm6.75-.58h-1.08a1.13 1.13 0 0 0-1.1 1.09l-.91 28.57a1.13 1.13 0 0 0 1 1.16s.67.05 1.67.05c3.55 0 12-.64 14-6.6 1.63-5 1.37-11.72 1-14.94-.84-6.28-5.6-9.33-14.58-9.33Zm7.55 18.82c-.61 4.83-2.11 5.13-3.77 5.7l.78-17.94a3.06 3.06 0 0 1 2.24 1.38c1.35 1.81 1.34 6.14.75 10.85Zm23.54 7-6.62.52-.31-6.19 4.29-.23a1.13 1.13 0 0 0 1.05-1l.4-3.8a1.13 1.13 0 0 0-.3-.9 1.16 1.16 0 0 0-.89-.35l-4.65.24v-6.71h6.88a1.12 1.12 0 0 0 1.14-1.13 1.09 1.09 0 0 0 0-.25l-.38-4a1.14 1.14 0 0 0-1.16-1l-12.58.31a1.13 1.13 0 0 0-1.1 1.14l.4 28.26a1.13 1.13 0 0 0 1.13 1.12h12.72a1.14 1.14 0 0 0 1.13-1.1l.1-3.69a1.14 1.14 0 0 0-.35-.85 1.16 1.16 0 0 0-.9-.41Zm20.58-16.57c-.28-4-1.66-9.23-10.28-9.23a34.34 34.34 0 0 0-6.45.72 1.14 1.14 0 0 0-.91 1.13l.39 27.64a1.13 1.13 0 0 0 1 1.11l4 .31a1.09 1.09 0 0 0 .85-.29 1.12 1.12 0 0 0 .36-.83v-8.91l2-.11 2.24 9.54a1.13 1.13 0 0 0 1.11.92h.09l4-.31a1.12 1.12 0 0 0 .81-.44 1.14 1.14 0 0 0 .22-.89l-2.81-10.62c1.94-1.53 3.77-4.26 3.37-9.76Zm-7.15 3.9a6.13 6.13 0 0 1-3.88 1.51v-8.15a5.13 5.13 0 0 1 1.09-.12c1.51 0 3.37.68 3.61 3.92a3.55 3.55 0 0 1-.83 2.82Zm22.28 4.18a22.56 22.56 0 0 0 5.35-15.92 1.13 1.13 0 0 0-1.2-1.07l-4.71.31a1.13 1.13 0 0 0-1.05 1.2c.16 2.48-1.48 7.78-3.83 11.11l.34-10.77a1.13 1.13 0 0 0-1.15-1.16l-6.07.09a1.12 1.12 0 0 0-1.11 1.15l.61 28.61a1.13 1.13 0 0 0 1.28 1.1l4.73-.63a1.13 1.13 0 0 0 1-1.11l.07-8.39c1 .58 3.77 4.66 4.25 8.69a1.13 1.13 0 0 0 1.13 1h5.07a1.13 1.13 0 0 0 1.05-1.15c-.09-1.05-1.76-9.84-5.76-13.06Zm14.12-17.6-5.39.69a1.13 1.13 0 0 0-1 1.12v28a1.13 1.13 0 0 0 1.18 1.13l5.87-.44a1.12 1.12 0 0 0 1-1.14l-.42-28.3a1.13 1.13 0 0 0-.39-.84 1.11 1.11 0 0 0-.88-.21Zm11.47.82c-1.64.11-7 1.07-7.45 9l-.17 2.87c-.33 5.37-.56 9.26.13 12.62.41 2 2.1 6.69 8.75 6.69.41 0 .84 0 1.28-.06 2.78-.23 4.83-1.12 6.12-2.65 1.83-2.17 1.58-5 1.45-6.45V281a1.13 1.13 0 0 0-1.18-1l-4.2.18a1.13 1.13 0 0 0-1.06 1.31 4.81 4.81 0 0 1-.55 3.24 1.57 1.57 0 0 1-1.32.54h-.06a1.82 1.82 0 0 1-1.42-.56c-.62-.64-1.3-2.22-1.11-6.08 0-.89.09-1.94.13-3 .11-2.88.24-6.15.51-8.21v-.07c.2-1.56.5-2.22 1.81-2.28a2.31 2.31 0 0 1 1.93.56 2.39 2.39 0 0 1 .33 1.72 1.13 1.13 0 0 0 1.1 1.35l5.06.07a1.14 1.14 0 0 0 1.15-1.09 8.28 8.28 0 0 0-2.24-5.63c-2-2.12-5.03-3.05-9.02-2.78Zm33.64 28.67c-.08-.33-2.26-8.91-6.7-13 2.18-2 6.61-6.1 5.13-15.31a1.14 1.14 0 0 0-1.24-.95l-5.85.65a1.14 1.14 0 0 0-.78.44 1.16 1.16 0 0 0-.21.86c0 .09 1.2 6.75-3.32 10.75l.11-11.35a1.13 1.13 0 0 0-1.26-1.13l-5.85.65a1.14 1.14 0 0 0-1 1.15l.68 28.42a1.13 1.13 0 0 0 .39.83 1.11 1.11 0 0 0 .78.28h.09l4.95-.55a1.13 1.13 0 0 0 1-1.06l.41-8.88c1.56 1.62 4.18 5.75 4.6 9.22a1.13 1.13 0 0 0 1.25 1l5.84-.65a1.13 1.13 0 0 0 .8-.47 1.14 1.14 0 0 0 .15-.9ZM198.16 153.64l6.84-48.07-28.75-60.33-19.56 6.7-25.52-27.37L86.07 0 76.2 36.45l-7-19.14-34.6 33.84L15.22 85l-.86 35.08-13.64-6.49L10 169.8 31.12 206l49.79 17.06 40.78 1.48 70.31-25.7 20.23-50ZM167.74 127l-39.87 1-1.44 44.85-2.15 26.55-34.73-.36v-25.45l-2.87-44.49L45 130.89l-1.41-43.05 61.35-.36 63.51-1.79 1.08 5.74Z" style="fill:#B2B2B2"/></g></g></svg>