<svg width="112" height="32" xmlns="http://www.w3.org/2000/svg"><path d="M112 0H64.796v1.826h1.612v21.626H77.11v-4.384H71.1V1.826H112V0ZM0 4.384V8.84h3.445V26.96h4.691V8.84h3.445V4.384H0Zm50.722 0v22.575h10.702v-4.384h-6.01V17.9h4.764v-4.384h-4.764V8.84h6.01V4.384H50.722Zm57.98 10.666c.952-1.096 1.466-2.557 1.466-4.091 0-3.58-2.932-6.502-6.524-6.502h-5.058v22.575h5.131c3.885 0 7.037-3.142 7.037-7.014 0-1.972-.733-3.726-2.052-4.968Zm-5.278-6.21c1.173 0 2.126.95 2.126 2.119a2.124 2.124 0 0 1-2.126 2.119h-.073V8.913h.073V8.84Zm2.712 11.178c0 1.462-1.173 2.557-2.565 2.557h-.22v-5.187h.22c1.392 0 2.565 1.17 2.565 2.63ZM20.816 4.384a8.26 8.26 0 0 1 8.284 8.255c0 2.63-1.173 4.895-3.08 6.43l3.959 7.89h-5.204l-3.005-6.137c-.367.073-.66.073-.953.073h-.367v6.064h-4.69V4.384h5.057ZM20.45 8.84V16.584h.073c2.126 0 3.885-1.753 3.885-3.872 0-2.118-1.759-3.872-3.885-3.872h-.073Zm21.257 12.274a2.124 2.124 0 0 1-2.126 2.119c-1.173 0-2.199-.95-2.199-2.119V4.384h-4.69v16.365c0 3.726 3.078 6.794 6.816 6.794s6.817-3.068 6.817-6.794V4.384h-4.692v16.73h.074Zm52.931 9.06H112V32H64.796v-1.826h14.43L84.073 7.89h5.718l4.847 22.284Zm-4.768 0-.52-2.265h-4.837l-.52 2.265h5.877ZM87.005 16.51l-1.466 6.941h2.932l-1.466-6.94Z" fill="#B2B2B2" fill-rule="evenodd"/></svg>