<svg width="126" height="33" viewBox="0 0 126 33" fill="none" xmlns="http://www.w3.org/2000/svg">
<path d="M39.0523 0.0908203H0V33.0005H39.0523V0.0908203Z" fill="#9DA0B2"/>
<path fill-rule="evenodd" clip-rule="evenodd" d="M13.9414 11.2193H17.847V8.22396L20.8747 11.161C20.6672 11.4732 19.0278 13.0153 18.5304 13.5043C17.6142 14.4051 17.7689 13.9157 17.7689 15.5972C17.7689 15.7742 17.8232 15.8276 18.0033 15.8276H21.6746V11.2193H25.1115V7.53271H13.9414V11.2193Z" fill="#FEFEFE"/>
<path fill-rule="evenodd" clip-rule="evenodd" d="M28.3065 25.5791H28.8713C28.7812 25.9596 28.4677 26.676 28.4605 26.9929H29.6416L31.0992 22.3168C31.1635 22.1286 31.2802 21.7905 31.2848 21.5903C29.7397 21.5903 30.2218 21.3505 29.6865 22.9977C29.59 23.2947 29.2507 24.3337 29.2307 24.5693C29.2236 24.5592 29.2141 24.5305 29.2116 24.5377L28.5814 22.2794C28.339 21.4636 28.6172 21.5904 27.3307 21.5904C27.0765 21.5904 27.2919 21.9675 27.4337 22.4989C27.5271 22.8492 27.614 23.1685 27.7193 23.5309C27.8241 23.892 27.9167 24.2022 28.009 24.5588C28.0679 24.7865 28.2128 25.3876 28.3063 25.5791H28.3065Z" fill="#FEFEFE"/>
<path fill-rule="evenodd" clip-rule="evenodd" d="M14.8018 21.742V24.2665C14.8018 25.4633 16.0332 25.9396 16.8733 25.5459C17.0913 25.4437 17.1915 25.2924 17.3694 25.1753V25.5793H18.4477V21.742C18.4477 21.5009 18.104 21.5905 17.472 21.5905C17.235 21.5905 17.3179 21.9624 17.3179 22.3984C17.3179 22.735 17.3179 23.0717 17.3179 23.4082C17.318 23.8262 17.3909 24.6705 16.5991 24.6705C15.7078 24.6705 15.9314 23.4741 15.9314 22.4489C15.9314 21.4074 16.1378 21.5905 14.9558 21.5905C14.8374 21.5905 14.8018 21.6257 14.8018 21.742Z" fill="#FEFEFE"/>
<path fill-rule="evenodd" clip-rule="evenodd" d="M7.7666 21.2368H9.35854V25.579H10.5396V21.2368H12.1315V20.126H7.7666V21.2368Z" fill="#FEFEFE"/>
<path fill-rule="evenodd" clip-rule="evenodd" d="M19.8341 24.2158C19.5849 24.2729 19.0533 24.3763 18.8584 24.4683C19.2765 26.2329 22.2989 25.9409 22.2989 24.3673C22.2989 22.8129 20.1117 23.2993 20.0395 22.7516C20.0082 22.5144 20.5507 22.2479 20.997 22.5169C21.1414 22.604 21.204 22.7075 21.2206 22.903C21.5124 22.8362 22.0157 22.76 22.2476 22.6506C22.1582 22.4675 22.1659 22.3655 22.0446 22.1939C21.3701 21.2397 19.5233 21.3801 19.0646 22.2476C18.9303 22.5016 18.8995 22.808 18.9744 23.1418C19.0389 23.4294 19.2331 23.6486 19.4944 23.7925C20.068 24.1086 21.0741 24.0326 21.153 24.3873C21.2203 24.6902 20.7485 24.7876 20.4787 24.7469C19.9305 24.6641 19.966 24.4634 19.8341 24.2158Z" fill="#FEFEFE"/>
<path fill-rule="evenodd" clip-rule="evenodd" d="M23.1715 20.7331V21.5914C22.3423 21.5914 22.5039 21.4064 22.5039 22.6012H23.1715V24.5704C23.1715 25.7162 24.5158 25.5802 25.1742 25.5802C25.1742 24.368 25.2969 24.5704 24.4552 24.5704C24.3844 24.4664 24.3012 24.4394 24.3012 24.318V22.6013H25.1229C25.1229 21.3847 25.3168 21.5914 24.3012 21.5914V20.4302L23.1715 20.7331V20.7331Z" fill="#FEFEFE"/>
<path fill-rule="evenodd" clip-rule="evenodd" d="M25.7393 25.579H26.8689V20.2775C26.8689 20.1611 26.8333 20.126 26.7149 20.126H25.7393V25.579V25.579Z" fill="#FEFEFE"/>
<path fill-rule="evenodd" clip-rule="evenodd" d="M11.9258 21.7404V25.5777H13.0555V23.7095C13.0555 22.7387 13.749 22.6997 14.3392 22.6997C14.3392 22.3412 14.4179 21.5889 14.2366 21.5889C13.6954 21.5889 13.3692 21.6406 13.1174 22.0032L13.0751 22.0627C12.974 22.1948 13.0869 22.0505 13.0041 22.1443C13.0041 21.4936 13.1722 21.5889 12.0798 21.5889C11.9614 21.5889 11.9258 21.624 11.9258 21.7404V21.7404Z" fill="#FEFEFE"/>
<path d="M73.6455 0H40.124V32.9598H73.6455V0Z" fill="#9DA0B2"/>
<path fill-rule="evenodd" clip-rule="evenodd" d="M66.816 21.317L71.0638 4.14893H67.8113L65.4042 14.7815L64.3847 10.569H61.0674L63.9235 21.317H66.816Z" fill="white"/>
<path fill-rule="evenodd" clip-rule="evenodd" d="M46.2238 21.3807H49.6504V9.90881H51.6489V6.34863H43.9785V9.94461H46.2238V21.3807Z" fill="white"/>
<path d="M55.7722 6.34863H52.3779V9.90868H55.7722V6.34863Z" fill="white"/>
<path d="M60.5378 6.34863H57.1436V9.90868H60.5378V6.34863Z" fill="white"/>
<path fill-rule="evenodd" clip-rule="evenodd" d="M55.4563 21.3899H60.5375V10.5703H57.1109V18.1043H56.4839C55.8932 18.1043 55.78 17.798 55.78 17.4122V10.5704H52.3574V18.0685C52.3574 20.5267 53.5711 21.3899 55.4563 21.3899L55.4563 21.3899Z" fill="white"/>
<path fill-rule="evenodd" clip-rule="evenodd" d="M48.1822 23.1046L47.2559 28.0568H48.0933L48.247 26.9589H49.1937L49.3474 28.0568H50.1888L49.2583 23.1045L48.1822 23.1046H48.1821H48.1822ZM48.3723 26.2191L48.7161 24.0909L49.0559 26.2191H48.3722H48.3723Z" fill="white"/>
<path fill-rule="evenodd" clip-rule="evenodd" d="M60.853 23.1045L59.9307 28.0568H60.768L60.9217 26.9589H61.8684L62.0221 28.0568H62.8758L61.9331 23.1045H60.853H60.853ZM61.0431 26.219L61.3829 24.0909L61.7228 26.219H61.0431Z" fill="white"/>
<path fill-rule="evenodd" clip-rule="evenodd" d="M58.2104 23.1045H57.3447V28.0568H59.5697V27.3169H58.2104V23.1045Z" fill="white"/>
<path fill-rule="evenodd" clip-rule="evenodd" d="M67.9857 23.1045H66.6992V28.0568H67.9857C68.8798 28.0568 69.3531 27.5795 69.3531 26.5611V24.6001C69.349 23.5659 68.8798 23.1045 67.9857 23.1045ZM68.4874 26.6844C68.4874 27.2056 68.3255 27.3765 67.8684 27.3765H67.5649V23.8046H67.8684C68.3255 23.8046 68.4874 23.9756 68.4874 24.4967V26.6844V26.6844Z" fill="white"/>
<path fill-rule="evenodd" clip-rule="evenodd" d="M45.1677 24.2612C45.1677 23.955 45.3215 23.7759 45.6006 23.7759C45.7949 23.7759 46.0254 23.8992 46.0618 24.3248L46.8709 24.2333C46.7941 23.5333 46.3733 23.04 45.6572 23.04C44.8037 23.04 44.3182 23.4855 44.3182 24.2771C44.3182 25.6972 46.074 25.9597 46.074 26.9382C46.0741 26.941 46.0742 26.944 46.0742 26.9469C46.0742 27.1886 45.8749 27.3845 45.6292 27.3845C45.6198 27.3845 45.6102 27.3841 45.6007 27.3836C45.3217 27.3836 45.1193 27.137 45.087 26.6357L44.2656 26.7473C44.3021 27.4871 44.7592 28.1196 45.5643 28.1196C45.6092 28.1243 45.6545 28.1268 45.6997 28.1268C46.3811 28.1268 46.9336 27.5836 46.9336 26.9137C46.9336 26.8914 46.933 26.8687 46.9317 26.8468C46.9276 25.5103 45.1677 25.1046 45.1677 24.2612Z" fill="white"/>
<path fill-rule="evenodd" clip-rule="evenodd" d="M51.4634 23.1045L50.5371 28.0568H51.3744L51.5485 26.9589H52.4951L52.6488 28.0568H53.4862L52.5396 23.1045H51.4634H51.4634H51.4634ZM51.6536 26.219L51.9935 24.0909L52.3575 26.219H51.6536Z" fill="white"/>
<path fill-rule="evenodd" clip-rule="evenodd" d="M65.2342 25.9367H65.2221L64.1663 23.1045H63.3652V28.0568H64.1461V24.9621H64.1622L65.2626 28.0568H66.0191V23.1045H65.2342V25.9367Z" fill="white"/>
<path d="M54.0963 28.0537C54.0631 28.0537 54.0348 28.037 54.0115 28.0038C53.9882 27.9705 53.9766 27.9302 53.9766 27.8827V23.244C53.9766 23.1917 53.9874 23.149 54.009 23.1157C54.0306 23.0825 54.0597 23.0659 54.0963 23.0659H55.3888C55.798 23.0659 56.1183 23.2012 56.3495 23.472C56.5807 23.7428 56.6963 24.1276 56.6963 24.6263C56.6963 24.9731 56.638 25.264 56.5216 25.4992C56.4051 25.7343 56.2422 25.9042 56.0326 26.0086L56.7562 27.8257C56.7661 27.8542 56.7712 27.8803 56.7712 27.904C56.7712 27.9468 56.7603 27.9824 56.7387 28.0109C56.7171 28.0394 56.693 28.0537 56.6663 28.0537H56.2073C56.1541 28.0537 56.1124 28.0358 56.0825 28.0002C56.0526 27.9646 56.026 27.9182 56.0026 27.8612L55.3639 26.1724H54.6801V27.8826C54.6801 27.9301 54.6685 27.9705 54.6452 28.0037C54.6219 28.037 54.592 28.0535 54.5553 28.0535H54.0962L54.0963 28.0537ZM55.374 25.3601C55.5735 25.3601 55.7232 25.2972 55.8231 25.1713C55.9229 25.0455 55.9728 24.8614 55.9728 24.6192C55.9728 24.3769 55.9229 24.1905 55.8231 24.0598C55.7233 23.9292 55.5735 23.8638 55.374 23.8638H54.6803V25.3601H55.374Z" fill="#FEFEFE"/>
<path d="M79.761 9.18003C79.2191 9.18003 78.798 9.01608 78.4976 8.68819C78.1973 8.3603 78.0372 7.90307 78.0176 7.31651C78.0137 7.18259 78.0117 6.9678 78.0117 6.67226C78.0117 6.37666 78.0137 6.16193 78.0176 6.02802C78.0333 5.45531 78.1943 5.00617 78.5006 4.6806C78.8069 4.35503 79.227 4.19221 79.761 4.19221C80.1223 4.19221 80.4336 4.26494 80.6947 4.41039C80.9558 4.5559 81.1531 4.73602 81.2867 4.95075C81.4202 5.16547 81.4908 5.37675 81.4987 5.58458C81.4987 5.62621 81.4869 5.66082 81.4634 5.68846C81.4398 5.71617 81.4084 5.73003 81.3691 5.73003H80.7507C80.7114 5.73003 80.682 5.72082 80.6624 5.70232C80.6427 5.68389 80.6251 5.65379 80.6093 5.61223C80.5544 5.44132 80.4582 5.29587 80.3208 5.17581C80.1834 5.05576 79.9968 4.99569 79.7612 4.99569C79.4863 4.99569 79.2713 5.08227 79.1163 5.2555C78.9612 5.42866 78.8796 5.69768 78.8718 6.06256C78.8679 6.19647 78.8659 6.39966 78.8659 6.6722C78.8659 6.94009 78.8679 7.14322 78.8718 7.28184C78.8797 7.65593 78.9621 7.93185 79.1192 8.10965C79.2762 8.28745 79.4923 8.37628 79.7671 8.37628C80.0459 8.37628 80.2697 8.28857 80.4386 8.11309C80.6074 7.93761 80.6918 7.67429 80.6918 7.32334V7.10861H79.9732C79.9339 7.10861 79.9005 7.09243 79.873 7.06015C79.8456 7.0278 79.8318 6.98855 79.8318 6.94241V6.56142C79.8318 6.51521 79.8456 6.47597 79.873 6.44368C79.9004 6.41133 79.9339 6.39516 79.9732 6.39516H81.3868C81.43 6.39516 81.4653 6.41133 81.4929 6.44368C81.5203 6.47597 81.5341 6.51521 81.5341 6.56142V7.29569C81.5341 7.67894 81.4615 8.01266 81.3161 8.29673C81.1708 8.5808 80.9647 8.79897 80.6977 8.95131C80.4307 9.10372 80.1184 9.17996 79.7611 9.17996L79.761 9.18003ZM97.6794 25.4814C97.851 25.4814 97.9902 25.6182 97.9902 25.787C97.9902 25.9557 97.851 26.0926 97.6794 26.0926C97.5077 26.0926 97.3686 25.9557 97.3686 25.787C97.3686 25.6182 97.5077 25.4814 97.6794 25.4814ZM96.5412 25.4814C96.7128 25.4814 96.852 25.6182 96.852 25.787C96.852 25.9557 96.7128 26.0926 96.5412 26.0926C96.3696 26.0926 96.2304 25.9557 96.2304 25.787C96.2304 25.6182 96.3696 25.4814 96.5412 25.4814ZM93.9603 3.90967C94.2541 3.90967 94.4923 4.14382 94.4923 4.43266C94.4923 4.7215 94.2541 4.95565 93.9603 4.95565C93.6666 4.95565 93.4284 4.7215 93.4284 4.43266C93.4284 4.14382 93.6666 3.90967 93.9603 3.90967ZM92.3506 3.90967C92.6444 3.90967 92.8825 4.14382 92.8825 4.43266C92.8825 4.7215 92.6444 4.95565 92.3506 4.95565C92.0568 4.95565 91.8187 4.7215 91.8187 4.43266C91.8187 4.14382 92.0568 3.90967 92.3506 3.90967ZM79.9106 28.7225C79.6894 28.7225 79.5001 28.6834 79.3427 28.6054C79.1854 28.5273 79.0661 28.4247 78.985 28.2974C78.9039 28.1702 78.8608 28.0315 78.8559 27.881C78.8559 27.8579 78.8633 27.837 78.8781 27.8182C78.8928 27.7994 78.9112 27.79 78.9334 27.79H79.269C79.2961 27.79 79.3182 27.7972 79.3354 27.8117C79.3526 27.8262 79.3686 27.8464 79.3834 27.8724C79.4079 27.9707 79.4639 28.0531 79.5512 28.1196C79.6385 28.1861 79.7583 28.2194 79.9108 28.2194C80.0828 28.2194 80.2126 28.1854 80.2999 28.1174C80.3871 28.0495 80.4308 27.9563 80.4308 27.8377C80.4308 27.7597 80.4086 27.6946 80.3644 27.6425C80.3202 27.5905 80.2531 27.5449 80.1634 27.5059C80.0737 27.4668 79.9403 27.4198 79.7632 27.3649C79.4731 27.284 79.2605 27.177 79.1252 27.044C78.99 26.911 78.9224 26.7202 78.9224 26.4714C78.9224 26.3037 78.9617 26.1542 79.0404 26.0226C79.1191 25.891 79.2316 25.7877 79.3779 25.7124C79.5241 25.6373 79.6944 25.5996 79.8887 25.5996C80.0927 25.5996 80.2691 25.6416 80.4179 25.7254C80.5666 25.8092 80.6797 25.9141 80.7571 26.0399C80.8346 26.1656 80.8757 26.2907 80.8807 26.415C80.8807 26.4381 80.8733 26.459 80.8585 26.4779C80.8438 26.4968 80.8254 26.5061 80.8033 26.5061H80.4528C80.3988 26.5061 80.3619 26.4801 80.3422 26.4281C80.3299 26.3355 80.282 26.2581 80.1984 26.1961C80.1147 26.1339 80.0116 26.1028 79.8886 26.1028C79.7533 26.1028 79.647 26.1331 79.5695 26.1939C79.4921 26.2545 79.4534 26.3428 79.4534 26.4584C79.4534 26.5365 79.4731 26.6016 79.5124 26.6536C79.5517 26.7056 79.6132 26.7511 79.6968 26.7902C79.7804 26.8293 79.9021 26.8733 80.0619 26.9225C80.2807 26.9803 80.4547 27.0453 80.5838 27.1177C80.7128 27.1899 80.8081 27.281 80.8695 27.3909C80.931 27.5007 80.9618 27.6411 80.9618 27.8116C80.9618 27.9996 80.9181 28.1622 80.8309 28.2996C80.7436 28.4369 80.6207 28.5417 80.462 28.614C80.3034 28.6862 80.1197 28.7224 79.9107 28.7224L79.9106 28.7225ZM81.6772 29.5033C81.6575 29.5033 81.6397 29.4946 81.6238 29.4773C81.6078 29.4599 81.5998 29.4397 81.5998 29.4165C81.5998 29.3963 81.6048 29.3732 81.6146 29.3471L81.9058 28.5448L81.1978 26.58C81.188 26.554 81.183 26.5337 81.183 26.5192C81.1855 26.4932 81.1941 26.4708 81.2089 26.452C81.2236 26.4332 81.242 26.4238 81.2642 26.4238H81.5703C81.6145 26.4238 81.6464 26.4513 81.6661 26.5062L82.1566 27.9202L82.6544 26.5062C82.679 26.4513 82.7134 26.4238 82.7578 26.4238H83.0565C83.0787 26.4238 83.0971 26.4325 83.1118 26.4498C83.1265 26.4672 83.1339 26.4874 83.1339 26.5105C83.1339 26.5308 83.129 26.5539 83.1192 26.5799L82.0755 29.4209C82.0558 29.4757 82.0214 29.5033 81.9722 29.5033H81.6771H81.6772ZM84.1223 28.7225C83.9355 28.7225 83.7793 28.6892 83.6539 28.6227C83.5285 28.5562 83.4357 28.4789 83.3755 28.3907C83.3152 28.3025 83.2851 28.2266 83.2851 28.163C83.2851 28.1341 83.2931 28.111 83.3091 28.0937C83.325 28.0763 83.3441 28.0676 83.3663 28.0676H83.6687C83.6884 28.0676 83.7056 28.0792 83.7203 28.1023C83.7326 28.1139 83.7602 28.1413 83.8033 28.1847C83.8463 28.228 83.8956 28.262 83.9509 28.2866C84.0061 28.3112 84.067 28.3235 84.1334 28.3235C84.2317 28.3235 84.3116 28.3011 84.3732 28.2563C84.4346 28.2115 84.4654 28.1471 84.4654 28.0632C84.4654 28.0054 84.4513 27.9584 84.4229 27.9223C84.3947 27.8862 84.3443 27.8529 84.2717 27.8225C84.1992 27.7921 84.0904 27.7581 83.9454 27.7205C83.7364 27.6685 83.5821 27.589 83.4826 27.482C83.3831 27.375 83.3333 27.2333 83.3333 27.0569C83.3333 26.9413 83.3627 26.8321 83.4217 26.7295C83.4807 26.6268 83.5686 26.543 83.6855 26.4779C83.8022 26.4128 83.9417 26.3803 84.104 26.3803C84.2712 26.3803 84.415 26.4114 84.5355 26.4736C84.656 26.5358 84.7476 26.6103 84.8103 26.697C84.873 26.7837 84.9043 26.8603 84.9043 26.9269C84.9043 26.9529 84.8963 26.9753 84.8803 26.9941C84.8644 27.0129 84.8453 27.0223 84.8231 27.0223H84.5466C84.5196 27.0223 84.4986 27.0107 84.4838 26.9876C84.4666 26.9732 84.439 26.9464 84.4008 26.9074C84.3627 26.8683 84.3203 26.8372 84.2736 26.8141C84.2269 26.791 84.1703 26.7794 84.104 26.7794C84.0131 26.7794 83.943 26.8026 83.8938 26.8488C83.8447 26.8951 83.82 26.9558 83.82 27.031C83.82 27.0829 83.8318 27.1263 83.8551 27.1611C83.8784 27.1958 83.9258 27.2283 83.9971 27.2587C84.0684 27.289 84.1753 27.3201 84.318 27.352C84.7605 27.4531 84.9818 27.6801 84.9818 28.0329C84.9818 28.2382 84.9062 28.4044 84.755 28.5317C84.6038 28.659 84.3929 28.7226 84.1226 28.7226V28.7226L84.1223 28.7225ZM86.2207 28.6792C85.9969 28.6792 85.8286 28.6105 85.7155 28.4731C85.6024 28.3358 85.5458 28.1341 85.5458 27.8681V26.8878H85.2545C85.2299 26.8878 85.209 26.8778 85.1918 26.8575C85.1746 26.8372 85.166 26.8127 85.166 26.7837V26.5278C85.166 26.4989 85.1746 26.4743 85.1918 26.4541C85.209 26.4339 85.2299 26.4236 85.2545 26.4236H85.5458V25.7037C85.5458 25.6719 85.5544 25.6466 85.5716 25.6278C85.5888 25.609 85.6098 25.5995 85.6343 25.5995H85.9404C85.9675 25.5995 85.9891 25.609 86.005 25.6278C86.021 25.6466 86.029 25.6718 86.029 25.7037V26.4236H86.4899C86.5145 26.4236 86.5355 26.4339 86.5526 26.4541C86.5699 26.4743 86.5785 26.4989 86.5785 26.5278V26.7837C86.5785 26.8127 86.5699 26.8372 86.5526 26.8575C86.5355 26.8778 86.5146 26.8878 86.4899 26.8878H86.029V27.8205C86.029 27.9448 86.0474 28.0387 86.0843 28.1023C86.1212 28.166 86.1813 28.1977 86.265 28.1977H86.5231C86.5502 28.1977 86.5717 28.2071 86.5876 28.226C86.6036 28.2448 86.6116 28.27 86.6116 28.3019V28.5751C86.6116 28.604 86.6036 28.6286 86.5876 28.6489C86.5716 28.6691 86.5502 28.6793 86.5231 28.6793H86.2207V28.6792ZM87.7696 28.7225C87.4943 28.7225 87.2761 28.63 87.1151 28.4449C86.9541 28.2598 86.8686 27.9967 86.8588 27.6555L86.8551 27.5471C86.8551 27.1856 86.9357 26.9008 87.0967 26.6927C87.2577 26.4844 87.4808 26.3804 87.7661 26.3804C88.0586 26.3804 88.2843 26.4844 88.4428 26.6927C88.6014 26.9008 88.6807 27.1785 88.6807 27.5254V27.6165C88.6807 27.6454 88.672 27.67 88.6548 27.6903C88.6376 27.7105 88.6155 27.7206 88.5884 27.7206H87.364V27.7554C87.3689 27.9173 87.4064 28.051 87.4766 28.1566C87.5466 28.2621 87.6431 28.3149 87.7661 28.3149C87.9062 28.3149 88.0205 28.2483 88.109 28.1153C88.1312 28.0835 88.1484 28.064 88.1606 28.0567C88.173 28.0495 88.1939 28.0459 88.2233 28.0459H88.5479C88.5701 28.0459 88.5891 28.0531 88.6051 28.0676C88.6211 28.082 88.6291 28.1023 88.6291 28.1283C88.6291 28.1977 88.594 28.2794 88.524 28.3734C88.4539 28.4673 88.3537 28.549 88.2233 28.6184C88.0931 28.6878 87.9419 28.7225 87.7698 28.7225H87.7696ZM88.1716 27.352V27.3433C88.1716 27.1726 88.1353 27.036 88.0629 26.9333C87.9903 26.8307 87.8914 26.7794 87.766 26.7794C87.6406 26.7794 87.5422 26.8307 87.4709 26.9333C87.3996 27.036 87.364 27.1726 87.364 27.3433V27.352H88.1716ZM89.1601 28.6792C89.1355 28.6792 89.1146 28.669 89.0974 28.6488C89.0802 28.6285 89.0715 28.6039 89.0715 28.575V26.5278C89.0715 26.496 89.0802 26.4707 89.0974 26.4519C89.1146 26.4331 89.1354 26.4236 89.1601 26.4236H89.4514C89.4785 26.4236 89.5 26.4331 89.516 26.4519C89.5319 26.4707 89.5399 26.496 89.5399 26.5278V26.6753C89.6727 26.4787 89.8509 26.3804 90.0746 26.3804C90.3475 26.3804 90.5381 26.5091 90.6463 26.7664C90.7053 26.6507 90.7889 26.5575 90.897 26.4866C91.0052 26.4158 91.1219 26.3804 91.2473 26.3804C91.449 26.3804 91.6137 26.4613 91.7416 26.6233C91.8694 26.7852 91.9333 27.0208 91.9333 27.3303V28.5751C91.9333 28.604 91.9253 28.6286 91.9094 28.6489C91.8933 28.6691 91.8718 28.6792 91.8448 28.6792H91.5388C91.5142 28.6792 91.4933 28.6691 91.476 28.6489C91.4589 28.6286 91.4502 28.604 91.4502 28.5751V27.3649C91.4502 27.1828 91.4177 27.0512 91.3525 26.9703C91.2873 26.8894 91.2018 26.8488 91.0962 26.8488C91.0003 26.8488 90.9186 26.89 90.851 26.9724C90.7834 27.0548 90.7496 27.1856 90.7496 27.3649V28.5751C90.7496 28.604 90.7415 28.6286 90.7256 28.6489C90.7096 28.6691 90.6881 28.6792 90.6611 28.6792H90.3513C90.3267 28.6792 90.3058 28.6691 90.2885 28.6489C90.2713 28.6286 90.2627 28.604 90.2627 28.5751V27.3649C90.2627 27.1856 90.2295 27.0548 90.1632 26.9724C90.0968 26.89 90.0119 26.8488 89.9087 26.8488C89.8128 26.8488 89.7311 26.89 89.6635 26.9724C89.5959 27.0548 89.562 27.1856 89.562 27.3649V28.5751C89.562 28.604 89.554 28.6286 89.5381 28.6489C89.522 28.6691 89.5006 28.6792 89.4736 28.6792H89.1601V28.6792ZM92.4939 29.5033C92.4694 29.5033 92.4484 29.4939 92.4312 29.4751C92.414 29.4563 92.4054 29.4311 92.4054 29.3992V26.5279C92.4054 26.4961 92.414 26.4708 92.4312 26.452C92.4484 26.4331 92.4693 26.4237 92.4939 26.4237H92.789C92.816 26.4237 92.8381 26.4339 92.8554 26.4541C92.8726 26.4744 92.8812 26.499 92.8812 26.5279V26.7014C93.0115 26.4874 93.207 26.3804 93.4676 26.3804C93.716 26.3804 93.9065 26.4722 94.0392 26.6559C94.172 26.8395 94.2433 27.0861 94.2531 27.3954C94.2556 27.4301 94.2569 27.4822 94.2569 27.5516C94.2569 27.6209 94.2556 27.6731 94.2531 27.7078C94.2458 28.0113 94.1751 28.2564 94.0411 28.443C93.9071 28.6294 93.716 28.7227 93.4676 28.7227C93.2217 28.7227 93.0337 28.62 92.9034 28.4148V29.3993C92.9034 29.4311 92.8954 29.4565 92.8795 29.4753C92.8634 29.494 92.842 29.5035 92.8149 29.5035H92.494L92.4939 29.5033ZM93.3274 28.2541C93.5905 28.2541 93.7306 28.0633 93.7478 27.6816C93.7503 27.6527 93.7516 27.6093 93.7516 27.5514C93.7516 27.4936 93.7503 27.4503 93.7478 27.4213C93.7306 27.0396 93.5905 26.8487 93.3274 26.8487C93.1873 26.8487 93.0828 26.9023 93.0139 27.0092C92.9451 27.1161 92.9082 27.2463 92.9033 27.3996C92.9008 27.4343 92.8996 27.4892 92.8996 27.5644C92.8996 27.6396 92.9008 27.696 92.9033 27.7335C92.9082 27.8782 92.9463 28.001 93.0176 28.1022C93.0889 28.2034 93.1922 28.254 93.3274 28.254V28.2541ZM94.7547 28.6792C94.7302 28.6792 94.7092 28.669 94.692 28.6488C94.6747 28.6285 94.6661 28.6039 94.6661 28.575V26.5321C94.6661 26.5003 94.6747 26.4743 94.692 26.4541C94.7092 26.4339 94.7301 26.4236 94.7547 26.4236H95.0571C95.0841 26.4236 95.1063 26.4339 95.1234 26.4541C95.1407 26.4743 95.1493 26.5003 95.1493 26.5321V26.71C95.2723 26.519 95.4492 26.4236 95.6804 26.4236H95.8352C95.8623 26.4236 95.8838 26.4331 95.8998 26.4519C95.9157 26.4707 95.9237 26.496 95.9237 26.5278V26.8445C95.9237 26.8733 95.9157 26.898 95.8998 26.9182C95.8837 26.9384 95.8623 26.9486 95.8352 26.9486H95.5439C95.4283 26.9486 95.3374 26.9876 95.271 27.0656C95.2046 27.1437 95.1715 27.2507 95.1715 27.3866V28.575C95.1715 28.6039 95.1628 28.6285 95.1456 28.6488C95.1284 28.669 95.1075 28.6792 95.0829 28.6792H94.7547ZM96.9232 28.7225C96.697 28.7225 96.5188 28.6357 96.3884 28.4622C96.2582 28.2888 96.193 28.0502 96.193 27.7466V26.5278C96.193 26.496 96.2016 26.4707 96.2189 26.4519C96.2361 26.4331 96.2569 26.4236 96.2816 26.4236H96.6134C96.638 26.4236 96.6589 26.4339 96.6761 26.4541C96.6934 26.4743 96.702 26.4989 96.702 26.5278V27.7205C96.702 28.0763 96.8335 28.2541 97.0966 28.2541C97.2245 28.2541 97.3259 28.2064 97.4009 28.111C97.4759 28.0156 97.5134 27.8854 97.5134 27.7205V26.5278C97.5134 26.496 97.522 26.4707 97.5392 26.4519C97.5564 26.4331 97.5773 26.4236 97.6019 26.4236H97.9302C97.9572 26.4236 97.9787 26.4331 97.9947 26.4519C98.0107 26.4707 98.0186 26.496 98.0186 26.5278V28.575C98.0186 28.6039 98.0107 28.6285 97.9947 28.6488C97.9786 28.669 97.9572 28.6792 97.9302 28.6792H97.6241C97.5995 28.6792 97.5786 28.669 97.5614 28.6488C97.5441 28.6285 97.5355 28.6039 97.5355 28.575V28.3972C97.4003 28.6141 97.1962 28.7225 96.9233 28.7225H96.9232ZM98.8004 28.6792C98.7759 28.6792 98.7549 28.669 98.7377 28.6488C98.7205 28.6285 98.7119 28.6039 98.7119 28.575V26.8878H98.4132C98.3886 26.8878 98.3677 26.8777 98.3505 26.8574C98.3332 26.8372 98.3246 26.8126 98.3246 26.7837V26.5277C98.3246 26.4988 98.3332 26.4742 98.3505 26.454C98.3677 26.4338 98.3886 26.4236 98.4132 26.4236H98.7119V26.2501C98.7119 25.987 98.7721 25.7911 98.8926 25.6624C99.013 25.5337 99.195 25.4693 99.4384 25.4693H99.6929C99.7175 25.4693 99.7384 25.4795 99.7556 25.4998C99.7728 25.52 99.7815 25.5446 99.7815 25.5735V25.8294C99.7815 25.8583 99.7728 25.8829 99.7556 25.9032C99.7384 25.9234 99.7175 25.9335 99.6929 25.9335H99.4569C99.361 25.9335 99.2934 25.961 99.254 26.0159C99.2146 26.0709 99.1951 26.1562 99.1951 26.2719V26.4236H99.6561C99.6806 26.4236 99.7016 26.4339 99.7188 26.4541C99.736 26.4743 99.7446 26.4989 99.7446 26.5278V26.7837C99.7446 26.8127 99.736 26.8372 99.7188 26.8575C99.7016 26.8778 99.6807 26.8878 99.6561 26.8878H99.1951V28.5751C99.1951 28.604 99.1871 28.6286 99.1711 28.6489C99.1552 28.6691 99.1336 28.6792 99.1066 28.6792H98.8005L98.8004 28.6792ZM100.748 28.7225C100.522 28.7225 100.343 28.6357 100.213 28.4622C100.083 28.2888 100.018 28.0502 100.018 27.7466V26.5278C100.018 26.496 100.026 26.4707 100.043 26.4519C100.061 26.4331 100.081 26.4236 100.106 26.4236H100.438C100.463 26.4236 100.483 26.4339 100.501 26.4541C100.518 26.4743 100.526 26.4989 100.526 26.5278V27.7205C100.526 28.0763 100.658 28.2541 100.921 28.2541C101.049 28.2541 101.15 28.2064 101.225 28.111C101.3 28.0156 101.338 27.8854 101.338 27.7205V26.5278C101.338 26.496 101.346 26.4707 101.364 26.4519C101.381 26.4331 101.402 26.4236 101.426 26.4236H101.755C101.782 26.4236 101.803 26.4331 101.819 26.4519C101.835 26.4707 101.843 26.496 101.843 26.5278V28.575C101.843 28.6039 101.835 28.6285 101.819 28.6488C101.803 28.669 101.782 28.6792 101.755 28.6792H101.449C101.424 28.6792 101.403 28.669 101.386 28.6488C101.369 28.6285 101.36 28.6039 101.36 28.575V28.3972C101.225 28.6141 101.021 28.7225 100.748 28.7225H100.748ZM102.418 28.6792C102.394 28.6792 102.373 28.669 102.355 28.6488C102.338 28.6285 102.33 28.6039 102.33 28.575V26.5278C102.33 26.496 102.338 26.4707 102.355 26.4519C102.373 26.4331 102.394 26.4236 102.418 26.4236H102.724C102.751 26.4236 102.773 26.4331 102.789 26.4519C102.805 26.4707 102.813 26.496 102.813 26.5278V26.7056C102.963 26.4887 103.168 26.3803 103.429 26.3803C103.655 26.3803 103.834 26.4671 103.967 26.6406C104.1 26.814 104.166 27.0526 104.166 27.3562V28.575C104.166 28.6039 104.158 28.6285 104.142 28.6488C104.126 28.669 104.105 28.6792 104.078 28.6792H103.746C103.721 28.6792 103.7 28.669 103.683 28.6488C103.666 28.6285 103.657 28.6039 103.657 28.575V27.3823C103.657 27.2145 103.622 27.0837 103.552 26.9897C103.482 26.8957 103.382 26.8487 103.252 26.8487C103.126 26.8487 103.025 26.8965 102.949 26.9918C102.873 27.0872 102.835 27.2174 102.835 27.3823V28.575C102.835 28.6039 102.827 28.6285 102.811 28.6488C102.795 28.669 102.773 28.6792 102.746 28.6792H102.418ZM105.501 29.6334C105.283 29.6334 105.105 29.5908 104.97 29.5054C104.835 29.4201 104.739 29.3225 104.683 29.2126C104.626 29.1028 104.598 29.0088 104.598 28.9307C104.598 28.9018 104.606 28.878 104.624 28.8591C104.641 28.8403 104.662 28.8309 104.686 28.8309H105.015C105.037 28.8309 105.056 28.8374 105.072 28.8505C105.088 28.8635 105.101 28.8873 105.11 28.9221C105.137 28.9972 105.178 29.0615 105.232 29.1151C105.286 29.1686 105.37 29.1953 105.483 29.1953C105.63 29.1953 105.739 29.157 105.807 29.0804C105.876 29.0037 105.911 28.87 105.911 28.6792V28.3842C105.778 28.5693 105.59 28.6618 105.347 28.6618C105.091 28.6618 104.898 28.5707 104.769 28.3885C104.64 28.2064 104.571 27.9577 104.561 27.6425L104.557 27.5254L104.561 27.4083C104.571 27.0989 104.641 26.8502 104.771 26.6624C104.901 26.4744 105.093 26.3804 105.346 26.3804C105.477 26.3804 105.591 26.4093 105.689 26.4671C105.788 26.5249 105.869 26.603 105.933 26.7013V26.5322C105.933 26.5004 105.942 26.4744 105.961 26.4541C105.979 26.4339 106.001 26.4237 106.025 26.4237H106.327C106.352 26.4237 106.373 26.4339 106.39 26.4541C106.407 26.4744 106.416 26.5004 106.416 26.5322L106.42 28.6227C106.42 28.9437 106.343 29.1924 106.191 29.3687C106.038 29.5451 105.809 29.6333 105.501 29.6333V29.6334ZM105.487 28.2021C105.624 28.2021 105.728 28.1501 105.796 28.046C105.865 27.9419 105.903 27.8146 105.911 27.6643C105.913 27.6411 105.914 27.5949 105.914 27.5254C105.914 27.456 105.913 27.4098 105.911 27.3866C105.903 27.2362 105.865 27.1091 105.796 27.0049C105.728 26.9008 105.624 26.8487 105.487 26.8487C105.221 26.8487 105.081 27.0396 105.066 27.4213L105.062 27.5254C105.062 27.9764 105.204 28.202 105.487 28.202V28.2021ZM78.6982 15.8069C78.6549 15.8069 78.6206 15.7907 78.595 15.7584C78.5695 15.7261 78.5568 15.6845 78.5568 15.6337V15.1419C78.5568 15.0818 78.5656 15.0334 78.5833 14.9964C78.6009 14.9595 78.6215 14.9225 78.6451 14.8855L80.689 11.789H78.757C78.7177 11.789 78.6843 11.7728 78.6568 11.7406C78.6293 11.7082 78.6156 11.6666 78.6156 11.6158V11.1309C78.6156 11.0801 78.6283 11.0385 78.6539 11.0062C78.6794 10.9739 78.7138 10.9577 78.757 10.9577H81.5784C81.6216 10.9577 81.6569 10.9739 81.6845 11.0062C81.7119 11.0384 81.7257 11.0801 81.7257 11.1309V11.6158C81.7257 11.7081 81.7001 11.789 81.6491 11.8582L79.6523 14.9756H81.6491C81.6923 14.9756 81.7267 14.9905 81.7522 15.0206C81.7777 15.0507 81.7905 15.091 81.7905 15.1418V15.6406C81.7905 15.6868 81.7777 15.726 81.7522 15.7584C81.7267 15.7906 81.6923 15.8068 81.6491 15.8068H78.6981L78.6982 15.8069ZM83.2984 15.8762C83.0981 15.8762 82.9146 15.8288 82.7476 15.7341C82.5808 15.6395 82.4492 15.5113 82.353 15.3497C82.2568 15.188 82.2087 15.0102 82.2087 14.8162C82.2087 14.5022 82.3166 14.2482 82.5327 14.0542C82.7486 13.8602 83.0451 13.7286 83.422 13.6594L84.229 13.5208V13.3754C84.229 13.1767 84.1858 13.0267 84.0994 12.925C84.013 12.8234 83.8756 12.7727 83.6871 12.7727C83.5575 12.7727 83.4535 12.8004 83.3749 12.8558C83.2963 12.9112 83.2326 12.9677 83.1834 13.0255C83.1343 13.0832 83.102 13.1213 83.0863 13.1398C83.0706 13.1952 83.0411 13.2229 82.998 13.2229H82.5385C82.5032 13.2229 82.4728 13.209 82.4473 13.1813C82.4218 13.1535 82.409 13.1166 82.409 13.0704C82.4129 12.955 82.4611 12.8245 82.5534 12.679C82.6457 12.5336 82.788 12.4066 82.9804 12.2981C83.1728 12.1895 83.4103 12.1353 83.6931 12.1353C84.1565 12.1353 84.4942 12.2576 84.7063 12.5025C84.9183 12.7472 85.0244 13.0682 85.0244 13.4653V15.6406C85.0244 15.6867 85.0116 15.7259 84.9861 15.7583C84.9605 15.7906 84.9261 15.8068 84.883 15.8068H84.3941C84.3548 15.8068 84.3214 15.7906 84.294 15.7583C84.2666 15.7259 84.2528 15.6867 84.2528 15.6406V15.3703C84.1664 15.5181 84.0446 15.6394 83.8875 15.734C83.7305 15.8287 83.5341 15.876 83.2985 15.876L83.2984 15.8762ZM83.4986 15.2111C83.7146 15.2111 83.8913 15.128 84.0288 14.9618C84.1663 14.7956 84.235 14.5554 84.235 14.2414V14.1027L83.646 14.2136C83.1944 14.2968 82.9686 14.4745 82.9686 14.747C82.9686 14.8948 83.0206 15.0092 83.1247 15.0899C83.2287 15.1707 83.3535 15.2111 83.4987 15.2111H83.4986ZM85.9254 15.8069C85.8861 15.8069 85.8528 15.7907 85.8253 15.7584C85.7978 15.7261 85.7841 15.6868 85.7841 15.6407V11.0547C85.7841 11.0039 85.7978 10.9635 85.8253 10.9335C85.8528 10.9035 85.8862 10.8885 85.9254 10.8885H86.4614C86.5046 10.8885 86.539 10.9035 86.5646 10.9335C86.5901 10.9636 86.6028 11.004 86.6028 11.0547V12.6341C86.8385 12.3017 87.1545 12.1353 87.5512 12.1353C87.9124 12.1353 88.2011 12.2751 88.417 12.5545C88.6329 12.8339 88.741 13.2137 88.741 13.694V15.6406C88.741 15.6868 88.7283 15.726 88.7027 15.7584C88.6772 15.7906 88.6428 15.8068 88.5996 15.8068H88.0636C88.0204 15.8068 87.9851 15.7906 87.9575 15.7584C87.9301 15.726 87.9163 15.6868 87.9163 15.6406V13.7356C87.9163 13.4677 87.8604 13.2588 87.7484 13.1086C87.6365 12.9585 87.4765 12.8835 87.2684 12.8835C87.0682 12.8835 86.9072 12.9597 86.7855 13.1121C86.6637 13.2645 86.6028 13.4723 86.6028 13.7355V15.6406C86.6028 15.6867 86.5901 15.7259 86.5646 15.7583C86.539 15.7906 86.5046 15.8068 86.4614 15.8068H85.9254V15.8069ZM89.6362 15.8069C89.5969 15.8069 89.5636 15.7907 89.5361 15.7584C89.5086 15.7261 89.4949 15.6868 89.4949 15.6407V11.0547C89.4949 11.0039 89.5086 10.9635 89.5361 10.9335C89.5636 10.9035 89.5969 10.8885 89.6362 10.8885H90.131C90.1742 10.8885 90.2086 10.9035 90.2341 10.9335C90.2596 10.9636 90.2724 11.004 90.2724 11.0547V15.6407C90.2724 15.6868 90.2596 15.7261 90.2341 15.7584C90.2086 15.7907 90.1742 15.8069 90.131 15.8069H89.6362ZM92.1926 15.8762C91.8314 15.8762 91.5467 15.7375 91.3386 15.4605C91.1304 15.1834 91.0263 14.8023 91.0263 14.3175V12.3709C91.0263 12.3201 91.0401 12.2797 91.0675 12.2497C91.095 12.2197 91.1284 12.2047 91.1676 12.2047H91.6978C91.7371 12.2047 91.7704 12.2209 91.7979 12.2531C91.8254 12.2855 91.8391 12.3247 91.8391 12.3709V14.2759C91.8391 14.844 92.0491 15.128 92.4693 15.128C92.6735 15.128 92.8355 15.0518 92.9552 14.8995C93.075 14.747 93.1349 14.5392 93.1349 14.276V12.3709C93.1349 12.3202 93.1487 12.2798 93.1761 12.2498C93.2036 12.2197 93.237 12.2047 93.2763 12.2047H93.8005C93.8438 12.2047 93.8781 12.2197 93.9037 12.2498C93.9292 12.2799 93.9419 12.3202 93.9419 12.3709V15.6408C93.9419 15.6869 93.9292 15.7261 93.9037 15.7585C93.8781 15.7908 93.8438 15.807 93.8005 15.807H93.3117C93.2724 15.807 93.239 15.7908 93.2115 15.7585C93.1841 15.7261 93.1703 15.6869 93.1703 15.6408V15.3567C92.9544 15.703 92.6284 15.8762 92.1925 15.8762L92.1926 15.8762ZM94.8609 15.8069C94.8215 15.8069 94.7882 15.7907 94.7607 15.7584C94.7332 15.7261 94.7195 15.6868 94.7195 15.6407V12.3709C94.7195 12.3201 94.7332 12.2797 94.7607 12.2497C94.7882 12.2197 94.8215 12.2047 94.8609 12.2047H95.3497C95.3929 12.2047 95.4273 12.2197 95.4528 12.2497C95.4783 12.2798 95.4911 12.3202 95.4911 12.3709V12.6549C95.7307 12.3086 96.0585 12.1354 96.4747 12.1354C96.836 12.1354 97.1227 12.274 97.3347 12.5511C97.5467 12.8282 97.6528 13.2092 97.6528 13.6941V15.6407C97.6528 15.6868 97.6401 15.7261 97.6145 15.7584C97.589 15.7907 97.5546 15.8069 97.5114 15.8069H96.9813C96.942 15.8069 96.9086 15.7907 96.8811 15.7584C96.8537 15.7261 96.8399 15.6868 96.8399 15.6407V13.7357C96.8399 13.4678 96.784 13.2588 96.672 13.1087C96.56 12.9586 96.4 12.8836 96.192 12.8836C95.9917 12.8836 95.8308 12.9598 95.709 13.1122C95.5873 13.2646 95.5264 13.4724 95.5264 13.7356V15.6406C95.5264 15.6868 95.5136 15.726 95.4881 15.7584C95.4626 15.7906 95.4282 15.8068 95.385 15.8068H94.8608L94.8609 15.8069ZM99.7851 17.3309C99.4356 17.3309 99.1529 17.2628 98.9369 17.1265C98.721 16.9903 98.5678 16.8344 98.4775 16.6589C98.3872 16.4835 98.342 16.3333 98.342 16.2086C98.342 16.1624 98.3558 16.1243 98.3832 16.0943C98.4107 16.0643 98.4441 16.0493 98.4834 16.0493H99.0076C99.043 16.0493 99.0734 16.0597 99.0989 16.0805C99.1245 16.1012 99.1451 16.1394 99.1608 16.1948C99.2039 16.3148 99.2687 16.4176 99.3551 16.503C99.4415 16.5885 99.575 16.6312 99.7556 16.6312C99.9913 16.6312 100.164 16.5701 100.274 16.4476C100.384 16.3252 100.439 16.1116 100.439 15.8069V15.3359C100.227 15.6314 99.9265 15.7792 99.5378 15.7792C99.1294 15.7792 98.8221 15.6337 98.616 15.3428C98.4098 15.0518 98.2989 14.6546 98.2831 14.1513L98.2772 13.9642L98.2831 13.7771C98.2988 13.2829 98.4107 12.8858 98.6189 12.5857C98.827 12.2855 99.1333 12.1353 99.5378 12.1353C99.7459 12.1353 99.9286 12.1815 100.086 12.274C100.243 12.3662 100.372 12.491 100.474 12.648V12.3778C100.474 12.327 100.489 12.2855 100.519 12.2531C100.548 12.2208 100.582 12.2046 100.622 12.2046H101.105C101.144 12.2046 101.177 12.2208 101.205 12.2531C101.232 12.2854 101.246 12.327 101.246 12.3778L101.252 15.7169C101.252 16.2294 101.13 16.6266 100.887 16.9083C100.643 17.19 100.276 17.3308 99.7852 17.3308L99.7851 17.3309ZM99.7616 15.0448C99.9815 15.0448 100.146 14.9617 100.256 14.7955C100.366 14.6292 100.427 14.426 100.439 14.1858C100.443 14.1489 100.445 14.075 100.445 13.9641C100.445 13.8533 100.443 13.7794 100.439 13.7424C100.427 13.5022 100.366 13.2991 100.256 13.1328C100.146 12.9665 99.9814 12.8835 99.7616 12.8835C99.3375 12.8835 99.1136 13.1883 99.0901 13.7979L99.0842 13.9641C99.0842 14.6845 99.31 15.0448 99.7616 15.0448V15.0448ZM103.196 15.8762C102.897 15.8762 102.648 15.8231 102.448 15.7169C102.247 15.6107 102.099 15.487 102.003 15.3461C101.907 15.2053 101.858 15.0841 101.858 14.9825C101.858 14.9364 101.871 14.8995 101.897 14.8717C101.922 14.844 101.953 14.8301 101.988 14.8301H102.471C102.502 14.8301 102.53 14.8485 102.553 14.8855C102.573 14.904 102.617 14.9479 102.686 15.0171C102.755 15.0863 102.833 15.1406 102.922 15.1799C103.01 15.2192 103.107 15.2387 103.213 15.2387C103.37 15.2387 103.498 15.203 103.596 15.1314C103.694 15.0598 103.743 14.9571 103.743 14.8232C103.743 14.7308 103.721 14.6557 103.676 14.598C103.63 14.5403 103.55 14.4871 103.434 14.4386C103.318 14.3901 103.144 14.3359 102.913 14.2758C102.579 14.1928 102.332 14.0657 102.174 13.8948C102.014 13.724 101.935 13.4977 101.935 13.2159C101.935 13.0312 101.982 12.8569 102.076 12.693C102.171 12.5291 102.311 12.3951 102.497 12.2911C102.684 12.1872 102.907 12.1353 103.166 12.1353C103.433 12.1353 103.663 12.1849 103.855 12.2842C104.047 12.3835 104.194 12.5024 104.294 12.641C104.394 12.7795 104.444 12.9019 104.444 13.0082C104.444 13.0497 104.431 13.0855 104.406 13.1156C104.38 13.1456 104.35 13.1606 104.315 13.1606H103.873C103.83 13.1606 103.796 13.1421 103.773 13.1052C103.745 13.0821 103.701 13.0394 103.64 12.9771C103.579 12.9147 103.512 12.865 103.437 12.8281C103.362 12.7911 103.272 12.7728 103.166 12.7728C103.021 12.7728 102.909 12.8097 102.83 12.8836C102.752 12.9574 102.712 13.0544 102.712 13.1745C102.712 13.2576 102.731 13.3269 102.768 13.3823C102.806 13.4377 102.881 13.4897 102.995 13.5382C103.109 13.5868 103.28 13.6364 103.508 13.6872C104.214 13.8488 104.568 14.2113 104.568 14.7748C104.568 15.1026 104.447 15.3682 104.206 15.5714C103.964 15.7746 103.627 15.8762 103.195 15.8762L103.196 15.8762ZM106.335 15.8762C106.037 15.8762 105.787 15.8231 105.587 15.7169C105.387 15.6107 105.238 15.487 105.142 15.3461C105.046 15.2053 104.998 15.0841 104.998 14.9825C104.998 14.9364 105.011 14.8995 105.036 14.8717C105.062 14.844 105.092 14.8301 105.128 14.8301H105.61C105.642 14.8301 105.669 14.8485 105.693 14.8855C105.713 14.904 105.757 14.9479 105.825 15.0171C105.894 15.0863 105.973 15.1406 106.061 15.1799C106.149 15.2192 106.247 15.2387 106.353 15.2387C106.51 15.2387 106.637 15.203 106.735 15.1314C106.834 15.0598 106.883 14.9571 106.883 14.8232C106.883 14.7308 106.86 14.6557 106.815 14.598C106.77 14.5403 106.689 14.4871 106.573 14.4386C106.458 14.3901 106.284 14.3359 106.052 14.2758C105.718 14.1928 105.472 14.0657 105.313 13.8948C105.154 13.724 105.074 13.4977 105.074 13.2159C105.074 13.0312 105.122 12.8569 105.216 12.693C105.31 12.5291 105.45 12.3951 105.637 12.2911C105.823 12.1872 106.046 12.1353 106.305 12.1353C106.572 12.1353 106.802 12.1849 106.995 12.2842C107.187 12.3835 107.333 12.5024 107.433 12.641C107.534 12.7795 107.584 12.9019 107.584 13.0082C107.584 13.0497 107.571 13.0855 107.545 13.1156C107.52 13.1456 107.489 13.1606 107.454 13.1606H107.012C106.969 13.1606 106.936 13.1421 106.912 13.1052C106.885 13.0821 106.84 13.0394 106.78 12.9771C106.719 12.9147 106.651 12.865 106.576 12.8281C106.502 12.7911 106.411 12.7728 106.305 12.7728C106.16 12.7728 106.048 12.8097 105.97 12.8836C105.891 12.9574 105.852 13.0544 105.852 13.1745C105.852 13.2576 105.87 13.3269 105.908 13.3823C105.945 13.4377 106.021 13.4897 106.135 13.5382C106.248 13.5868 106.419 13.6364 106.647 13.6872C107.354 13.8488 107.707 14.2113 107.707 14.7748C107.707 15.1026 107.586 15.3682 107.345 15.5714C107.104 15.7746 106.767 15.8762 106.335 15.8762L106.335 15.8762ZM108.744 17.1231C108.713 17.1231 108.684 17.1092 108.659 17.0815C108.633 17.0537 108.62 17.0215 108.62 16.9845C108.62 16.9522 108.628 16.9153 108.644 16.8736L109.109 15.5921L107.978 12.454C107.963 12.4124 107.955 12.3802 107.955 12.357C107.959 12.3155 107.973 12.2797 107.996 12.2496C108.02 12.2196 108.049 12.2046 108.084 12.2046H108.573C108.644 12.2046 108.695 12.2484 108.726 12.3362L109.51 14.5945L110.305 12.3362C110.344 12.2484 110.399 12.2046 110.47 12.2046H110.947C110.982 12.2046 111.012 12.2185 111.035 12.2462C111.059 12.274 111.071 12.3062 111.071 12.3432C111.071 12.3755 111.063 12.4124 111.047 12.454L109.38 16.9915C109.349 17.0793 109.294 17.1231 109.215 17.1231H108.744H108.744ZM112.649 15.8762C112.351 15.8762 112.101 15.8231 111.901 15.7169C111.701 15.6107 111.553 15.487 111.456 15.3461C111.36 15.2053 111.312 15.0841 111.312 14.9825C111.312 14.9364 111.325 14.8995 111.35 14.8717C111.376 14.844 111.406 14.8301 111.442 14.8301H111.925C111.956 14.8301 111.984 14.8485 112.007 14.8855C112.027 14.904 112.071 14.9479 112.14 15.0171C112.208 15.0863 112.287 15.1406 112.375 15.1799C112.464 15.2192 112.561 15.2387 112.667 15.2387C112.824 15.2387 112.951 15.203 113.05 15.1314C113.148 15.0598 113.197 14.9571 113.197 14.8232C113.197 14.7308 113.174 14.6557 113.129 14.598C113.084 14.5403 113.004 14.4871 112.888 14.4386C112.772 14.3901 112.598 14.3359 112.366 14.2758C112.033 14.1928 111.786 14.0657 111.627 13.8948C111.468 13.724 111.389 13.4977 111.389 13.2159C111.389 13.0312 111.436 12.8569 111.53 12.693C111.624 12.5291 111.765 12.3951 111.951 12.2911C112.138 12.1872 112.361 12.1353 112.62 12.1353C112.887 12.1353 113.116 12.1849 113.309 12.2842C113.501 12.3835 113.647 12.5024 113.748 12.641C113.848 12.7795 113.898 12.9019 113.898 13.0082C113.898 13.0497 113.885 13.0855 113.86 13.1156C113.834 13.1456 113.804 13.1606 113.768 13.1606H113.327C113.283 13.1606 113.25 13.1421 113.226 13.1052C113.199 13.0821 113.155 13.0394 113.094 12.9771C113.033 12.9147 112.965 12.865 112.891 12.8281C112.816 12.7911 112.726 12.7728 112.62 12.7728C112.474 12.7728 112.362 12.8097 112.284 12.8836C112.205 12.9574 112.166 13.0544 112.166 13.1745C112.166 13.2576 112.185 13.3269 112.222 13.3823C112.259 13.4377 112.335 13.4897 112.449 13.5382C112.563 13.5868 112.734 13.6364 112.961 13.6872C113.668 13.8488 114.021 14.2113 114.021 14.7748C114.021 15.1026 113.901 15.3682 113.659 15.5714C113.418 15.7746 113.081 15.8762 112.649 15.8762L112.649 15.8762ZM116.001 15.8069C115.644 15.8069 115.375 15.6972 115.194 15.4779C115.013 15.2585 114.923 14.9364 114.923 14.5115V12.9458H114.458C114.418 12.9458 114.385 12.9297 114.358 12.8973C114.33 12.865 114.316 12.8258 114.316 12.7796V12.3709C114.316 12.3247 114.33 12.2855 114.358 12.2531C114.385 12.2209 114.418 12.2047 114.458 12.2047H114.923V11.0547C114.923 11.0039 114.937 10.9635 114.964 10.9335C114.992 10.9035 115.025 10.8885 115.064 10.8885H115.553C115.596 10.8885 115.631 10.9035 115.656 10.9335C115.682 10.9636 115.695 11.004 115.695 11.0547V12.2047H116.431C116.47 12.2047 116.504 12.2209 116.531 12.2531C116.558 12.2855 116.572 12.3247 116.572 12.3709V12.7796C116.572 12.8258 116.558 12.865 116.531 12.8973C116.504 12.9297 116.47 12.9458 116.431 12.9458H115.695V14.4353C115.695 14.6339 115.724 14.7839 115.783 14.8855C115.842 14.9872 115.938 15.0379 116.071 15.0379H116.484C116.527 15.0379 116.561 15.0529 116.587 15.083C116.612 15.1131 116.625 15.1534 116.625 15.2041V15.6406C116.625 15.6868 116.612 15.726 116.587 15.7584C116.561 15.7906 116.527 15.8068 116.484 15.8068H116.001L116.001 15.8069ZM118.475 15.8762C118.035 15.8762 117.686 15.7283 117.429 15.4329C117.172 15.1372 117.036 14.717 117.02 14.172L117.014 13.9988C117.014 13.4216 117.143 12.9666 117.4 12.6341C117.657 12.3017 118.013 12.1353 118.469 12.1353C118.936 12.1353 119.296 12.3016 119.55 12.6341C119.803 12.9666 119.93 13.41 119.93 13.9642V14.1096C119.93 14.1558 119.916 14.1952 119.888 14.2274C119.861 14.2597 119.826 14.2759 119.782 14.2759H117.827V14.3313C117.835 14.5899 117.894 14.8035 118.006 14.972C118.118 15.1406 118.272 15.225 118.469 15.225C118.693 15.225 118.875 15.1188 119.017 14.9063C119.052 14.8554 119.079 14.8243 119.099 14.8127C119.119 14.8011 119.152 14.7954 119.199 14.7954H119.718C119.753 14.7954 119.783 14.8069 119.809 14.83C119.834 14.8531 119.847 14.8854 119.847 14.927C119.847 15.0379 119.791 15.1683 119.679 15.3184C119.567 15.4685 119.407 15.5989 119.199 15.7098C118.991 15.8207 118.749 15.876 118.475 15.876L118.475 15.8762ZM119.117 13.6871V13.6732C119.117 13.4008 119.059 13.1825 118.943 13.0186C118.827 12.8547 118.669 12.7728 118.469 12.7728C118.269 12.7728 118.112 12.8547 117.998 13.0186C117.884 13.1825 117.827 13.4008 117.827 13.6732V13.6871H119.117ZM120.695 15.8069C120.656 15.8069 120.623 15.7907 120.595 15.7584C120.568 15.7261 120.554 15.6868 120.554 15.6407V12.3709C120.554 12.3201 120.568 12.2797 120.595 12.2497C120.623 12.2197 120.656 12.2047 120.695 12.2047H121.161C121.204 12.2047 121.238 12.2197 121.264 12.2497C121.289 12.2798 121.302 12.3202 121.302 12.3709V12.6065C121.514 12.2924 121.799 12.1354 122.156 12.1354C122.592 12.1354 122.896 12.3409 123.069 12.7519C123.163 12.5672 123.297 12.4183 123.47 12.3051C123.642 12.192 123.829 12.1354 124.029 12.1354C124.351 12.1354 124.614 12.2647 124.818 12.5234C125.023 12.782 125.125 13.1583 125.125 13.6525V15.6408C125.125 15.6869 125.112 15.7261 125.086 15.7585C125.061 15.7908 125.027 15.807 124.983 15.807H124.494C124.455 15.807 124.422 15.7908 124.394 15.7585C124.367 15.7261 124.353 15.6869 124.353 15.6408V13.708C124.353 13.4171 124.301 13.2069 124.197 13.0776C124.093 12.9483 123.956 12.8837 123.788 12.8837C123.634 12.8837 123.504 12.9494 123.396 13.081C123.288 13.2127 123.234 13.4216 123.234 13.708V15.6408C123.234 15.6869 123.221 15.7261 123.196 15.7585C123.17 15.7908 123.136 15.807 123.093 15.807H122.598C122.559 15.807 122.525 15.7908 122.498 15.7585C122.47 15.7261 122.456 15.6869 122.456 15.6408V13.708C122.456 13.4217 122.403 13.2127 122.297 13.081C122.191 12.9494 122.056 12.8837 121.891 12.8837C121.738 12.8837 121.607 12.9494 121.499 13.081C121.391 13.2127 121.337 13.4216 121.337 13.708V15.6408C121.337 15.6869 121.325 15.7261 121.299 15.7585C121.273 15.7908 121.239 15.807 121.196 15.807H120.695L120.695 15.8069ZM83.5368 9.17996C83.0971 9.17996 82.7484 9.03212 82.4913 8.73659C82.234 8.44098 82.0976 8.02075 82.0819 7.47581L82.076 7.30259C82.076 6.7253 82.2046 6.27039 82.4618 5.93786C82.7191 5.6054 83.0754 5.43907 83.5309 5.43907C83.9982 5.43907 84.3585 5.60533 84.6117 5.93786C84.865 6.27046 84.9917 6.71376 84.9917 7.26798V7.41343C84.9917 7.45957 84.9779 7.49888 84.9505 7.53117C84.923 7.56345 84.8876 7.57969 84.8444 7.57969H82.8888V7.63505C82.8967 7.89373 82.9565 8.10726 83.0685 8.27578C83.1804 8.44436 83.3345 8.52869 83.5308 8.52869C83.7546 8.52869 83.9372 8.42249 84.0786 8.21002C84.1139 8.15917 84.1415 8.12801 84.1611 8.11647C84.1807 8.10494 84.2141 8.09917 84.2611 8.09917H84.7795C84.8149 8.09917 84.8453 8.11071 84.8708 8.13378C84.8963 8.15685 84.9091 8.1892 84.9091 8.23076C84.9091 8.34161 84.8532 8.47214 84.7412 8.62216C84.6293 8.77225 84.4693 8.90272 84.2611 9.01356C84.053 9.12441 83.8115 9.17983 83.5367 9.17983L83.5368 9.17996ZM84.1787 6.99087V6.97702C84.1787 6.70455 84.1208 6.48631 84.005 6.32236C83.8891 6.15849 83.7311 6.07648 83.5308 6.07648C83.3306 6.07648 83.1735 6.15849 83.0596 6.32236C82.9458 6.48631 82.8888 6.70455 82.8888 6.97702V6.99087H84.1787ZM85.7633 10.4269C85.7239 10.4269 85.6906 10.4118 85.6632 10.3818C85.6357 10.3518 85.6219 10.3114 85.6219 10.2606V5.67467C85.6219 5.62383 85.6357 5.58345 85.6632 5.55349C85.6906 5.52346 85.724 5.50841 85.7633 5.50841H86.2345C86.2776 5.50841 86.313 5.52465 86.3405 5.55694C86.368 5.58922 86.3817 5.62853 86.3817 5.67467V5.95178C86.5899 5.60997 86.902 5.43907 87.3183 5.43907C87.715 5.43907 88.0192 5.58571 88.2312 5.87899C88.4433 6.17228 88.5571 6.56599 88.5729 7.06015C88.5768 7.1155 88.5788 7.1987 88.5788 7.30948C88.5788 7.42032 88.5768 7.50346 88.5729 7.55881C88.5611 8.04382 88.4483 8.43515 88.2342 8.73301C88.0202 9.03087 87.7149 9.17989 87.3182 9.17989C86.9256 9.17989 86.6251 9.01595 86.4171 8.68806V10.2605C86.4171 10.3114 86.4043 10.3518 86.3788 10.3817C86.3533 10.4118 86.3189 10.4268 86.2757 10.4268H85.7632L85.7633 10.4269ZM87.0945 8.43177C87.5147 8.43177 87.7385 8.12695 87.7659 7.51738C87.7698 7.47124 87.7718 7.40196 87.7718 7.30955C87.7718 7.2172 87.7698 7.14786 87.7659 7.10171C87.7385 6.49208 87.5146 6.18732 87.0945 6.18732C86.8707 6.18732 86.7037 6.27278 86.5939 6.44368C86.4839 6.61452 86.425 6.82235 86.4171 7.06704C86.4132 7.12246 86.4113 7.21024 86.4113 7.3303C86.4113 7.45035 86.4132 7.54045 86.4171 7.60051C86.425 7.83141 86.4859 8.02771 86.5997 8.18933C86.7136 8.35096 86.8785 8.43177 87.0945 8.43177ZM89.3739 9.11068C89.3346 9.11068 89.3012 9.09444 89.2739 9.06216C89.2464 9.02987 89.2326 8.99056 89.2326 8.94442V5.68164C89.2326 5.63085 89.2464 5.58929 89.2739 5.55694C89.3012 5.52465 89.3347 5.50841 89.3739 5.50841H89.8569C89.9001 5.50841 89.9354 5.52465 89.963 5.55694C89.9904 5.58922 90.0042 5.63085 90.0042 5.68164V5.9657C90.2005 5.66089 90.4832 5.50848 90.8524 5.50848H91.0997C91.1429 5.50848 91.1773 5.52352 91.2028 5.55356C91.2284 5.58359 91.2411 5.62396 91.2411 5.67474V6.18043C91.2411 6.22657 91.2284 6.26588 91.2028 6.29817C91.1773 6.33045 91.1429 6.34669 91.0997 6.34669H90.6344C90.4498 6.34669 90.3046 6.40901 90.1986 6.53371C90.0925 6.65847 90.0395 6.82931 90.0395 7.04643V8.94448C90.0395 8.99062 90.0258 9.02994 89.9983 9.06222C89.9708 9.09451 89.9374 9.11075 89.8981 9.11075H89.3738L89.3739 9.11068ZM92.8373 9.17996C92.4761 9.17996 92.1913 9.04134 91.9833 8.76423C91.7752 8.48712 91.6711 8.10613 91.6711 7.62126V5.67467C91.6711 5.62383 91.6849 5.58345 91.7123 5.55349C91.7398 5.52346 91.7732 5.50841 91.8125 5.50841H92.3426C92.3819 5.50841 92.4153 5.52465 92.4428 5.55694C92.4703 5.58922 92.484 5.62853 92.484 5.67467V7.57969C92.484 8.1477 92.694 8.43177 93.1142 8.43177C93.3185 8.43177 93.4804 8.35553 93.6002 8.20319C93.7199 8.05078 93.7798 7.84295 93.7798 7.57976V5.67474C93.7798 5.62389 93.7936 5.58352 93.821 5.55356C93.8485 5.52352 93.8819 5.50848 93.9212 5.50848H94.4454C94.4887 5.50848 94.523 5.52352 94.5486 5.55356C94.5742 5.58359 94.5868 5.62396 94.5868 5.67474V8.94448C94.5868 8.99062 94.5742 9.02994 94.5486 9.06222C94.523 9.09451 94.4887 9.11075 94.4454 9.11075H93.9566C93.9173 9.11075 93.884 9.09451 93.8564 9.06222C93.829 9.02994 93.8152 8.99062 93.8152 8.94448V8.66041C93.5993 9.0068 93.2733 9.18003 92.8374 9.18003L92.8373 9.17996ZM95.8356 9.11068C95.7962 9.11068 95.7629 9.09444 95.7354 9.06216C95.7079 9.02987 95.6942 8.99056 95.6942 8.94442V6.24964H95.2171C95.1778 6.24964 95.1444 6.23353 95.1169 6.20118C95.0895 6.1689 95.0757 6.12965 95.0757 6.08344V5.67474C95.0757 5.6286 95.0895 5.58929 95.1169 5.557C95.1444 5.52472 95.1778 5.50848 95.2171 5.50848H95.6942V5.23143C95.6942 4.8112 95.7903 4.49829 95.9828 4.29271C96.1752 4.0872 96.4657 3.98445 96.8545 3.98445H97.2609C97.3002 3.98445 97.3335 4.00069 97.3611 4.03297C97.3885 4.06526 97.4023 4.10457 97.4023 4.15071V4.55941C97.4023 4.60562 97.3885 4.64487 97.3611 4.67715C97.3336 4.7095 97.3002 4.72561 97.2609 4.72561H96.8839C96.7308 4.72561 96.6228 4.7695 96.56 4.85727C96.4971 4.94504 96.4657 5.08121 96.4657 5.26597V5.50841H97.202C97.2414 5.50841 97.2747 5.52465 97.3021 5.55694C97.3296 5.58922 97.3434 5.62853 97.3434 5.67467V6.08338C97.3434 6.12958 97.3296 6.16883 97.3021 6.20111C97.2747 6.23346 97.2413 6.24957 97.202 6.24957H96.4657V8.94435C96.4657 8.99049 96.453 9.0298 96.4275 9.06209C96.4019 9.09437 96.3675 9.11062 96.3243 9.11062H95.8355L95.8356 9.11068ZM99.1989 9.11068C98.8415 9.11068 98.5725 9.00103 98.3919 8.7816C98.2113 8.56223 98.121 8.24011 98.121 7.81524V6.24957H97.6557C97.6164 6.24957 97.583 6.23346 97.5555 6.20111C97.528 6.16883 97.5143 6.12958 97.5143 6.08338V5.67467C97.5143 5.62853 97.528 5.58922 97.5555 5.55694C97.5829 5.52465 97.6164 5.50841 97.6557 5.50841H98.121V4.35848C98.121 4.30763 98.1348 4.26726 98.1622 4.23729C98.1897 4.20726 98.2231 4.19221 98.2623 4.19221H98.7512C98.7944 4.19221 98.8288 4.20726 98.8543 4.23729C98.8799 4.26732 98.8926 4.3077 98.8926 4.35848V5.50841H99.629C99.6682 5.50841 99.7016 5.52465 99.729 5.55694C99.7564 5.58922 99.7703 5.62853 99.7703 5.67467V6.08338C99.7703 6.12958 99.7564 6.16883 99.729 6.20111C99.7016 6.23346 99.6681 6.24957 99.629 6.24957H98.8926V7.739C98.8926 7.93761 98.9221 8.0877 98.9809 8.18933C99.0398 8.29096 99.136 8.34167 99.2695 8.34167H99.6819C99.725 8.34167 99.7594 8.35666 99.785 8.38669C99.8105 8.41679 99.8233 8.45716 99.8233 8.50794V8.94435C99.8233 8.99049 99.8105 9.0298 99.785 9.06209C99.7594 9.09437 99.725 9.11062 99.6819 9.11062H99.1989V9.11068ZM101.673 9.17996C101.233 9.17996 100.884 9.03212 100.627 8.73659C100.37 8.44098 100.234 8.02075 100.218 7.47581L100.212 7.30259C100.212 6.7253 100.341 6.27039 100.598 5.93786C100.855 5.6054 101.211 5.43907 101.667 5.43907C102.134 5.43907 102.494 5.60533 102.748 5.93786C103.001 6.27046 103.128 6.71376 103.128 7.26798V7.41343C103.128 7.45957 103.114 7.49888 103.086 7.53117C103.059 7.56345 103.024 7.57969 102.98 7.57969H101.025V7.63505C101.033 7.89373 101.093 8.10726 101.204 8.27578C101.316 8.44436 101.47 8.52869 101.667 8.52869C101.891 8.52869 102.073 8.42249 102.215 8.21002C102.25 8.15917 102.277 8.12801 102.297 8.11647C102.317 8.10494 102.35 8.09917 102.397 8.09917H102.915C102.951 8.09917 102.981 8.11071 103.007 8.13378C103.032 8.15685 103.045 8.1892 103.045 8.23076C103.045 8.34161 102.989 8.47214 102.877 8.62216C102.765 8.77225 102.605 8.90272 102.397 9.01356C102.189 9.12441 101.948 9.17983 101.673 9.17983L101.673 9.17996ZM102.315 6.99087V6.97702C102.315 6.70455 102.257 6.48631 102.141 6.32236C102.025 6.15849 101.867 6.07648 101.667 6.07648C101.467 6.07648 101.309 6.15849 101.196 6.32236C101.082 6.48631 101.025 6.70455 101.025 6.97702V6.99087H102.315ZM104.918 9.17996C104.62 9.17996 104.37 9.12679 104.17 9.02059C103.97 8.91439 103.822 8.79088 103.725 8.64994C103.629 8.50913 103.581 8.38781 103.581 8.28632C103.581 8.24011 103.594 8.20319 103.619 8.17541C103.645 8.1477 103.675 8.13384 103.711 8.13384H104.194C104.225 8.13384 104.253 8.15234 104.276 8.18927C104.296 8.2077 104.34 8.25158 104.409 8.32086C104.477 8.39014 104.556 8.44436 104.644 8.48361C104.733 8.52292 104.83 8.54254 104.936 8.54254C105.093 8.54254 105.22 8.50675 105.319 8.43515C105.417 8.36362 105.466 8.26086 105.466 8.12688C105.466 8.03453 105.443 7.95942 105.398 7.90175C105.353 7.84401 105.273 7.79091 105.157 7.74238C105.041 7.69392 104.867 7.63962 104.635 7.57963C104.302 7.4965 104.055 7.36948 103.896 7.19864C103.737 7.02773 103.658 6.80147 103.658 6.51972C103.658 6.33503 103.705 6.16067 103.799 5.99673C103.893 5.83279 104.034 5.69887 104.22 5.59492C104.407 5.49104 104.63 5.439 104.889 5.439C105.156 5.439 105.385 5.48865 105.578 5.58796C105.77 5.68727 105.917 5.80614 106.017 5.94476C106.117 6.08331 106.167 6.20562 106.167 6.31189C106.167 6.35352 106.154 6.38926 106.129 6.41929C106.103 6.44938 106.073 6.46437 106.037 6.46437H105.596C105.552 6.46437 105.519 6.44594 105.495 6.40894C105.468 6.38587 105.424 6.34318 105.363 6.2808C105.302 6.21842 105.234 6.16883 105.16 6.1319C105.085 6.09491 104.995 6.07648 104.889 6.07648C104.743 6.07648 104.631 6.11341 104.553 6.18732C104.474 6.26124 104.435 6.35816 104.435 6.47829C104.435 6.56142 104.454 6.63063 104.491 6.68612C104.528 6.74147 104.604 6.79352 104.718 6.84204C104.832 6.8905 105.002 6.94016 105.23 6.99094C105.937 7.15263 106.291 7.51512 106.291 8.07855C106.291 8.40644 106.17 8.67195 105.928 8.87514C105.687 9.0784 105.35 9.18003 104.918 9.18003L104.918 9.17996Z" fill="#9DA0B2"/>
</svg>
