<svg width="99" height="33" viewBox="0 0 99 33" fill="none" xmlns="http://www.w3.org/2000/svg">
<path fill-rule="evenodd" clip-rule="evenodd" d="M29.1172 32.6039L34.5359 0.58196H43.3179L37.8992 32.6039H29.1172ZM69.4771 1.32666C67.7954 0.768134 65.1795 0.0234375 61.6293 0.0234375C53.0342 0.0234375 47.0549 4.30544 46.8681 10.6354C46.8681 15.1035 51.3525 17.71 54.529 19.1994C58.0791 20.875 59.2003 21.8058 59.2003 23.2952C59.2003 25.3431 56.3975 26.274 53.9684 26.274C50.4182 26.274 48.5497 25.9017 45.747 24.5984L44.439 24.2261L43.3179 31.3007C45.3733 32.2316 49.1103 32.9763 53.0342 32.9763C62.1899 32.9763 68.1691 28.6943 68.356 22.1782C68.356 18.4547 65.9269 15.6621 60.8819 13.428C57.8923 11.9386 56.0238 11.0077 56.0238 9.51832C56.0238 8.2151 57.7054 6.72571 61.0688 6.72571C63.8715 6.72571 65.9269 7.28423 67.6086 7.84275L68.356 8.2151L69.4771 1.32666ZM92.0861 0.58196H85.1726C83.1172 0.58196 81.6224 1.14048 80.6881 3.1884L67.6086 32.6039H76.7643C76.7643 32.6039 78.2591 28.6943 78.6328 27.7634H89.8438C90.2176 28.8804 90.965 32.6039 90.965 32.6039H98.9996L92.0861 0.58196ZM81.2487 21.2473C81.9961 19.3856 84.612 12.3109 84.612 12.3109C84.612 12.3109 85.3594 10.4492 85.92 9.14597L86.4805 11.9386C86.4805 11.9386 88.1622 19.5717 88.5359 21.2473H81.2487ZM21.6432 0.58196L13.2349 22.3643L12.3006 17.8962C10.6189 12.8695 5.76081 7.28423 0.155273 4.49162L8.00302 32.6039H17.1587L30.9857 0.58196H21.6432Z" fill="#B2B2B2"/>
</svg>
